<svg fill="none" height="24" viewBox="0 0 24 24" width="24" xmlns="http://www.w3.org/2000/svg">
    <g id="Frame">
        <g id="Group">
            <path clip-rule="evenodd"
                d="M16.9088 6.98854C16.9088 7.07556 16.8743 7.15902 16.8127 7.22056C16.7512 7.2821 16.6677 7.31667 16.5807 7.31667H7.41931C7.33228 7.31667 7.24882 7.2821 7.18729 7.22056C7.12575 7.15902 7.09118 7.07556 7.09118 6.98854C7.09118 6.90152 7.12575 6.81806 7.18729 6.75652C7.24882 6.69499 7.33228 6.66042 7.41931 6.66042H16.5807C16.6237 6.66041 16.6664 6.66889 16.7062 6.68538C16.746 6.70187 16.7822 6.72603 16.8127 6.7565C16.8432 6.78697 16.8673 6.82315 16.8838 6.86296C16.9003 6.90277 16.9088 6.94545 16.9088 6.98854ZM23.3858 12.9959C23.3184 13.9114 22.618 14.6018 21.7567 14.6018H2.24328C1.38195 14.6018 0.681588 13.9114 0.614088 12.9959C0.357025 9.51665 0.358103 7.05299 0.61751 5.46407C0.722275 4.82179 1.17331 4.39026 1.73988 4.39026H22.26C22.8265 4.39026 23.2775 4.82179 23.3824 5.46407C23.6418 7.05299 23.6429 9.51665 23.3858 12.9959ZM20.4258 12.094C20.4258 11.8679 20.2418 11.6839 20.0156 11.6839H3.98435C3.75818 11.6839 3.5742 11.8679 3.5742 12.094V13.9456H20.4258V12.094ZM22.7348 5.56982C22.6954 5.32842 22.5474 5.04651 22.26 5.04651H1.73993C1.45254 5.04651 1.3046 5.32842 1.26518 5.56977C1.01421 7.10713 1.01534 9.5204 1.2686 12.9476C1.31117 13.5259 1.72109 13.9456 2.24328 13.9456H2.91795V12.094C2.91795 11.506 3.39635 11.0276 3.98435 11.0276H20.0156C20.6036 11.0276 21.082 11.506 21.082 12.094V13.9456H21.7567C22.2789 13.9456 22.6888 13.5259 22.7314 12.9477C22.9846 9.52045 22.9857 7.10713 22.7348 5.56982ZM12 16.1018C11.913 16.1018 11.8295 16.1364 11.768 16.1979C11.7064 16.2595 11.6719 16.3429 11.6719 16.43V19.2817C11.6719 19.3687 11.7064 19.4522 11.768 19.5137C11.8295 19.5753 11.913 19.6098 12 19.6098C12.087 19.6098 12.1705 19.5753 12.232 19.5137C12.2935 19.4522 12.3281 19.3687 12.3281 19.2817V16.43C12.3281 16.3429 12.2935 16.2595 12.232 16.1979C12.1705 16.1364 12.087 16.1018 12 16.1018ZM9.18157 16.1021C9.09462 16.1057 9.01265 16.1437 8.95369 16.2077C8.89473 16.2717 8.86362 16.3565 8.86718 16.4434C8.90792 17.4366 8.62568 18.3975 8.09276 19.0797C8.05492 19.1281 8.03144 19.1862 8.02501 19.2474C8.01858 19.3085 8.02945 19.3702 8.05638 19.4254C8.08331 19.4807 8.12522 19.5273 8.17734 19.5599C8.22945 19.5925 8.28967 19.6097 8.35113 19.6098C8.40103 19.6099 8.45028 19.5985 8.49514 19.5767C8.53999 19.5548 8.57925 19.523 8.60993 19.4836C9.23717 18.6807 9.56988 17.5627 9.52287 16.4165C9.51546 16.2354 9.36232 16.0949 9.18157 16.1021ZM6.24471 16.1023C6.06401 16.0925 5.90937 16.232 5.89999 16.4129C5.8482 17.407 5.47638 18.3484 4.87995 18.9958C4.83674 19.0426 4.80813 19.1011 4.7976 19.164C4.78708 19.2268 4.7951 19.2914 4.82068 19.3498C4.84626 19.4082 4.8883 19.4579 4.94165 19.4928C4.99501 19.5276 5.05737 19.5462 5.12112 19.5463C5.20962 19.5463 5.29784 19.5107 5.36248 19.4405C6.06087 18.6825 6.49568 17.5915 6.55526 16.4471C6.55751 16.4041 6.55126 16.361 6.53687 16.3204C6.52248 16.2798 6.50024 16.2424 6.4714 16.2104C6.44256 16.1784 6.4077 16.1524 6.36881 16.1338C6.32991 16.1153 6.28774 16.1046 6.24471 16.1023ZM15.1328 16.4434C15.1359 16.3568 15.1045 16.2724 15.0456 16.2088C14.9867 16.1452 14.905 16.1075 14.8184 16.104C14.7317 16.1004 14.6472 16.1313 14.5833 16.1899C14.5193 16.2484 14.4812 16.3299 14.4771 16.4165C14.4301 17.5627 14.7629 18.6807 15.3901 19.4837C15.4208 19.523 15.4601 19.5549 15.5049 19.5767C15.5498 19.5986 15.599 19.6099 15.6489 19.6098C15.7104 19.6098 15.7706 19.5925 15.8227 19.5599C15.8748 19.5273 15.9167 19.4807 15.9437 19.4255C15.9706 19.3702 15.9815 19.3085 15.975 19.2474C15.9686 19.1863 15.9451 19.1282 15.9073 19.0798C15.3743 18.3974 15.0921 17.4366 15.1328 16.4434ZM18.1001 16.4129C18.0906 16.2319 17.9361 16.0925 17.7553 16.1023C17.6684 16.1068 17.5869 16.1457 17.5287 16.2103C17.4704 16.275 17.4402 16.3601 17.4447 16.447C17.5044 17.5914 17.9392 18.6824 18.6375 19.4404C18.6682 19.4738 18.7055 19.5004 18.7471 19.5186C18.7886 19.5369 18.8335 19.5462 18.8789 19.5462C18.9613 19.5463 19.0406 19.5152 19.1011 19.4593C19.1651 19.4003 19.2031 19.3184 19.2066 19.2314C19.2102 19.1445 19.179 19.0597 19.1201 18.9957C18.5237 18.3485 18.1519 17.407 18.1001 16.4129ZM19.9557 6.54318C19.7104 6.54318 19.5104 6.74324 19.5104 6.98849C19.5104 7.23379 19.7104 7.43381 19.9557 7.43381C20.201 7.43381 20.401 7.23374 20.401 6.98849C20.401 6.74324 20.201 6.54318 19.9557 6.54318Z"
                fill="#0ACC95" fill-rule="evenodd" id="Vector" stroke="#0ACC95"
                stroke-width="0.3" />
        </g>
    </g>
</svg>
