<svg fill="none" height="22" viewBox="0 0 22 22" width="22" xmlns="http://www.w3.org/2000/svg">
    <g id="Frame">
        <g id="Group">
            <path
                d="M11 0.549997C9.49645 0.548947 8.02804 1.00466 6.78927 1.85679C5.55049 2.70892 4.59979 3.91725 4.06309 5.32175C3.52638 6.72625 3.42899 8.26066 3.7838 9.72175C4.13862 11.1828 4.92891 12.5017 6.05001 13.5036V20.35C6.04968 20.4484 6.07586 20.5451 6.1258 20.6298C6.17574 20.7146 6.24759 20.7844 6.33381 20.8318C6.4201 20.8785 6.51717 20.9017 6.61527 20.899C6.71336 20.8963 6.80902 20.8678 6.89261 20.8164L11 18.26L15.1074 20.8164C15.1954 20.8706 15.2966 20.8995 15.4 20.9C15.4723 20.9003 15.544 20.8863 15.6108 20.8587C15.6777 20.8312 15.7384 20.7907 15.7896 20.7396C15.8407 20.6884 15.8812 20.6277 15.9087 20.5608C15.9363 20.494 15.9503 20.4223 15.95 20.35V13.5036C17.0711 12.5017 17.8614 11.1828 18.2162 9.72175C18.571 8.26066 18.4736 6.72625 17.9369 5.32175C17.4002 3.91725 16.4495 2.70892 15.2107 1.85679C13.972 1.00466 12.5036 0.548947 11 0.549997ZM14.85 19.36L11.2926 17.1336C11.2049 17.0785 11.1035 17.0493 11 17.0493C10.8965 17.0493 10.7951 17.0785 10.7074 17.1336L7.15001 19.36V14.322C8.31041 15.0271 9.64217 15.4 11 15.4C12.3578 15.4 13.6896 15.0271 14.85 14.322V19.36ZM11 14.3C9.74904 14.3 8.52616 13.929 7.48602 13.234C6.44588 12.539 5.63519 11.5512 5.15647 10.3955C4.67774 9.23973 4.55249 7.96798 4.79654 6.74105C5.04059 5.51412 5.64299 4.38711 6.52755 3.50255C7.41212 2.61798 8.53913 2.01558 9.76606 1.77153C10.993 1.52748 12.2647 1.65273 13.4205 2.13146C14.5762 2.61018 15.5641 3.42087 16.2591 4.46102C16.9541 5.50116 17.325 6.72403 17.325 7.975C17.3227 9.65178 16.6555 11.2592 15.4699 12.4449C14.2842 13.6305 12.6768 14.2977 11 14.3Z"
                fill="#111111" id="Layer 2" />
            <path
                d="M14.1485 6.31634L12.299 6.04805C12.299 6.04804 12.2989 6.04802 12.2988 6.04801C12.2748 6.04445 12.2521 6.03514 12.2325 6.02087C12.2128 6.00655 12.197 5.98766 12.1862 5.96585L12.1859 5.96521L11.3587 4.29101L10.9977 3.56033L10.6406 4.29292L9.82498 5.96585C9.82491 5.96599 9.82484 5.96613 9.82477 5.96628C9.81404 5.98791 9.79824 6.00664 9.77872 6.02087C9.75914 6.03514 9.73639 6.04445 9.71243 6.04801C9.71234 6.04802 9.71226 6.04803 9.71218 6.04805L7.86268 6.31634L7.06729 6.43173L7.63893 6.9967L8.95893 8.3013L8.95888 8.30134L8.96408 8.3063C8.98176 8.32316 8.99512 8.34403 9.00304 8.36714C9.01066 8.38939 9.01301 8.41309 9.00994 8.43638L8.69622 10.2726L8.559 11.0758L9.27835 10.6932L10.9313 9.81393C10.9526 9.80295 10.9762 9.79721 11.0001 9.79721C11.0241 9.79721 11.0477 9.80295 11.0689 9.81393L12.7219 10.6932L13.4374 11.0737L13.3043 10.2743L12.9985 8.43732L12.9985 8.43732L12.9981 8.43539C12.994 8.41123 12.9958 8.38644 13.0033 8.36311C13.0107 8.33995 13.0236 8.31892 13.0408 8.30177C13.0409 8.30164 13.0411 8.30151 13.0412 8.30138L14.3711 6.99786L14.9481 6.43233L14.1485 6.31634Z"
                id="Layer 3" stroke="#E31E24" stroke-width="0.8" />
        </g>
    </g>
</svg>
