<svg width="17" height="24" viewBox="0 0 17 24" fill="none" xmlns="http://www.w3.org/2000/svg">
<g id="Group 6348">
<path id="&#240;&#159;&#148;&#185;-Icon-Color" fill-rule="evenodd" clip-rule="evenodd" d="M8.16667 0.111328C3.65167 0.111328 0 3.76299 0 8.27799C0 14.403 8.16667 23.4447 8.16667 23.4447C8.16667 23.4447 16.3333 14.403 16.3333 8.27799C16.3333 3.76299 12.6817 0.111328 8.16667 0.111328ZM2.33333 8.27799C2.33333 5.05799 4.94667 2.44466 8.16667 2.44466C11.3867 2.44466 14 5.05799 14 8.27799C14 11.638 10.64 16.6663 8.16667 19.8047C5.74 16.6897 2.33333 11.603 2.33333 8.27799Z" fill="#333333"/>
<path id="&#240;&#159;&#148;&#185;-Icon-Color_2" d="M8.16667 11.1941C9.7775 11.1941 11.0833 9.88828 11.0833 8.27745C11.0833 6.66661 9.7775 5.36078 8.16667 5.36078C6.55584 5.36078 5.25 6.66661 5.25 8.27745C5.25 9.88828 6.55584 11.1941 8.16667 11.1941Z" fill="#E31E24"/>
</g>
</svg>
