<svg fill="none" height="30" viewBox="0 0 30 30" width="30" xmlns="http://www.w3.org/2000/svg">
    <path
        d="M7.97255 24.7425H7.94615C7.81905 24.7356 7.6999 24.6785 7.61489 24.5838C7.52988 24.489 7.48598 24.3644 7.49285 24.2373C7.51243 23.9023 7.45992 23.567 7.33887 23.2541C7.21782 22.9411 7.03105 22.6578 6.79115 22.4232C5.75525 21.4182 4.27925 19.5576 3.85415 18.5715C3.75875 18.3501 3.46865 17.6763 4.11395 14.6067C4.43195 13.095 4.87355 11.5071 5.08565 10.8624C5.15975 10.6368 5.37305 10.2345 5.65565 10.0524C5.94395 9.86609 6.29135 9.67439 6.76565 9.76439C7.47755 9.89999 7.99565 10.6044 7.91946 11.3361L7.45115 15.87C7.43746 15.9961 7.37439 16.1117 7.27572 16.1915C7.17705 16.2712 7.05081 16.3087 6.92461 16.2956C6.7984 16.2826 6.6825 16.2201 6.60223 16.1219C6.52196 16.0236 6.48386 15.8976 6.49625 15.7713L6.96635 11.2356C6.99065 11.0007 6.81065 10.7481 6.58865 10.7058C6.49565 10.6884 6.42485 10.6974 6.18185 10.854C6.13205 10.8966 6.03185 11.0538 5.99765 11.1615C5.79245 11.7852 5.36375 13.3275 5.05355 14.8035C4.51355 17.3754 4.67375 18.0462 4.73585 18.1908C5.07875 18.9858 6.40205 20.7075 7.45925 21.7329C7.79777 22.063 8.06151 22.462 8.23266 22.9028C8.40381 23.3435 8.47839 23.8159 8.45135 24.288C8.44483 24.4106 8.39156 24.5261 8.30249 24.6106C8.21343 24.6952 8.09535 24.7424 7.97255 24.7425Z"
        fill="#FE7196" />
    <path
        d="M11.6769 23.763C11.5528 23.7631 11.4335 23.7151 11.344 23.6292C11.2545 23.5432 11.2018 23.4259 11.1969 23.3019C11.1369 21.7485 11.04 21.3132 11.0019 21.1983C10.8012 20.5965 9.46981 17.736 7.92121 16.3065C7.78381 16.1796 7.62271 16.1217 7.46611 16.1439C7.31611 16.1649 7.18321 16.2597 7.09111 16.4109C7.08601 16.4199 7.07911 16.4313 7.07281 16.443C7.0218 16.5358 6.99942 16.6415 7.0085 16.747C7.01758 16.8524 7.0577 16.9528 7.12381 17.0355L8.49421 18.7881C8.56509 18.8887 8.59464 19.0126 8.57678 19.1343C8.55892 19.2561 8.49499 19.3663 8.39821 19.4422C8.30142 19.5182 8.17917 19.5541 8.05668 19.5425C7.9342 19.5309 7.82084 19.4728 7.74001 19.38L6.36991 17.6274C6.18728 17.3963 6.07711 17.1163 6.05325 16.8227C6.02939 16.5291 6.0929 16.235 6.23581 15.9774C6.24721 15.957 6.25921 15.936 6.27151 15.9156C6.51361 15.5172 6.90151 15.2556 7.33441 15.1941C7.77481 15.132 8.22691 15.2808 8.57461 15.6021C10.4271 17.3121 11.7753 20.4774 11.9148 20.8959C11.9568 21.0225 12.0852 21.4077 12.1584 23.2659C12.1609 23.3289 12.151 23.3918 12.1291 23.4509C12.1073 23.5101 12.0741 23.5644 12.0313 23.6107C11.9885 23.657 11.937 23.6944 11.8798 23.7208C11.8225 23.7472 11.7606 23.762 11.6976 23.7645L11.6769 23.763Z"
        fill="#FE7196" />
    <path
        d="M7.9693 27.48C7.71179 27.4793 7.4617 27.3937 7.25781 27.2364C7.05392 27.0791 6.90762 26.8589 6.8416 26.61L6.5116 25.3602C6.4324 25.0607 6.47542 24.742 6.63121 24.4742C6.78699 24.2064 7.04278 24.0114 7.3423 23.9322L12.0523 22.6869C12.3518 22.6082 12.6703 22.6514 12.938 22.8072C13.2056 22.9629 13.4007 23.2183 13.4803 23.5176L13.8103 24.7674C13.889 25.0669 13.8458 25.3854 13.69 25.6531C13.5343 25.9207 13.2789 26.1158 12.9796 26.1954L8.2696 27.4407C8.17163 27.4668 8.07068 27.48 7.9693 27.48ZM12.3493 23.6079C12.3313 23.6079 12.3133 23.6104 12.2959 23.6151L7.5859 24.8601C7.55946 24.8671 7.53466 24.8792 7.51291 24.8958C7.49117 24.9124 7.47291 24.9332 7.45917 24.9568C7.44544 24.9805 7.4365 25.0066 7.43286 25.0337C7.42923 25.0608 7.43097 25.0884 7.438 25.1148L7.768 26.3646C7.78215 26.4179 7.81689 26.4635 7.86459 26.4912C7.91229 26.5189 7.96905 26.5266 8.0224 26.5125L12.7324 25.2675C12.7856 25.253 12.8309 25.2182 12.8587 25.1705C12.8864 25.1229 12.8943 25.0662 12.8806 25.0128L12.5506 23.763C12.5386 23.7187 12.5125 23.6796 12.4762 23.6516C12.4399 23.6236 12.3954 23.6083 12.3496 23.6079H12.3493ZM22.0276 24.7425C21.9046 24.7427 21.7863 24.6957 21.697 24.6112C21.6077 24.5266 21.5542 24.4111 21.5476 24.2883C21.5206 23.8162 21.5951 23.3438 21.7663 22.9031C21.9374 22.4623 22.2012 22.0633 22.5397 21.7332C23.5969 20.7078 24.9202 18.9861 25.2631 18.1908C25.3252 18.0465 25.486 17.3757 24.9454 14.8038C24.6352 13.3278 24.2065 11.7855 24.0013 11.1618C23.9659 11.0541 23.8669 10.8969 23.8171 10.8543C23.5741 10.6974 23.5033 10.6887 23.41 10.7064C23.1883 10.7484 23.0083 11.001 23.0326 11.2359L23.5027 15.7716C23.5127 15.8359 23.5094 15.9016 23.4932 15.9646C23.477 16.0277 23.4481 16.0867 23.4084 16.1383C23.3686 16.1898 23.3188 16.2327 23.2619 16.2644C23.2051 16.296 23.1424 16.3158 23.0776 16.3225C23.0129 16.3292 22.9474 16.3226 22.8853 16.3032C22.8232 16.2838 22.7656 16.252 22.7162 16.2097C22.6668 16.1674 22.6264 16.1154 22.5977 16.057C22.569 15.9986 22.5524 15.935 22.549 15.87L22.0801 11.3349C22.0045 10.6035 22.522 9.8985 23.2333 9.7632C23.7094 9.6732 24.0568 9.8646 24.3454 10.0512C24.6283 10.2339 24.8416 10.6362 24.9154 10.8612C25.1275 11.5059 25.5691 13.0938 25.8871 14.6055C26.5324 17.6751 26.2423 18.3489 26.1469 18.57C25.7218 19.5564 24.2458 21.417 23.2102 22.4217C22.9702 22.6563 22.7834 22.9397 22.6623 23.2527C22.5412 23.5657 22.4886 23.9011 22.5082 24.2361C22.5151 24.3632 22.4712 24.4878 22.3862 24.5826C22.3012 24.6773 22.182 24.7344 22.0549 24.7413L22.0276 24.7425Z"
        fill="#FE7196" />
    <path
        d="M18.3231 23.763H18.3039C18.2409 23.7605 18.1791 23.7457 18.1218 23.7193C18.0645 23.6929 18.0131 23.6555 17.9703 23.6092C17.9275 23.5629 17.8942 23.5086 17.8724 23.4494C17.8506 23.3903 17.8407 23.3274 17.8431 23.2644C17.9163 21.4074 18.0447 21.0222 18.0867 20.8944C18.2262 20.4744 19.5744 17.3106 21.4269 15.6006C21.7746 15.2793 22.2267 15.1305 22.6671 15.1926C23.1012 15.2526 23.4879 15.5157 23.7288 15.9126C23.7423 15.9351 23.7543 15.9561 23.7663 15.9774C23.9091 16.2351 23.9725 16.5292 23.9486 16.8228C23.9246 17.1164 23.8143 17.3963 23.6316 17.6274L22.2615 19.38C22.2227 19.4297 22.1745 19.4712 22.1196 19.5022C22.0647 19.5332 22.0043 19.5531 21.9417 19.5608C21.8792 19.5685 21.8157 19.5637 21.755 19.5469C21.6942 19.53 21.6374 19.5013 21.5877 19.4625C21.5381 19.4237 21.4966 19.3755 21.4655 19.3206C21.4345 19.2657 21.4146 19.2053 21.4069 19.1427C21.3993 19.0801 21.404 19.0167 21.4209 18.9559C21.4378 18.8952 21.4664 18.8384 21.5052 18.7887L22.8753 17.0361C22.9414 16.9537 22.9816 16.8536 22.9909 16.7484C23.0002 16.6431 22.9782 16.5375 22.9275 16.4448C22.9203 16.4319 22.9134 16.4205 22.9068 16.4094C22.8168 16.2594 22.6833 16.1655 22.5333 16.1445C22.377 16.1223 22.2156 16.1802 22.0782 16.3071C20.5296 17.7366 19.1982 20.5971 18.9975 21.1989C18.9594 21.3138 18.8637 21.7491 18.8025 23.3025C18.7975 23.4263 18.7448 23.5434 18.6555 23.6292C18.5661 23.715 18.447 23.763 18.3231 23.763Z"
        fill="#FE7196" />
    <path
        d="M22.0309 27.48C21.9296 27.48 21.8287 27.4667 21.7309 27.4407L17.0209 26.1954C16.7216 26.1158 16.4661 25.9207 16.3104 25.6531C16.1547 25.3854 16.1115 25.0669 16.1902 24.7674L16.5202 23.5176C16.5998 23.2183 16.7948 22.9629 17.0625 22.8071C17.3302 22.6514 17.6487 22.6082 17.9482 22.6869L22.6582 23.9322C22.8066 23.9713 22.9459 24.0392 23.0681 24.1322C23.1902 24.2252 23.2929 24.3413 23.3701 24.4739C23.4474 24.6066 23.4977 24.7531 23.5183 24.9053C23.5389 25.0574 23.5293 25.2121 23.4901 25.3605L23.1601 26.61C23.094 26.8589 22.9477 27.0791 22.7438 27.2364C22.54 27.3936 22.2899 27.4793 22.0324 27.48H22.0309ZM17.6509 23.6079C17.605 23.6083 17.5606 23.6236 17.5243 23.6516C17.488 23.6796 17.4618 23.7187 17.4499 23.763L17.1199 25.0128C17.1062 25.0662 17.1141 25.1228 17.1418 25.1705C17.1695 25.2181 17.2149 25.253 17.2681 25.2675L21.9781 26.5125C22.0314 26.5266 22.0882 26.5189 22.1359 26.4912C22.1836 26.4635 22.2183 26.4179 22.2325 26.3646L22.5625 25.1148C22.5695 25.0884 22.5712 25.0608 22.5676 25.0337C22.564 25.0066 22.555 24.9804 22.5413 24.9568C22.5275 24.9331 22.5093 24.9124 22.4875 24.8958C22.4658 24.8792 22.441 24.8671 22.4146 24.8601L17.7046 23.6151C17.6867 23.6103 17.6682 23.608 17.6497 23.6082L17.6509 23.6079Z"
        fill="#FE7196" />
    <path
        d="M15.3078 17.1843C14.6529 17.1829 13.9993 17.1262 13.3539 17.0148C12.7341 16.9755 12.3303 16.8069 11.9739 16.6578C11.6475 16.5216 11.3394 16.3929 10.8414 16.3512C10.278 16.3041 9.90423 16.1034 9.72963 15.7545C9.60963 15.5145 9.54243 15.102 9.90963 14.5158C9.92742 14.488 9.93945 14.457 9.94501 14.4244C9.95058 14.3919 9.94956 14.3586 9.94203 14.3265C9.80793 13.7658 9.62583 12.6129 9.91023 11.1903C10.2615 9.4353 11.196 7.8402 12.6882 6.4503L12.7023 6.4374L13.2699 5.9493C13.3081 5.91703 13.3346 5.87316 13.3454 5.8244C13.3562 5.77564 13.3508 5.72468 13.3299 5.6793C12.8625 4.68 12.5124 4.41 12.4266 4.3932C11.9166 4.3407 11.7966 3.9816 11.7717 3.8727C11.691 3.5172 11.9232 3.1137 12.3633 2.8449C12.8979 2.52 13.4943 2.5374 13.92 2.8938C14.055 3.0072 14.2326 3.0957 14.5242 2.8938C14.8217 2.68538 15.1689 2.55913 15.5307 2.5278C16.02 2.49 16.4358 2.5833 16.7655 2.8068C16.9191 2.9109 17.0919 2.9817 17.2755 3.0567C17.646 3.2091 18.1071 3.3987 18.3042 3.9219C18.3409 4.01887 18.358 4.12216 18.3544 4.22578C18.3509 4.32939 18.3268 4.43127 18.2835 4.5255C18.247 4.60357 18.1949 4.67334 18.1304 4.73055C18.0659 4.78776 17.9904 4.8312 17.9085 4.8582C17.5816 4.96517 17.2802 5.13814 17.0229 5.3664C16.8255 5.5464 16.7556 5.6856 16.7367 5.7465C16.7646 5.76117 16.7938 5.77303 16.824 5.7819C17.5011 5.9889 18.3735 6.9777 19.0464 8.3019C19.4994 9.1923 20.2251 10.9752 19.9935 12.9096C19.9917 12.924 19.9893 12.9396 19.9863 12.9525C19.9446 13.166 19.9189 13.3823 19.9095 13.5996C19.8933 14.0301 19.9695 14.2146 20.0022 14.2512C20.2578 14.3781 20.3958 14.625 20.3622 14.8974C20.343 15.0564 20.2914 15.4785 19.017 16.1931C18.3078 16.59 17.5128 16.905 16.89 17.0361C16.3653 17.1465 15.8151 17.1843 15.3078 17.1843ZM10.5945 15.321C10.629 15.3399 10.7196 15.3777 10.9206 15.3945C11.5695 15.4488 11.9805 15.6204 12.3432 15.7719C12.6771 15.9114 12.9657 16.032 13.4394 16.0584C13.461 16.0597 13.4824 16.0623 13.5036 16.0662C13.5207 16.0695 15.2631 16.3962 16.6923 16.0962C17.1807 15.9936 17.826 15.7425 18.4185 15.4248C18.8511 15.1926 19.1181 15.0012 19.269 14.8725C19.0455 14.6091 18.939 14.1993 18.9471 13.6482C18.9544 13.3551 18.986 13.0631 19.0416 12.7752C19.236 11.0997 18.5916 9.5262 18.1899 8.7357C17.5599 7.4979 16.8345 6.789 16.5423 6.6993C15.8523 6.4893 15.7716 5.9889 15.7698 5.784C15.7635 5.1174 16.4598 4.4532 17.2365 4.0929C17.1305 4.03712 17.0213 3.98754 16.9095 3.9444C16.6995 3.8583 16.4628 3.7608 16.2273 3.6012C16.0473 3.4788 15.7902 3.4707 15.6063 3.4851C15.413 3.50325 15.2279 3.57195 15.0696 3.6843C14.4855 4.0872 13.8252 4.0668 13.3032 3.6294C13.2606 3.5937 13.1952 3.5559 13.0671 3.5814C13.0398 3.58689 13.0129 3.59451 12.9867 3.6042C13.3986 3.8622 13.7988 4.4142 14.199 5.2737C14.3075 5.50869 14.3367 5.77261 14.282 6.0256C14.2273 6.2786 14.0919 6.50696 13.896 6.6762L13.3356 7.158C10.2105 10.0761 10.6626 13.2111 10.8756 14.103C10.9124 14.2593 10.9178 14.4213 10.8916 14.5797C10.8654 14.7381 10.8081 14.8897 10.7229 15.0258C10.6287 15.1758 10.6002 15.2763 10.5945 15.321Z"
        fill="#FE7196" />
    <path
        d="M16.6564 9.86077H16.3323C16.2882 9.64194 16.1906 9.4443 16.0606 9.27253H16.6564C16.8188 9.27253 16.9506 9.14077 16.9506 8.97841C16.9506 8.81606 16.8188 8.6843 16.6564 8.6843H13.7154C13.553 8.6843 13.4213 8.81606 13.4213 8.97841C13.4213 9.14077 13.553 9.27253 13.7154 9.27253H14.8918C15.2747 9.27253 15.5983 9.519 15.72 9.86077H13.7154C13.553 9.86077 13.4213 9.99253 13.4213 10.1549C13.4213 10.3172 13.553 10.449 13.7154 10.449H15.72C15.5983 10.7908 15.2747 11.0372 14.8918 11.0372H13.7154C13.6772 11.0372 13.6389 11.0449 13.603 11.0596C13.531 11.0896 13.4737 11.1469 13.4436 11.219C13.4288 11.2546 13.4211 11.2928 13.4211 11.3314C13.4211 11.3699 13.4288 11.4081 13.4436 11.4437C13.4581 11.4798 13.48 11.5124 13.5078 11.5396L15.86 13.8919C15.9177 13.9496 15.9929 13.9784 16.0682 13.9784C16.1435 13.9784 16.2188 13.9496 16.2765 13.8925C16.3912 13.7778 16.3912 13.5914 16.2765 13.4766L14.4254 11.6255H14.8918C15.6024 11.6255 16.1959 11.1196 16.3323 10.449H16.6564C16.8188 10.449 16.9506 10.3172 16.9506 10.1549C16.9506 9.99253 16.8188 9.86077 16.6564 9.86077Z"
        fill="#FE7196" />
    <path
        d="M16.2499 6.2526H13.8301C13.7028 6.2526 13.5807 6.20203 13.4907 6.11201C13.4007 6.022 13.3501 5.89991 13.3501 5.7726C13.3501 5.6453 13.4007 5.52321 13.4907 5.43319C13.5807 5.34317 13.7028 5.2926 13.8301 5.2926H16.2499C16.3772 5.2926 16.4993 5.34317 16.5893 5.43319C16.6793 5.52321 16.7299 5.6453 16.7299 5.7726C16.7299 5.89991 16.6793 6.022 16.5893 6.11201C16.4993 6.20203 16.3772 6.2526 16.2499 6.2526Z"
        fill="#FE7196" />
</svg>
