<svg fill="none" height="24" viewBox="0 0 24 24" width="24" xmlns="http://www.w3.org/2000/svg">
    <g clip-path="url(#clip0_11750_8565)" id="Frame">
        <g id="Group">
            <path
                d="M15.765 12.0428C16.4408 11.3204 16.8095 10.3637 16.793 9.37465C16.7766 8.38559 16.3763 7.44165 15.6768 6.74223C14.9773 6.04281 14.0333 5.64267 13.0442 5.62635C12.0551 5.61003 11.0984 5.9788 10.3762 6.65475L8.72623 5.00475C8.58559 4.86415 8.39486 4.78516 8.19598 4.78516C7.99711 4.78516 7.80638 4.86415 7.66573 5.00475L5.92498 6.74025C5.80668 6.85858 5.73135 7.01307 5.71097 7.17914C5.69058 7.34521 5.72632 7.51333 5.81248 7.65675C6.09947 8.1338 6.21847 8.69321 6.15051 9.24577C6.08254 9.79833 5.83152 10.3122 5.43748 10.7055L2.88148 13.2608C2.17001 13.9701 1.72043 14.9 1.60634 15.8981C1.49224 16.8963 1.7204 17.9036 2.25345 18.7552C2.7865 19.6068 3.59286 20.2522 4.54054 20.5857C5.48821 20.9193 6.52106 20.9212 7.46998 20.5913L11.7375 23.5448C12.2969 23.9286 12.9856 24.0752 13.6529 23.9525C14.3202 23.8297 14.9116 23.4476 15.2978 22.8897C15.6839 22.3318 15.8334 21.6437 15.7133 20.9759C15.5932 20.3082 15.2135 19.7152 14.6572 19.3268L11.5327 17.163L11.7127 16.983C12.106 16.5885 12.6202 16.3372 13.1732 16.2692C13.7261 16.2012 14.2858 16.3205 14.763 16.608C14.9064 16.6939 15.0744 16.7294 15.2403 16.7089C15.4062 16.6884 15.5605 16.613 15.6787 16.4948L17.418 14.7563C17.5586 14.6156 17.6376 14.4249 17.6376 14.226C17.6376 14.0271 17.5586 13.8364 17.418 13.6958L15.765 12.0428ZM14.6182 7.8C15.0373 8.21938 15.2804 8.78303 15.2976 9.37567C15.3149 9.9683 15.1052 10.5452 14.7112 10.9883L11.43 7.70775C11.873 7.31372 12.4498 7.10382 13.0424 7.12097C13.6351 7.13811 14.1988 7.38102 14.6182 7.8ZM3.94198 18.477C3.40632 17.9443 3.09805 17.2247 3.08196 16.4694C3.06588 15.7141 3.34324 14.982 3.85573 14.427L7.99198 18.5633C7.42756 19.0561 6.69944 19.3205 5.95028 19.3045C5.20112 19.2886 4.48491 18.9935 3.94198 18.477ZM13.8 20.5598C14.0274 20.7224 14.1818 20.968 14.2297 21.2434C14.2776 21.5189 14.2153 21.8022 14.0562 22.0321C13.8971 22.262 13.6539 22.4201 13.3792 22.4723C13.1045 22.5245 12.8203 22.4666 12.588 22.311L8.91298 19.7655C9.09373 19.6095 9.39298 19.3028 9.58798 19.104L10.4482 18.243L13.8 20.5598ZM15 15.0525C14.2703 14.7504 13.4674 14.6717 12.693 14.8264C11.9185 14.9812 11.2075 15.3624 10.65 15.9218L9.05998 17.5118L4.90648 13.356L6.49648 11.766C7.0552 11.2089 7.4361 10.4986 7.59096 9.72489C7.74583 8.95122 7.66771 8.149 7.36648 7.41975L8.19148 6.59475L15.825 14.226L15 15.0525Z"
                fill="#111111" id="Vector" />
            <g id="Vector_2">
                <path
                    d="M17.7619 6.2823C17.5631 6.2823 17.3723 6.20331 17.2317 6.0627C17.0911 5.92206 17.0121 5.73133 17.0121 5.53246C17.0121 5.33358 17.0911 5.14285 17.2317 5.00221L19.4067 2.8272C19.4759 2.75557 19.5586 2.69844 19.6501 2.65913C19.7416 2.61982 19.84 2.59913 19.9396 2.59827C20.0392 2.5974 20.138 2.61638 20.2301 2.65409C20.3223 2.6918 20.4061 2.74749 20.4765 2.81791C20.5469 2.88833 20.6026 2.97207 20.6403 3.06424C20.678 3.15641 20.697 3.25517 20.6961 3.35476C20.6953 3.45434 20.6353 3.64426 20.6353 3.64426C20.5959 3.73576 20.5388 3.81852 20.4672 3.88771L18.2922 6.0627C18.1515 6.20331 17.9608 6.2823 17.7619 6.2823Z"
                    fill="#E31E24" />
                <path
                    d="M16.0234 4.54396C15.9878 4.54407 15.9522 4.54156 15.9169 4.53646C15.8194 4.52257 15.7255 4.48959 15.6406 4.4394C15.5558 4.3892 15.4817 4.32278 15.4226 4.24393C15.3634 4.16508 15.3204 4.07535 15.296 3.97987C15.2716 3.88438 15.2662 3.78502 15.2802 3.68746L15.7144 0.643955C15.7427 0.446932 15.848 0.2692 16.0073 0.149856C16.0862 0.0907632 16.1759 0.047784 16.2714 0.0233722C16.3669 -0.00103962 16.4662 -0.00640582 16.5638 0.00757996C16.7608 0.0358255 16.9386 0.141181 17.0579 0.30047C17.117 0.379342 17.16 0.46908 17.1844 0.564562C17.2088 0.660044 17.2142 0.759399 17.2002 0.856955L16.7652 3.8997C16.7397 4.07836 16.6507 4.24186 16.5145 4.36019C16.3782 4.47853 16.2039 4.54377 16.0234 4.54396Z"
                    fill="#E31E24" />
                <path
                    d="M19.3939 6.52846L22.4367 6.09345C22.5342 6.07952 22.6335 6.08492 22.7289 6.10936C22.8243 6.1338 22.914 6.17679 22.9928 6.23589C23.0716 6.29498 23.138 6.36901 23.1882 6.45377C23.2384 6.53852 23.2714 6.63232 23.2853 6.72983C23.2992 6.82734 23.2938 6.92663 23.2694 7.02205C23.245 7.11747 23.202 7.20714 23.1429 7.28594C23.0838 7.36474 23.0097 7.43113 22.925 7.48132C22.8402 7.53151 22.7464 7.56452 22.6489 7.57845L19.6069 8.01421C19.5714 8.01867 19.5355 8.02092 19.4997 8.02096C19.31 8.02094 19.1273 7.94902 18.9885 7.81969C18.8497 7.69035 18.765 7.51322 18.7516 7.32396C18.7382 7.13471 18.797 6.94741 18.9162 6.79979C19.0354 6.65218 19.2061 6.55522 19.3939 6.52846Z"
                    fill="#E31E24" />
            </g>
        </g>
    </g>
    <defs>
        <clipPath id="clip0_11750_8565">
            <rect fill="white" height="24" width="24" />
        </clipPath>
    </defs>
</svg>
