<svg fill="none" height="26" viewBox="0 0 26 26" width="26" xmlns="http://www.w3.org/2000/svg">
    <g id="17140207011596026803 1">
        <g id="Group">
            <path
                d="M23.1296 9.77962V6.5403C23.1281 5.26661 22.0959 4.23436 20.8222 4.23293H20.2146V3.86859C20.2093 2.83491 19.3699 2 18.3363 2C17.3027 2 16.4635 2.83486 16.4579 3.86859V4.23288H9.6717V3.86863C9.66644 2.83491 8.82695 2 7.79339 2C6.75983 2 5.92059 2.83486 5.91495 3.86859V4.23288H5.30724C4.03368 4.23436 3.00143 5.26661 3 6.5403V20.6926C3.00147 21.9663 4.03368 22.9985 5.30724 23H20.8222C22.0959 22.9985 23.1281 21.9663 23.1296 20.6926V10.1126C23.1661 10.0046 23.1661 9.88759 23.1296 9.77958L23.1296 9.77962ZM18.3363 3.04063C18.7932 3.04126 19.1635 3.41137 19.164 3.86859V4.97482C19.1605 5.42926 18.7908 5.79587 18.336 5.79587C17.8814 5.79587 17.5118 5.42926 17.5082 4.97482V3.86863C17.5087 3.41137 17.8791 3.04114 18.3363 3.04063ZM6.96522 3.86859C6.96884 3.41385 7.33844 3.0472 7.79301 3.0472C8.24779 3.0472 8.61722 3.41381 8.62101 3.86859V4.97482C8.61722 5.42926 8.24779 5.79587 7.79305 5.79587C7.33844 5.79587 6.96884 5.42926 6.96526 4.97482L6.96522 3.86859ZM5.30724 5.28337H5.94059C6.09158 6.18897 6.87499 6.8528 7.79309 6.8528C8.71133 6.8528 9.49474 6.18897 9.64573 5.28337H16.4837C16.6347 6.18897 17.4182 6.8528 18.3363 6.8528C19.2544 6.8528 20.038 6.18897 20.1888 5.28337H20.8222C21.5161 5.28421 22.0783 5.8464 22.0791 6.5403V9.42072H4.05048V6.54046C4.05112 5.84657 4.61368 5.28421 5.30724 5.28337ZM20.8222 21.9495H5.30724C4.61364 21.9487 4.05128 21.3865 4.05048 20.6926V10.4712H22.0791V20.6926C22.0783 21.3865 21.5161 21.9487 20.8222 21.9496V21.9495Z"
                fill="#111111" id="Vector" stroke="#111111" stroke-width="0.75" />
            <path
                d="M15.6779 13.7959L12.2296 17.1628L10.4789 15.4535C10.2726 15.252 9.94269 15.2543 9.73941 15.4586C9.53612 15.663 9.53545 15.993 9.73777 16.198L9.74501 16.205L11.8628 18.2729C12.0667 18.472 12.3925 18.472 12.5965 18.2729L16.412 14.5479C16.6177 14.3456 16.6218 14.015 16.4212 13.8076C16.2202 13.6004 15.8897 13.5941 15.6809 13.7933L15.6779 13.7961L15.6779 13.7959Z"
                fill="#E31E24" id="Vector_2" stroke="#E31E24" stroke-width="0.75" />
        </g>
    </g>
</svg>
