<svg fill="none" height="22" viewBox="0 0 22 22" width="22" xmlns="http://www.w3.org/2000/svg">
    <g clip-path="url(#clip0_11750_15911)" id="Frame">
        <g id="Group">
            <path
                d="M12.375 22H9.62504C8.98337 22 8.25004 21.45 8.25004 20.35V18.425C8.25004 17.5084 7.79171 16.6834 7.05837 16.0417C5.40837 14.7584 4.58337 12.925 4.58337 10.9084C4.67504 7.42504 7.51671 4.67504 10.9084 4.58337C12.65 4.58337 14.3 5.22504 15.4917 6.41671C16.6834 7.60837 17.4167 9.25837 17.4167 11C17.4167 12.925 16.5917 14.7584 15.0334 15.95C14.2084 16.5917 13.75 17.6 13.75 18.5167V20.625C13.75 21.3584 13.1084 22 12.375 22ZM11 5.50004C8.06671 5.50004 5.59171 7.97504 5.50004 10.9084C5.50004 12.65 6.23337 14.3 7.60837 15.3084C8.61671 16.1334 9.16671 17.2334 9.16671 18.425V20.35C9.16671 20.5334 9.16671 21.0834 9.62504 21.0834H12.375C12.65 21.0834 12.8334 20.9 12.8334 20.625V18.5167C12.8334 17.325 13.475 16.0417 14.4834 15.2167C15.7667 14.2084 16.5 12.65 16.5 11C16.5 9.53337 15.95 8.15837 14.85 7.05837C13.8417 6.05004 12.4667 5.50004 11 5.50004Z"
                fill="#7460EE" id="Vector" />
            <path
                d="M13.2917 19.25H8.70833C8.43333 19.25 8.25 19.0667 8.25 18.7917C8.25 18.5167 8.43333 18.3333 8.70833 18.3333H13.2917C13.5667 18.3333 13.75 18.5167 13.75 18.7917C13.75 19.0667 13.5667 19.25 13.2917 19.25ZM11 2.75C10.725 2.75 10.5417 2.56667 10.5417 2.29167V0.458333C10.5417 0.183333 10.725 0 11 0C11.275 0 11.4583 0.183333 11.4583 0.458333V2.29167C11.4583 2.56667 11.275 2.75 11 2.75ZM17.1417 5.31667C17.05 5.31667 16.8667 5.31667 16.775 5.225C16.5917 5.04167 16.5917 4.76667 16.775 4.58333L18.0583 3.3C18.2417 3.11667 18.5167 3.11667 18.7 3.3C18.8833 3.48333 18.8833 3.75833 18.7 3.94167L17.4167 5.225C17.4167 5.225 17.2333 5.31667 17.1417 5.31667ZM21.5417 11.4583H19.7083C19.4333 11.4583 19.25 11.275 19.25 11C19.25 10.725 19.4333 10.5417 19.7083 10.5417H21.5417C21.8167 10.5417 22 10.725 22 11C22 11.275 21.8167 11.4583 21.5417 11.4583ZM18.425 18.8833C18.3333 18.8833 18.15 18.8833 18.0583 18.7917L16.775 17.5083C16.5917 17.325 16.5917 17.05 16.775 16.8667C16.9583 16.6833 17.2333 16.6833 17.4167 16.8667L18.7 18.15C18.8833 18.3333 18.8833 18.6083 18.7 18.7917C18.7 18.8833 18.6083 18.8833 18.425 18.8833ZM3.575 18.8833C3.48333 18.8833 3.3 18.8833 3.20833 18.7917C3.025 18.6083 3.025 18.3333 3.20833 18.15L4.49167 16.8667C4.675 16.6833 4.95 16.6833 5.13333 16.8667C5.31667 17.05 5.31667 17.325 5.13333 17.5083L3.85 18.7917C3.75833 18.8833 3.66667 18.8833 3.575 18.8833ZM2.29167 11.4583H0.458333C0.183333 11.4583 0 11.275 0 11C0 10.725 0.183333 10.5417 0.458333 10.5417H2.29167C2.56667 10.5417 2.75 10.725 2.75 11C2.75 11.275 2.56667 11.4583 2.29167 11.4583ZM4.85833 5.31667C4.76667 5.31667 4.58333 5.31667 4.49167 5.225L3.20833 3.85C3.025 3.66667 3.025 3.39167 3.20833 3.20833C3.39167 3.025 3.66667 3.025 3.85 3.20833L5.13333 4.49167C5.31667 4.675 5.31667 4.95 5.13333 5.13333C5.04167 5.225 4.95 5.31667 4.85833 5.31667ZM14.6667 11.4583C14.3917 11.4583 14.2083 11.275 14.2083 11C14.2083 9.25833 12.7417 7.79167 11 7.79167C10.725 7.79167 10.5417 7.60833 10.5417 7.33333C10.5417 7.05833 10.725 6.875 11 6.875C13.2917 6.875 15.125 8.70833 15.125 11C15.125 11.275 14.9417 11.4583 14.6667 11.4583Z"
                fill="#7460EE" id="Vector_2" />
        </g>
    </g>
    <defs>
        <clipPath id="clip0_11750_15911">
            <rect fill="white" height="22" width="22" />
        </clipPath>
    </defs>
</svg>
