<svg fill="none" height="18" viewBox="0 0 18 18" width="18" xmlns="http://www.w3.org/2000/svg">
    <path
        d="M17.2139 6.65276V3.88264C17.2126 2.79345 16.3299 1.91072 15.2407 1.90949H14.7211V1.59793C14.7166 0.713971 13.9987 0 13.1149 0C12.231 0 11.5133 0.713935 11.5085 1.59793V1.90946H5.70532V1.59796C5.70082 0.713971 4.98293 0 4.09908 0C3.21523 0 2.49755 0.713935 2.49272 1.59793V1.90946H1.97304C0.883957 1.91072 0.00122422 2.79345 0 3.88264V15.985C0.00126022 17.0742 0.883957 17.9569 1.97304 17.9582H15.2407C16.3299 17.9569 17.2126 17.0742 17.2138 15.985V6.93753C17.2451 6.84516 17.2451 6.74509 17.2138 6.65272L17.2139 6.65276ZM13.1149 0.889898C13.5056 0.890438 13.8222 1.20693 13.8226 1.59793V2.54392C13.8197 2.93254 13.5035 3.24605 13.1146 3.24605C12.7259 3.24605 12.4098 2.93254 12.4067 2.54392V1.59796C12.4072 1.20693 12.7239 0.89033 13.1149 0.889898ZM3.39087 1.59793C3.39396 1.20906 3.71003 0.895515 4.09875 0.895515C4.48766 0.895515 4.80358 1.20902 4.80682 1.59793V2.54392C4.80358 2.93254 4.48766 3.24605 4.09879 3.24605C3.71003 3.24605 3.39396 2.93254 3.3909 2.54392L3.39087 1.59793ZM1.97304 2.80778H2.51465C2.64377 3.5822 3.3137 4.14988 4.09882 4.14988C4.88405 4.14988 5.55399 3.5822 5.68311 2.80778H11.5306C11.6597 3.5822 12.3298 4.14988 13.1149 4.14988C13.9 4.14988 14.5701 3.5822 14.699 2.80778H15.2407C15.8341 2.8085 16.3148 3.28926 16.3155 3.88264V6.34584H0.898324V3.88279C0.898864 3.2894 1.37995 2.8085 1.97304 2.80778ZM15.2407 17.0598H1.97304C1.37991 17.0591 0.899008 16.5784 0.898324 15.985V7.24413H16.3155V15.985C16.3148 16.5784 15.8341 17.0592 15.2407 17.0599V17.0598Z"
        fill="white" />
    <path
        d="M10.8419 10.0873L7.89304 12.9665L6.39596 11.5048C6.21957 11.3324 5.93742 11.3345 5.76358 11.5091C5.58975 11.6839 5.58917 11.9661 5.76218 12.1415L5.76837 12.1474L7.57939 13.9158C7.7538 14.0861 8.03242 14.0861 8.20683 13.9158L11.4696 10.7303C11.6456 10.5573 11.6491 10.2746 11.4775 10.0973C11.3056 9.92006 11.023 9.91473 10.8444 10.085L10.8419 10.0874L10.8419 10.0873Z"
        fill="white" />
</svg>
