<svg fill="none" height="22" viewBox="0 0 22 22" width="22" xmlns="http://www.w3.org/2000/svg">
    <g clip-path="url(#clip0_11750_7545)">
        <path
            d="M13.9171 13.323C12.4227 14.1502 10.5346 13.8835 9.32572 12.6746C8.11693 11.4658 7.84987 9.57763 8.67634 8.08292L8.92671 7.63003L3.18506 1.88837L2.34725 2.72326C0.833594 4.23683 0 6.25705 0 8.41172C0 10.5663 0.833594 12.5869 2.34725 14.1012L7.89907 19.653C9.41273 21.1667 11.4331 22.0003 13.5881 22.0003C15.7431 22.0003 17.7635 21.1667 19.2779 19.6523L20.112 18.8154L14.3702 13.0722L13.9171 13.323ZM8.87133 18.6808L3.31968 13.129C0.764629 10.5729 0.720242 6.44242 3.18549 3.8334L7.24251 7.89042C6.87603 8.75164 6.74334 9.71178 6.86804 10.6448C7.02114 11.7901 7.53474 12.8283 8.35343 13.6469C9.1722 14.4657 10.2103 14.9793 11.3557 15.1322C12.2888 15.2568 13.2489 15.1237 14.11 14.7568L18.167 18.8148C15.5566 21.2809 11.4268 21.2362 8.87133 18.6808ZM16.2792 10.808C16.9201 9.3612 16.5991 7.63815 15.4804 6.52036C14.3615 5.40158 12.6384 5.08048 11.1923 5.72106L10.6354 4.46383C11.5904 4.04076 12.6406 3.91392 13.6725 4.09701C14.7295 4.28448 15.6908 4.78623 16.4524 5.54789C17.214 6.3087 17.7157 7.26991 17.9033 8.32733C18.0864 9.35944 17.9595 10.4098 17.5364 11.3649L16.2792 10.808ZM22 9.25085C22 9.91687 21.9286 10.5827 21.7852 11.2342L20.4423 10.9387C20.5658 10.3789 20.6282 9.8073 20.6285 9.23401C20.629 7.17155 19.8181 5.17806 18.3205 3.67957C16.4111 1.77124 13.6974 0.978209 11.0616 1.55803L10.7661 0.21517C12.2621 -0.114057 13.833 -0.064041 15.309 0.35976C16.8097 0.79065 18.1873 1.60242 19.2928 2.70727C19.2929 2.70738 19.293 2.70748 19.2931 2.70757C20.398 3.81316 21.2097 5.19065 21.6406 6.69133C21.8791 7.52358 22.0001 8.3851 22 9.25085Z"
            fill="#111111" />
    </g>
    <defs>
        <clipPath id="clip0_11750_7545">
            <rect fill="white" height="22" width="22" />
        </clipPath>
    </defs>
</svg>
