<svg fill="none" height="25" viewBox="0 0 30 25" width="30" xmlns="http://www.w3.org/2000/svg">
    <path
        d="M29.0019 4.61407C28.403 3.98669 27.576 3.61597 26.635 3.61597H21.9011V3.55894C21.9011 2.84601 21.616 2.1616 21.1312 1.70533C20.6464 1.22053 19.9905 0.935364 19.2776 0.935364H10.7224C9.98099 0.935364 9.32509 1.22053 8.8403 1.70533C8.35551 2.19012 8.07034 2.84601 8.07034 3.55894V3.61597H3.36502C2.42395 3.61597 1.59696 3.98669 0.998099 4.61407C0.399239 5.21293 0 6.06844 0 6.98099V21.1825C0 22.1236 0.370722 22.9506 0.998099 23.5494C1.59696 24.1483 2.45247 24.5475 3.36502 24.5475H26.635C27.576 24.5475 28.403 24.1768 29.0019 23.5494C29.6008 22.9506 30 22.0951 30 21.1825V6.98099C30 6.03993 29.6293 5.21293 29.0019 4.61407ZM28.5171 21.1825H28.4886C28.4886 21.6958 28.289 22.1521 27.9468 22.4943C27.6046 22.8365 27.1483 23.0361 26.635 23.0361H3.36502C2.85171 23.0361 2.39544 22.8365 2.05323 22.4943C1.71103 22.1521 1.51141 21.6958 1.51141 21.1825V6.98099C1.51141 6.46768 1.71103 6.01141 2.05323 5.6692C2.39544 5.327 2.85171 5.12738 3.36502 5.12738H8.86882C9.29658 5.12738 9.63878 4.78517 9.63878 4.35742V3.53042C9.63878 3.21673 9.75285 2.93156 9.95247 2.73194C10.1521 2.53232 10.4373 2.41825 10.7509 2.41825H19.2776C19.5912 2.41825 19.8764 2.53232 20.076 2.73194C20.2757 2.93156 20.3897 3.21673 20.3897 3.53042V4.35742C20.3897 4.78517 20.7319 5.12738 21.1597 5.12738H26.6635C27.1768 5.12738 27.6331 5.327 27.9753 5.6692C28.3175 6.01141 28.5171 6.46768 28.5171 6.98099V21.1825Z"
        fill="#E31E24" />
    <path
        d="M15.0001 7.06653C13.0609 7.06653 11.2928 7.86501 10.0381 9.11976C8.75483 10.403 7.98486 12.1426 7.98486 14.0817C7.98486 16.0209 8.78334 17.789 10.0381 19.0437C11.3214 20.327 13.0609 21.0969 15.0001 21.0969C16.9392 21.0969 18.7073 20.2985 19.962 19.0437C21.2453 17.7604 22.0153 16.0209 22.0153 14.0817C22.0153 12.1426 21.2168 10.3745 19.962 9.11976C18.7073 7.86501 16.9392 7.06653 15.0001 7.06653ZM18.8784 17.9886C17.8803 18.9582 16.5115 19.5855 15.0001 19.5855C13.4887 19.5855 12.1198 18.9582 11.1217 17.9886C10.1236 16.9905 9.52479 15.6217 9.52479 14.1103C9.52479 12.5989 10.1522 11.23 11.1217 10.2319C12.1198 9.23383 13.4887 8.63497 15.0001 8.63497C16.5115 8.63497 17.8803 9.26235 18.8784 10.2319C19.8765 11.23 20.4754 12.5989 20.4754 14.1103C20.5039 15.6217 19.8765 16.9905 18.8784 17.9886Z"
        fill="#E31E24" />
    <path
        d="M25.1522 9.83269C25.9239 9.83269 26.5496 9.20708 26.5496 8.43535C26.5496 7.66362 25.9239 7.03801 25.1522 7.03801C24.3805 7.03801 23.7549 7.66362 23.7549 8.43535C23.7549 9.20708 24.3805 9.83269 25.1522 9.83269Z"
        fill="#E31E24" />
</svg>
