<svg width="24" height="24" viewBox="0 0 24 24" fill="none" xmlns="http://www.w3.org/2000/svg">
<path d="M6.04332 15.0713H19.5814C20.0177 15.0722 20.4415 14.9261 20.7846 14.6566C21.1277 14.3871 21.37 14.0099 21.4725 13.5858L23.4431 5.50075C23.4633 5.41797 23.4644 5.3317 23.4463 5.24843C23.4283 5.16517 23.3916 5.08709 23.3389 5.02009C23.2863 4.95309 23.2191 4.89892 23.1425 4.86167C23.0659 4.82441 22.9818 4.80505 22.8966 4.80503H18.6233C18.0166 2.76372 16.1235 1.27052 13.8878 1.27052C11.6522 1.27052 9.75905 2.76367 9.1524 4.80503H4.76203L3.97997 1.52069C3.95065 1.39761 3.8807 1.288 3.7814 1.20958C3.68211 1.13116 3.55928 1.0885 3.43275 1.0885H1.10335C0.792707 1.0885 0.540848 1.34036 0.540848 1.651C0.540848 1.96164 0.792707 2.2135 1.10335 2.2135H2.98847L5.78616 13.9622C4.71849 14.0898 3.88782 15.0003 3.88782 16.1018C3.88782 17.2903 4.85475 18.2573 6.04327 18.2573H6.21633C5.35838 18.6323 4.75711 19.4887 4.75711 20.4833C4.75711 21.8222 5.84644 22.9116 7.18543 22.9116C8.52441 22.9116 9.61378 21.8223 9.61378 20.4833C9.61378 19.4887 9.01252 18.6323 8.15457 18.2573H18.7642C17.9062 18.6323 17.3049 19.4887 17.3049 20.4833C17.3049 21.8222 18.3943 22.9116 19.7333 22.9116C21.0722 22.9116 22.1616 21.8223 22.1616 20.4833C22.1616 19.4887 21.5603 18.6323 20.7024 18.2573H21.4696C21.7802 18.2573 22.0321 18.0055 22.0321 17.6948C22.0321 17.3842 21.7802 17.1323 21.4696 17.1323H6.04332C5.4751 17.1323 5.01286 16.67 5.01286 16.1018C5.01286 15.5336 5.47514 15.0713 6.04332 15.0713ZM13.8879 2.39552C15.9911 2.39552 17.7022 4.10659 17.7022 6.20983C17.7022 8.31302 15.9911 10.0241 13.8879 10.0241C11.7847 10.0241 10.0736 8.31302 10.0736 6.20983C10.0736 4.10659 11.7847 2.39552 13.8879 2.39552ZM8.95669 5.93003C8.95137 6.0232 8.94867 6.11651 8.94858 6.20983C8.94858 8.93336 11.1644 11.1491 13.8879 11.1491C16.6114 11.1491 18.8272 8.93336 18.8272 6.20983C18.8272 6.11594 18.8243 6.02266 18.819 5.93003H22.1806L20.3795 13.3194C20.2881 13.6944 19.9674 13.9463 19.5815 13.9463H6.93886L5.02997 5.93003H8.95669ZM7.18547 21.7865C6.46683 21.7865 5.88216 21.2019 5.88216 20.4832C5.88216 19.7646 6.46683 19.1799 7.18547 19.1799C7.90416 19.1799 8.48883 19.7646 8.48883 20.4832C8.48883 21.2019 7.90416 21.7865 7.18547 21.7865ZM19.7333 21.7865C19.0146 21.7865 18.4299 21.2019 18.4299 20.4832C18.4299 19.7646 19.0146 19.1799 19.7333 19.1799C20.4519 19.1799 21.0366 19.7646 21.0366 20.4832C21.0366 21.2019 20.4519 21.7865 19.7333 21.7865ZM11.2645 6.20983C11.2645 5.89919 11.5164 5.64733 11.827 5.64733H13.3254V4.14892C13.3254 3.83828 13.5773 3.58642 13.8879 3.58642C14.1985 3.58642 14.4504 3.83828 14.4504 4.14892V5.64728H15.9488C16.2594 5.64728 16.5113 5.89914 16.5113 6.20978C16.5113 6.52042 16.2594 6.77228 15.9488 6.77228H14.4504V8.27064C14.4504 8.58128 14.1985 8.83314 13.8879 8.83314C13.5773 8.83314 13.3254 8.58128 13.3254 8.27064V6.77228H11.827C11.5163 6.77233 11.2645 6.52047 11.2645 6.20983Z" fill="white"/>
</svg>
