<svg fill="none" height="20" viewBox="0 0 25 20" width="25" xmlns="http://www.w3.org/2000/svg">
    <path
        d="M6.66691 20C7.8942 20 8.88912 19.0051 8.88912 17.7778C8.88912 16.5505 7.8942 15.5556 6.66691 15.5556C5.43962 15.5556 4.4447 16.5505 4.4447 17.7778C4.4447 19.0051 5.43962 20 6.66691 20Z"
        fill="#E31E24" />
    <path
        d="M17.7782 20C19.0055 20 20.0004 19.0051 20.0004 17.7778C20.0004 16.5505 19.0055 15.5556 17.7782 15.5556C16.5509 15.5556 15.556 16.5505 15.556 17.7778C15.556 19.0051 16.5509 20 17.7782 20Z"
        fill="#E31E24" />
    <path
        d="M23.3332 3.33331H4.44442C4.44442 2.44926 4.09323 1.60142 3.46811 0.976305C2.84299 0.351187 1.99515 0 1.1111 0C0.816421 0 0.533807 0.117062 0.325435 0.325435C0.117062 0.533807 0 0.816421 0 1.1111C0 1.40579 0.117062 1.6884 0.325435 1.89677C0.533807 2.10515 0.816421 2.22221 1.1111 2.22221C1.40579 2.22221 1.6884 2.33927 1.89677 2.54764C2.10515 2.75602 2.22221 3.03863 2.22221 3.33331V11.111C2.22221 11.9951 2.5734 12.8429 3.19851 13.468C3.82363 14.0932 4.67147 14.4444 5.55552 14.4444H18.4999C19.4884 14.4486 20.4502 14.1231 21.233 13.5194C22.0158 12.9157 22.575 12.0682 22.8221 11.111L24.4443 4.71108C24.4859 4.54709 24.4895 4.37576 24.4549 4.21016C24.4202 4.04456 24.3482 3.88907 24.2443 3.75553C24.1362 3.61857 23.9974 3.50897 23.8392 3.43562C23.6809 3.36227 23.5075 3.32722 23.3332 3.33331ZM20.6665 10.5333C20.5449 11.0263 20.258 11.4628 19.8537 11.7701C19.4493 12.0774 18.952 12.2369 18.4443 12.2221H5.55552C5.26084 12.2221 4.97822 12.1051 4.76985 11.8967C4.56148 11.6883 4.44442 11.4057 4.44442 11.111V5.55552H21.911L20.6665 10.5333Z"
        fill="#111111" />
</svg>
