<svg fill="none" height="15" viewBox="0 0 19 15" width="19" xmlns="http://www.w3.org/2000/svg">
    <g id="Group 6142">
        <path
            d="M5.00009 15C5.92056 15 6.66675 14.2538 6.66675 13.3333C6.66675 12.4129 5.92056 11.6667 5.00009 11.6667C4.07962 11.6667 3.33344 12.4129 3.33344 13.3333C3.33344 14.2538 4.07962 15 5.00009 15Z"
            fill="#111111" id="Vector" />
        <path
            d="M13.3335 15C14.2539 15 15.0001 14.2538 15.0001 13.3333C15.0001 12.4129 14.2539 11.6667 13.3335 11.6667C12.413 11.6667 11.6668 12.4129 11.6668 13.3333C11.6668 14.2538 12.413 15 13.3335 15Z"
            fill="#111111" id="Vector_2" />
        <path
            d="M17.4999 2.49998H3.33331C3.33331 1.83695 3.06992 1.20107 2.60108 0.732229C2.13225 0.263391 1.49637 0 0.833328 0C0.612316 0 0.400356 0.0877968 0.244076 0.244076C0.0877968 0.400356 0 0.612316 0 0.833328C0 1.05434 0.0877968 1.2663 0.244076 1.42258C0.400356 1.57886 0.612316 1.66666 0.833328 1.66666C1.05434 1.66666 1.2663 1.75445 1.42258 1.91073C1.57886 2.06701 1.66666 2.27897 1.66666 2.49998V8.33328C1.66666 8.99632 1.93005 9.6322 2.39889 10.101C2.86772 10.5699 3.5036 10.8333 4.16664 10.8333H13.8749C14.6163 10.8364 15.3376 10.5923 15.9247 10.1395C16.5118 9.68675 16.9312 9.05116 17.1166 8.33328L18.3332 3.53331C18.3644 3.41032 18.3671 3.28182 18.3411 3.15762C18.3152 3.03342 18.2611 2.9168 18.1832 2.81665C18.1022 2.71393 17.9981 2.63173 17.8794 2.57672C17.7607 2.5217 17.6307 2.49542 17.4999 2.49998ZM15.4999 7.89995C15.4087 8.26974 15.1935 8.59712 14.8903 8.82759C14.587 9.05806 14.214 9.1777 13.8333 9.16661H4.16664C3.94563 9.16661 3.73367 9.07881 3.57739 8.92253C3.42111 8.76626 3.33331 8.55429 3.33331 8.33328V4.16664H16.4332L15.4999 7.89995Z"
            fill="#111111" id="Vector_3" />
    </g>
</svg>
