<svg fill="none" height="16" viewBox="0 0 16 16" width="16" xmlns="http://www.w3.org/2000/svg">
    <g clip-path="url(#clip0_11843_2792)">
        <path
            d="M10.8511 9.41285L8.62023 7.73973V4.33154C8.62023 3.98885 8.34323 3.71185 8.00055 3.71185C7.65786 3.71185 7.38086 3.98885 7.38086 4.33154V8.0496C7.38086 8.24479 7.47258 8.42885 7.62873 8.54535L10.1074 10.4044C10.2144 10.4849 10.3447 10.5285 10.4786 10.5283C10.6676 10.5283 10.8535 10.4434 10.975 10.2798C11.1808 10.0065 11.125 9.61798 10.8511 9.41285Z"
            fill="#E31E24" />
        <path
            d="M8 0C3.58853 0 0 3.58853 0 8C0 12.4115 3.58853 16 8 16C12.4115 16 16 12.4115 16 8C16 3.58853 12.4115 0 8 0ZM8 14.7607C4.27266 14.7607 1.23934 11.7273 1.23934 8C1.23934 4.27266 4.27266 1.23934 8 1.23934C11.728 1.23934 14.7607 4.27266 14.7607 8C14.7607 11.7273 11.7273 14.7607 8 14.7607Z"
            fill="#111111" />
    </g>
    <defs>
        <clipPath id="clip0_11843_2792">
            <rect fill="white" height="16" width="16" />
        </clipPath>
    </defs>
</svg>
