<svg fill="none" height="42" viewBox="0 0 42 42" width="42" xmlns="http://www.w3.org/2000/svg">
    <path
        d="M21.1838 39.0228C23.2339 39.0267 25.2645 38.6253 27.159 37.8419C29.0534 37.0584 30.7744 35.9083 32.2229 34.4575C32.3472 34.3375 32.4463 34.194 32.5145 34.0352C32.5827 33.8765 32.6186 33.7058 32.6201 33.533C32.6216 33.3603 32.5887 33.189 32.5232 33.0291C32.4578 32.8692 32.3612 32.7239 32.2391 32.6018C32.1169 32.4796 31.9716 32.383 31.8117 32.3176C31.6519 32.2522 31.4805 32.2193 31.3078 32.2208C31.135 32.2223 30.9643 32.2582 30.8056 32.3263C30.6469 32.3945 30.5033 32.4936 30.3833 32.6179C28.5638 34.4374 26.2456 35.6766 23.7219 36.1786C21.1981 36.6806 18.5822 36.423 16.2049 35.4383C13.8275 34.4536 11.7956 32.786 10.366 30.6465C8.93643 28.507 8.17339 25.9916 8.17339 23.4184C8.17339 20.8452 8.93643 18.3298 10.366 16.1903C11.7956 14.0508 13.8275 12.3832 16.2049 11.3985C18.5822 10.4138 21.1981 10.1562 23.7219 10.6582C26.2456 11.1602 28.5638 12.3993 30.3833 14.2189C30.5033 14.3431 30.6469 14.4422 30.8056 14.5104C30.9643 14.5786 31.135 14.6145 31.3078 14.616C31.4805 14.6175 31.6519 14.5846 31.8117 14.5192C31.9716 14.4538 32.1169 14.3572 32.2391 14.235C32.3612 14.1128 32.4578 13.9676 32.5232 13.8077C32.5887 13.6478 32.6216 13.4765 32.6201 13.3037C32.6186 13.131 32.5827 12.9603 32.5145 12.8015C32.4463 12.6428 32.3472 12.4992 32.2229 12.3792C30.4082 10.5618 28.1732 9.22019 25.7159 8.47323C23.2586 7.72626 20.655 7.59706 18.1358 8.09705C15.6167 8.59705 13.2598 9.71081 11.274 11.3396C9.28831 12.9684 7.73506 15.0619 6.75199 17.4346C5.76891 19.8073 5.38637 22.3859 5.63827 24.9418C5.89017 27.4978 6.76874 29.9521 8.19608 32.0872C9.62344 34.2223 11.5555 35.9724 13.821 37.1822C16.0865 38.392 18.6155 39.0242 21.1838 39.0228Z"
        fill="#111111" />
    <path
        d="M14.6785 31.2245C15.0235 31.2244 15.3544 31.0873 15.5983 30.8433L22.1034 24.3382C22.3474 24.0943 22.4845 23.7634 22.4846 23.4184V14.3112C22.4846 13.9662 22.3475 13.6353 22.1036 13.3913C21.8596 13.1473 21.5287 13.0102 21.1836 13.0102C20.8385 13.0102 20.5076 13.1473 20.2636 13.3913C20.0196 13.6353 19.8826 13.9662 19.8826 14.3112V22.8798L13.7587 29.0037C13.5768 29.1856 13.4529 29.4174 13.4027 29.6697C13.3526 29.9221 13.3783 30.1836 13.4768 30.4213C13.5752 30.659 13.7419 30.8622 13.9558 31.0052C14.1697 31.1481 14.4212 31.2245 14.6785 31.2245Z"
        fill="#111111" />
    <path
        d="M26.3877 24.7194H38.0969C38.442 24.7194 38.7729 24.5823 39.0169 24.3384C39.2609 24.0944 39.3979 23.7634 39.3979 23.4184C39.3979 23.0733 39.2609 22.7424 39.0169 22.4984C38.7729 22.2544 38.442 22.1174 38.0969 22.1174H26.3877C26.0427 22.1174 25.7118 22.2544 25.4678 22.4984C25.2238 22.7424 25.0867 23.0733 25.0867 23.4184C25.0867 23.7634 25.2238 24.0944 25.4678 24.3384C25.7118 24.5823 26.0427 24.7194 26.3877 24.7194Z"
        fill="#0EC156" />
    <path
        d="M30.2908 28.6225C30.5481 28.6224 30.7996 28.5461 31.0135 28.4031C31.2274 28.2601 31.3941 28.057 31.4925 27.8193C31.591 27.5816 31.6167 27.32 31.5666 27.0677C31.5164 26.8154 31.3925 26.5836 31.2106 26.4016L28.2274 23.4184L31.2106 20.4351C31.4476 20.1898 31.5788 19.8611 31.5758 19.52C31.5728 19.1789 31.436 18.8526 31.1948 18.6113C30.9536 18.3701 30.6273 18.2333 30.2861 18.2303C29.945 18.2274 29.6164 18.3585 29.371 18.5955L25.4679 22.4986C25.224 22.7425 25.087 23.0734 25.087 23.4184C25.087 23.7634 25.224 24.0942 25.4679 24.3382L29.371 28.2413C29.6149 28.4853 29.9458 28.6224 30.2908 28.6225Z"
        fill="#0EC156" />
    <path
        d="M18.5816 5.20409H23.7856C24.1307 5.20409 24.4616 5.06702 24.7056 4.82303C24.9496 4.57904 25.0867 4.24812 25.0867 3.90307C25.0867 3.55802 24.9496 3.2271 24.7056 2.98311C24.4616 2.73912 24.1307 2.60205 23.7856 2.60205H18.5816C18.2365 2.60205 17.9056 2.73912 17.6616 2.98311C17.4176 3.2271 17.2805 3.55802 17.2805 3.90307C17.2805 4.24812 17.4176 4.57904 17.6616 4.82303C17.9056 5.06702 18.2365 5.20409 18.5816 5.20409Z"
        fill="#111111" />
</svg>
