<svg fill="none" height="25" viewBox="0 0 25 25" width="25" xmlns="http://www.w3.org/2000/svg">
    <path
        d="M12.4998 23.4328C13.7308 23.4351 14.9502 23.1941 16.0878 22.7236C17.2254 22.2532 18.2588 21.5625 19.1287 20.6914C19.2033 20.6193 19.2628 20.5331 19.3038 20.4378C19.3447 20.3425 19.3663 20.24 19.3672 20.1362C19.3681 20.0325 19.3483 19.9296 19.309 19.8336C19.2697 19.7376 19.2117 19.6504 19.1384 19.577C19.065 19.5037 18.9778 19.4457 18.8818 19.4064C18.7858 19.3671 18.6829 19.3473 18.5791 19.3482C18.4754 19.3491 18.3729 19.3707 18.2776 19.4116C18.1823 19.4526 18.0961 19.5121 18.024 19.5867C16.9314 20.6793 15.5393 21.4234 14.0239 21.7249C12.5084 22.0263 10.9375 21.8716 9.50999 21.2803C8.08243 20.689 6.86228 19.6877 6.00382 18.4029C5.14537 17.1181 4.68717 15.6077 4.68717 14.0625C4.68717 12.5173 5.14537 11.0068 6.00382 9.72208C6.86228 8.43732 8.08243 7.43597 9.50999 6.84466C10.9375 6.25336 12.5084 6.09865 14.0239 6.40011C15.5393 6.70157 16.9314 7.44566 18.024 8.53827C18.0961 8.61289 18.1823 8.6724 18.2776 8.71335C18.3729 8.75429 18.4754 8.77584 18.5791 8.77674C18.6829 8.77765 18.7858 8.75788 18.8818 8.7186C18.9778 8.67932 19.065 8.62131 19.1384 8.54795C19.2117 8.4746 19.2697 8.38737 19.309 8.29136C19.3483 8.19534 19.3681 8.09247 19.3672 7.98874C19.3663 7.885 19.3447 7.78249 19.3038 7.68717C19.2628 7.59186 19.2033 7.50565 19.1287 7.43358C18.039 6.34225 16.6968 5.53661 15.2213 5.08806C13.7457 4.63952 12.1823 4.56193 10.6695 4.86217C9.1568 5.16242 7.7415 5.83122 6.54908 6.8093C5.35666 7.78738 4.42395 9.04452 3.83363 10.4693C3.2433 11.8941 3.01359 13.4425 3.16485 14.9773C3.31612 16.5121 3.84369 17.9859 4.7008 19.268C5.55791 20.5502 6.71808 21.601 8.0785 22.3275C9.43891 23.054 10.9575 23.4336 12.4998 23.4328Z"
        fill="white" />
    <path
        d="M8.59375 18.75C8.80093 18.75 8.99962 18.6676 9.14609 18.5211L13.0523 14.6148C13.1989 14.4684 13.2812 14.2697 13.2812 14.0625V8.59375C13.2812 8.38655 13.1989 8.18784 13.0524 8.04132C12.9059 7.89481 12.7072 7.8125 12.5 7.8125C12.2928 7.8125 12.0941 7.89481 11.9476 8.04132C11.8011 8.18784 11.7188 8.38655 11.7188 8.59375V13.7391L8.04141 17.4164C7.93218 17.5257 7.8578 17.6649 7.82767 17.8164C7.79754 17.9679 7.81301 18.125 7.87213 18.2677C7.93124 18.4104 8.03135 18.5324 8.1598 18.6183C8.28824 18.7041 8.43926 18.75 8.59375 18.75Z"
        fill="white" />
    <path
        d="M15.625 14.8438H22.6562C22.8635 14.8438 23.0622 14.7614 23.2087 14.6149C23.3552 14.4684 23.4375 14.2697 23.4375 14.0625C23.4375 13.8553 23.3552 13.6566 23.2087 13.5101C23.0622 13.3636 22.8635 13.2812 22.6562 13.2812H15.625C15.4178 13.2812 15.2191 13.3636 15.0726 13.5101C14.9261 13.6566 14.8438 13.8553 14.8438 14.0625C14.8438 14.2697 14.9261 14.4684 15.0726 14.6149C15.2191 14.7614 15.4178 14.8438 15.625 14.8438Z"
        fill="white" />
    <path
        d="M17.9689 17.1875C18.1234 17.1874 18.2744 17.1416 18.4029 17.0558C18.5313 16.9699 18.6314 16.8479 18.6905 16.7052C18.7497 16.5624 18.7651 16.4054 18.735 16.2539C18.7049 16.1023 18.6305 15.9631 18.5213 15.8539L16.7299 14.0625L18.5213 12.2711C18.6636 12.1237 18.7423 11.9264 18.7405 11.7215C18.7388 11.5167 18.6566 11.3208 18.5117 11.1759C18.3669 11.0311 18.1709 10.9489 17.9661 10.9471C17.7613 10.9453 17.5639 11.0241 17.4166 11.1664L15.0728 13.5101C14.9264 13.6566 14.8441 13.8553 14.8441 14.0625C14.8441 14.2696 14.9264 14.4683 15.0728 14.6148L17.4166 16.9586C17.5631 17.1051 17.7617 17.1874 17.9689 17.1875Z"
        fill="white" />
    <path
        d="M10.9375 3.125H14.0625C14.2697 3.125 14.4684 3.04269 14.6149 2.89618C14.7614 2.74966 14.8438 2.55095 14.8438 2.34375C14.8438 2.13655 14.7614 1.93784 14.6149 1.79132C14.4684 1.64481 14.2697 1.5625 14.0625 1.5625H10.9375C10.7303 1.5625 10.5316 1.64481 10.3851 1.79132C10.2386 1.93784 10.1562 2.13655 10.1562 2.34375C10.1562 2.55095 10.2386 2.74966 10.3851 2.89618C10.5316 3.04269 10.7303 3.125 10.9375 3.125Z"
        fill="white" />
</svg>
