<svg fill="none" height="26" viewBox="0 0 26 26" width="26" xmlns="http://www.w3.org/2000/svg">
    <g id="Group">
        <path
            d="M19.1905 26H3.09524C2.27463 25.999 1.48792 25.6726 0.90766 25.0923C0.327403 24.5121 0.000982959 23.7254 0 22.9048V3.09524C0.000982959 2.27463 0.327403 1.48792 0.90766 0.90766C1.48792 0.327403 2.27463 0.00098296 3.09524 0H14.3805C14.8115 0.00094477 15.2377 0.0913952 15.632 0.265622C16.0262 0.43985 16.38 0.694057 16.6709 1.01214L21.4809 6.30686C22.0008 6.87507 22.2881 7.61795 22.2857 8.38809V14.56C22.2857 14.7242 22.2205 14.8816 22.1044 14.9977C21.9883 15.1138 21.8308 15.179 21.6667 15.179C21.5025 15.179 21.345 15.1138 21.2289 14.9977C21.1128 14.8816 21.0476 14.7242 21.0476 14.56V8.38809C21.0495 7.92687 20.8778 7.48182 20.5666 7.14133L15.7548 1.846C15.5801 1.65523 15.3678 1.50272 15.1313 1.3981C14.8948 1.29347 14.6391 1.23899 14.3805 1.2381H3.09524C2.60269 1.2381 2.13032 1.43376 1.78204 1.78204C1.43376 2.13032 1.2381 2.60269 1.2381 3.09524V22.9048C1.2381 23.3973 1.43376 23.8697 1.78204 24.218C2.13032 24.5662 2.60269 24.7619 3.09524 24.7619H19.1905C19.3547 24.7619 19.5121 24.8271 19.6282 24.9432C19.7443 25.0593 19.8095 25.2168 19.8095 25.381C19.8095 25.5451 19.7443 25.7026 19.6282 25.8187C19.5121 25.9348 19.3547 26 19.1905 26Z"
            fill="#0EC156" id="Vector" />
        <path
            d="M19.19 8.66643H16.7138C16.2213 8.66643 15.7489 8.47077 15.4006 8.12249C15.0523 7.7742 14.8567 7.30183 14.8567 6.80929V0.878813C14.8567 0.714632 14.9219 0.557174 15.038 0.44108C15.1541 0.324986 15.3115 0.259766 15.4757 0.259766C15.6399 0.259766 15.7974 0.324986 15.9135 0.44108C16.0296 0.557174 16.0948 0.714632 16.0948 0.878813V6.80929C16.0948 6.97347 16.16 7.13093 16.2761 7.24702C16.3922 7.36311 16.5496 7.42834 16.7138 7.42834H19.19C19.3542 7.42834 19.5117 7.49356 19.6277 7.60965C19.7438 7.72574 19.8091 7.8832 19.8091 8.04738C19.8091 8.21157 19.7438 8.36902 19.6277 8.48512C19.5117 8.60121 19.3542 8.66643 19.19 8.66643ZM6.49954 8.97596H4.64239C4.31403 8.97596 3.99911 8.84551 3.76693 8.61333C3.53474 8.38114 3.4043 8.06622 3.4043 7.73786V5.88072C3.4043 5.55235 3.53474 5.23744 3.76693 5.00525C3.99911 4.77306 4.31403 4.64262 4.64239 4.64262H6.49954C6.8279 4.64262 7.14281 4.77306 7.375 5.00525C7.60719 5.23744 7.73763 5.55235 7.73763 5.88072V7.73786C7.73763 8.06622 7.60719 8.38114 7.375 8.61333C7.14281 8.84551 6.8279 8.97596 6.49954 8.97596ZM4.64239 5.88072V7.73786H6.49954V5.88072H4.64239ZM6.49954 15.1664H4.64239C4.31403 15.1664 3.99911 15.036 3.76693 14.8038C3.53474 14.5716 3.4043 14.2567 3.4043 13.9283V12.0712C3.4043 11.7428 3.53474 11.4279 3.76693 11.1957C3.99911 10.9635 4.31403 10.8331 4.64239 10.8331H6.49954C6.8279 10.8331 7.14281 10.9635 7.375 11.1957C7.60719 11.4279 7.73763 11.7428 7.73763 12.0712V13.9283C7.73763 14.2567 7.60719 14.5716 7.375 14.8038C7.14281 15.036 6.8279 15.1664 6.49954 15.1664ZM4.64239 12.0712V13.9283H6.49954V12.0712H4.64239ZM13.6186 14.8569H9.28525C9.12107 14.8569 8.96361 14.7917 8.84752 14.6756C8.73142 14.5595 8.6662 14.402 8.6662 14.2379C8.6662 14.0737 8.73142 13.9162 8.84752 13.8001C8.96361 13.684 9.12107 13.6188 9.28525 13.6188H13.6186C13.7828 13.6188 13.9402 13.684 14.0563 13.8001C14.1724 13.9162 14.2376 14.0737 14.2376 14.2379C14.2376 14.402 14.1724 14.5595 14.0563 14.6756C13.9402 14.7917 13.7828 14.8569 13.6186 14.8569ZM12.3805 12.3807H9.28525C9.12107 12.3807 8.96361 12.3155 8.84752 12.1994C8.73142 12.0833 8.6662 11.9258 8.6662 11.7617C8.6662 11.5975 8.73142 11.44 8.84752 11.3239C8.96361 11.2078 9.12107 11.1426 9.28525 11.1426H12.3805C12.5447 11.1426 12.7021 11.2078 12.8182 11.3239C12.9343 11.44 12.9995 11.5975 12.9995 11.7617C12.9995 11.9258 12.9343 12.0833 12.8182 12.1994C12.7021 12.3155 12.5447 12.3807 12.3805 12.3807ZM6.49954 21.3569H4.64239C4.31403 21.3569 3.99911 21.2265 3.76693 20.9943C3.53474 20.7621 3.4043 20.4472 3.4043 20.1188V18.2617C3.4043 17.9333 3.53474 17.6184 3.76693 17.3862C3.99911 17.154 4.31403 17.0236 4.64239 17.0236H6.49954C6.8279 17.0236 7.14281 17.154 7.375 17.3862C7.60719 17.6184 7.73763 17.9333 7.73763 18.2617V20.1188C7.73763 20.4472 7.60719 20.7621 7.375 20.9943C7.14281 21.2265 6.8279 21.3569 6.49954 21.3569ZM4.64239 18.2617V20.1188H6.49954V18.2617H4.64239ZM13.6186 21.0474H9.28525C9.12107 21.0474 8.96361 20.9822 8.84752 20.8661C8.73142 20.75 8.6662 20.5925 8.6662 20.4283C8.6662 20.2642 8.73142 20.1067 8.84752 19.9906C8.96361 19.8745 9.12107 19.8093 9.28525 19.8093H13.6186C13.7828 19.8093 13.9402 19.8745 14.0563 19.9906C14.1724 20.1067 14.2376 20.2642 14.2376 20.4283C14.2376 20.5925 14.1724 20.75 14.0563 20.8661C13.9402 20.9822 13.7828 21.0474 13.6186 21.0474ZM12.3805 18.5712H9.28525C9.12107 18.5712 8.96361 18.506 8.84752 18.3899C8.73142 18.2738 8.6662 18.1163 8.6662 17.9521C8.6662 17.788 8.73142 17.6305 8.84752 17.5144C8.96361 17.3983 9.12107 17.3331 9.28525 17.3331H12.3805C12.5447 17.3331 12.7021 17.3983 12.8182 17.5144C12.9343 17.6305 12.9995 17.788 12.9995 17.9521C12.9995 18.1163 12.9343 18.2738 12.8182 18.3899C12.7021 18.506 12.5447 18.5712 12.3805 18.5712ZM13.6186 8.66643H9.28525C9.12107 8.66643 8.96361 8.60121 8.84752 8.48512C8.73142 8.36902 8.6662 8.21157 8.6662 8.04738C8.6662 7.8832 8.73142 7.72574 8.84752 7.60965C8.96361 7.49356 9.12107 7.42834 9.28525 7.42834H13.6186C13.7828 7.42834 13.9402 7.49356 14.0563 7.60965C14.1724 7.72574 14.2376 7.8832 14.2376 8.04738C14.2376 8.21157 14.1724 8.36902 14.0563 8.48512C13.9402 8.60121 13.7828 8.66643 13.6186 8.66643ZM12.3805 6.19024H9.28525C9.12107 6.19024 8.96361 6.12502 8.84752 6.00893C8.73142 5.89283 8.6662 5.73537 8.6662 5.57119C8.6662 5.40701 8.73142 5.24955 8.84752 5.13346C8.96361 5.01737 9.12107 4.95215 9.28525 4.95215H12.3805C12.5447 4.95215 12.7021 5.01737 12.8182 5.13346C12.9343 5.24955 12.9995 5.40701 12.9995 5.57119C12.9995 5.73537 12.9343 5.89283 12.8182 6.00893C12.7021 6.12502 12.5447 6.19024 12.3805 6.19024ZM19.19 22.2855C19.0258 22.2854 18.8684 22.2202 18.7523 22.1041L16.8952 20.247C16.7824 20.1302 16.72 19.9738 16.7215 19.8115C16.7229 19.6492 16.788 19.4939 16.9027 19.3792C17.0175 19.2644 17.1728 19.1993 17.3351 19.1979C17.4974 19.1965 17.6538 19.2589 17.7705 19.3716L19.1485 20.7496L21.8104 17.556C21.8618 17.4913 21.9255 17.4375 21.9979 17.3979C22.0702 17.3582 22.1498 17.3334 22.2319 17.3249C22.3141 17.3165 22.397 17.3245 22.476 17.3486C22.5549 17.3727 22.6283 17.4123 22.6917 17.4652C22.7551 17.518 22.8073 17.583 22.8452 17.6563C22.8832 17.7296 22.906 17.8098 22.9125 17.8921C22.919 17.9744 22.909 18.0571 22.883 18.1355C22.857 18.2138 22.8157 18.2862 22.7613 18.3483L19.6661 22.0626C19.611 22.1287 19.5428 22.1826 19.4657 22.2209C19.3886 22.2592 19.3044 22.281 19.2185 22.2849L19.19 22.2855Z"
            fill="#0EC156" id="Vector_2" />
        <path
            d="M19.8096 26C18.5853 26 17.3884 25.6369 16.3704 24.9567C15.3524 24.2765 14.5589 23.3097 14.0904 22.1785C13.6218 21.0473 13.4992 19.8026 13.7381 18.6018C13.977 17.401 14.5665 16.2979 15.4323 15.4322C16.298 14.5664 17.4011 13.9768 18.6019 13.738C19.8028 13.4991 21.0475 13.6217 22.1786 14.0902C23.3098 14.5588 24.2766 15.3522 24.9568 16.3703C25.637 17.3883 26.0001 18.5851 26.0001 19.8095C25.9983 21.4508 25.3455 23.0243 24.185 24.1848C23.0244 25.3454 21.4509 25.9982 19.8096 26ZM19.8096 14.8571C18.8301 14.8571 17.8726 15.1476 17.0582 15.6917C16.2438 16.2359 15.6091 17.0094 15.2342 17.9143C14.8594 18.8192 14.7613 19.815 14.9524 20.7757C15.1435 21.7363 15.6152 22.6188 16.3078 23.3114C17.0004 24.004 17.8828 24.4756 18.8435 24.6667C19.8041 24.8578 20.7999 24.7597 21.7048 24.3849C22.6097 24.0101 23.3832 23.3753 23.9274 22.5609C24.4715 21.7465 24.762 20.789 24.762 19.8095C24.7605 18.4965 24.2383 17.2377 23.3099 16.3093C22.3814 15.3808 21.1226 14.8586 19.8096 14.8571Z"
            fill="#0EC156" id="Vector_3" />
    </g>
</svg>
