<svg width="22" height="22" viewBox="0 0 22 22" fill="none" xmlns="http://www.w3.org/2000/svg">
<g clip-path="url(#clip0_14834_34)">
<path d="M16.5 11C15.4863 11 14.5389 11.2805 13.7227 11.7609L12.8074 11.3948C12.6795 11.3442 12.5698 11.2562 12.4926 11.1423C12.4155 11.0284 12.3745 10.8939 12.375 10.7563V10.2231L12.4176 10.2137C13.607 9.88745 14.4375 8.79725 14.4375 7.5625V4.8125C14.4375 2.15927 12.2786 0 9.625 0C6.97142 0 4.8125 2.15927 4.8125 4.8125V7.5625C4.8125 8.79725 5.643 9.88745 6.875 10.2231V10.7563C6.87548 10.8939 6.83448 11.0284 6.75733 11.1423C6.68019 11.2562 6.57049 11.3442 6.44256 11.3948L2.16116 13.1075C0.848375 13.6324 0 14.8852 0 16.2992V18.5625C0 19.3205 0.616687 19.9375 1.375 19.9375H12.2134C13.2223 21.193 14.7678 22 16.5 22C19.5327 22 22 19.5327 22 16.5C22 13.4673 19.5327 11 16.5 11ZM1.375 18.5625V16.2992C1.375 15.4505 1.88392 14.6993 2.6718 14.3844L6.95355 12.6717C7.33707 12.5196 7.6659 12.2556 7.89716 11.9139C8.12841 11.5722 8.25137 11.1688 8.25 10.7563V10.2231C8.25 9.5987 7.82702 9.06228 7.19623 8.88834C6.60241 8.72541 6.1875 8.18022 6.1875 7.5625V4.8125C6.1875 2.91723 7.72973 1.375 9.625 1.375C11.5203 1.375 13.0625 2.91723 13.0625 4.8125V7.5625C13.0622 7.8635 12.9633 8.15612 12.781 8.39559C12.5986 8.63507 12.3428 8.8082 12.0527 8.88852C11.423 9.06245 11 9.59888 11 10.2231V10.7563C11 11.605 11.5089 12.3563 12.2965 12.6718L12.4891 12.7488C11.5686 13.7325 11 15.0497 11 16.5C11 17.2296 11.1459 17.9248 11.4049 18.5625H1.375ZM16.5 20.625C14.2254 20.625 12.375 18.7746 12.375 16.5C12.375 14.2254 14.2254 12.375 16.5 12.375C18.7746 12.375 20.625 14.2254 20.625 16.5C20.625 18.7746 18.7746 20.625 16.5 20.625ZM19.25 16.5C19.25 16.88 18.9422 17.1875 18.5625 17.1875H17.1875V18.5625C17.1875 18.9425 16.8797 19.25 16.5 19.25C16.1203 19.25 15.8125 18.9425 15.8125 18.5625V17.1875H14.4375C14.0578 17.1875 13.75 16.88 13.75 16.5C13.75 16.12 14.0578 15.8125 14.4375 15.8125H15.8125V14.4375C15.8125 14.0575 16.1203 13.75 16.5 13.75C16.8797 13.75 17.1875 14.0575 17.1875 14.4375V15.8125H18.5625C18.9422 15.8125 19.25 16.12 19.25 16.5Z" fill="#FA5A7D"/>
</g>
<defs>
<clipPath id="clip0_14834_34">
<rect width="22" height="22" fill="white"/>
</clipPath>
</defs>
</svg>
