<svg fill="none" height="14" viewBox="0 0 14 14" width="14" xmlns="http://www.w3.org/2000/svg">
    <path
        d="M11.3333 1.66665H10V0.99998C10 0.823169 9.92976 0.653599 9.80474 0.528575C9.67971 0.403551 9.51014 0.333313 9.33333 0.333313C9.15652 0.333313 8.98695 0.403551 8.86193 0.528575C8.73691 0.653599 8.66667 0.823169 8.66667 0.99998V1.66665H4.66667V0.99998C4.66667 0.823169 4.59643 0.653599 4.4714 0.528575C4.34638 0.403551 4.17681 0.333313 4 0.333313C3.82319 0.333313 3.65362 0.403551 3.5286 0.528575C3.40357 0.653599 3.33333 0.823169 3.33333 0.99998V1.66665H2C1.46957 1.66665 0.960859 1.87736 0.585787 2.25243C0.210714 2.62751 0 3.13621 0 3.66665V11.6666C0 12.1971 0.210714 12.7058 0.585787 13.0809C0.960859 13.4559 1.46957 13.6666 2 13.6666H11.3333C11.8638 13.6666 12.3725 13.4559 12.7475 13.0809C13.1226 12.7058 13.3333 12.1971 13.3333 11.6666V3.66665C13.3333 3.13621 13.1226 2.62751 12.7475 2.25243C12.3725 1.87736 11.8638 1.66665 11.3333 1.66665ZM12 11.6666C12 11.8435 11.9298 12.013 11.8047 12.1381C11.6797 12.2631 11.5101 12.3333 11.3333 12.3333H2C1.82319 12.3333 1.65362 12.2631 1.5286 12.1381C1.40357 12.013 1.33333 11.8435 1.33333 11.6666V6.99998H12V11.6666ZM12 5.66665H1.33333V3.66665C1.33333 3.48984 1.40357 3.32027 1.5286 3.19524C1.65362 3.07022 1.82319 2.99998 2 2.99998H3.33333V3.66665C3.33333 3.84346 3.40357 4.01303 3.5286 4.13805C3.65362 4.26308 3.82319 4.33331 4 4.33331C4.17681 4.33331 4.34638 4.26308 4.4714 4.13805C4.59643 4.01303 4.66667 3.84346 4.66667 3.66665V2.99998H8.66667V3.66665C8.66667 3.84346 8.73691 4.01303 8.86193 4.13805C8.98695 4.26308 9.15652 4.33331 9.33333 4.33331C9.51014 4.33331 9.67971 4.26308 9.80474 4.13805C9.92976 4.01303 10 3.84346 10 3.66665V2.99998H11.3333C11.5101 2.99998 11.6797 3.07022 11.8047 3.19524C11.9298 3.32027 12 3.48984 12 3.66665V5.66665Z"
        fill="#ED1D24" />
</svg>
