<svg fill="none" height="20" viewBox="0 0 20 20" width="20" xmlns="http://www.w3.org/2000/svg">
    <path clip-rule="evenodd"
        d="M4.99935 5.83337C5.45958 5.83337 5.83268 6.20647 5.83268 6.66671V15.8334C5.83268 16.2936 6.20578 16.6667 6.66602 16.6667H13.3327C13.7929 16.6667 14.166 16.2936 14.166 15.8334V6.66671C14.166 6.20647 14.5391 5.83337 14.9993 5.83337C15.4596 5.83337 15.8327 6.20647 15.8327 6.66671V15.8334C15.8327 17.2141 14.7134 18.3334 13.3327 18.3334H6.66602C5.28531 18.3334 4.16602 17.2141 4.16602 15.8334V6.66671C4.16602 6.20647 4.53912 5.83337 4.99935 5.83337Z"
        fill="#111111" fill-rule="evenodd" />
    <path clip-rule="evenodd"
        d="M8.33333 6.66669C8.79358 6.66669 9.16667 7.03979 9.16667 7.50002V14.1667C9.16667 14.6269 8.79358 15 8.33333 15C7.8731 15 7.5 14.6269 7.5 14.1667V7.50002C7.5 7.03979 7.8731 6.66669 8.33333 6.66669Z"
        fill="#FF0000" fill-rule="evenodd" />
    <path clip-rule="evenodd"
        d="M11.6673 6.6665C12.1276 6.6665 12.5007 7.0396 12.5007 7.49984V14.1665C12.5007 14.6268 12.1276 14.9998 11.6673 14.9998C11.2071 14.9998 10.834 14.6268 10.834 14.1665V7.49984C10.834 7.0396 11.2071 6.6665 11.6673 6.6665Z"
        fill="#FF0000" fill-rule="evenodd" />
    <path clip-rule="evenodd"
        d="M3.33398 4.16677C3.33398 3.70654 3.70708 3.33344 4.16732 3.33344H15.834C16.2942 3.33344 16.6673 3.70654 16.6673 4.16677C16.6673 4.627 16.2942 5.0001 15.834 5.0001H4.16732C3.70708 5.0001 3.33398 4.627 3.33398 4.16677Z"
        fill="#111111" fill-rule="evenodd" />
    <path clip-rule="evenodd"
        d="M6.6665 2.49996C6.6665 2.03973 7.0396 1.66663 7.49984 1.66663H12.4998C12.9601 1.66663 13.3332 2.03973 13.3332 2.49996C13.3332 2.96019 12.9601 3.33329 12.4998 3.33329H7.49984C7.0396 3.33329 6.6665 2.96019 6.6665 2.49996Z"
        fill="#111111" fill-rule="evenodd" />
</svg>
