<svg width="13" height="8" viewBox="0 0 13 8" fill="none" xmlns="http://www.w3.org/2000/svg">
<g id="Group">
<g id="Group_2">
<path id="Vector" fill-rule="evenodd" clip-rule="evenodd" d="M9.93619 0.164182C10.0413 0.269339 10.1004 0.411944 10.1004 0.560636C10.1004 0.709328 10.0413 0.851933 9.93619 0.95709L3.76788 7.1254C3.66272 7.23053 3.52012 7.28959 3.37142 7.28959C3.22273 7.28959 3.08013 7.23053 2.97497 7.1254L0.171192 4.32162C0.117634 4.2699 0.0749146 4.20802 0.0455259 4.13961C0.0161373 4.07119 0.000668181 3.99761 2.11723e-05 3.92315C-0.000625837 3.8487 0.0135623 3.77486 0.0417575 3.70594C0.0699528 3.63703 0.111591 3.57442 0.164241 3.52177C0.216892 3.46911 0.279502 3.42748 0.348417 3.39928C0.417331 3.37109 0.491172 3.3569 0.565628 3.35754C0.640085 3.35819 0.713667 3.37366 0.782082 3.40305C0.850496 3.43244 0.912373 3.47516 0.964101 3.52872L3.37142 5.93604L9.14328 0.164182C9.24844 0.0590563 9.39104 0 9.53974 0C9.68843 0 9.83103 0.0590563 9.93619 0.164182ZM12.1792 2.4072C12.2843 2.51236 12.3434 2.65497 12.3434 2.80366C12.3434 2.95235 12.2843 3.09496 12.1792 3.20011L7.97355 7.40578C7.86839 7.51091 7.72578 7.56996 7.57709 7.56996C7.4284 7.56996 7.28579 7.51091 7.18064 7.40578L6.3395 6.56465C6.23736 6.45889 6.18084 6.31724 6.18211 6.17021C6.18339 6.02318 6.24237 5.88254 6.34633 5.77857C6.4503 5.6746 6.59095 5.61563 6.73798 5.61435C6.885 5.61307 7.02665 5.66959 7.13241 5.77174L7.57709 6.21642L11.3863 2.4072C11.4915 2.30208 11.6341 2.24302 11.7828 2.24302C11.9315 2.24302 12.0741 2.30208 12.1792 2.4072Z" fill="#333333"/>
</g>
</g>
</svg>
