<svg fill="none" height="12" viewBox="0 0 13 12" width="13" xmlns="http://www.w3.org/2000/svg">
    <path
        d="M9.71065 4.16171L5.35347 2.29434C3.24074 1.38889 2.18438 0.936162 1.70761 1.381C1.66066 1.4248 1.61805 1.47301 1.58035 1.52498C1.19747 2.0528 1.77656 3.04553 2.93474 5.03099C3.19917 5.48429 3.33138 5.71094 3.34147 5.95942C3.34257 5.98646 3.34257 6.01354 3.34147 6.04058C3.33138 6.28906 3.19917 6.51571 2.93474 6.96901C1.77656 8.95447 1.19747 9.9472 1.58035 10.475C1.61805 10.527 1.66066 10.5752 1.70761 10.619C2.18438 11.0638 3.24074 10.6111 5.35347 9.70566L9.71066 7.83829C11.5445 7.05236 12.4614 6.6594 12.4614 6C12.4614 5.3406 11.5445 4.94764 9.71065 4.16171Z"
        id="Vector 126" stroke="#111111" />
</svg>
