<svg fill="none" height="17" viewBox="0 0 17 17" width="17" xmlns="http://www.w3.org/2000/svg">
    <path clip-rule="evenodd"
        d="M16.0897 4.07753C16.4152 4.40297 16.4152 4.9306 16.0897 5.25605L5.25641 16.0893C5.10013 16.2457 4.88817 16.3334 4.66715 16.3334H1.33382C1.1128 16.3334 0.900847 16.2457 0.744563 16.0893C0.58828 15.9331 0.500488 15.7211 0.500488 15.5001V12.1668C0.500488 11.9458 0.588288 11.7338 0.744563 11.5775L11.5779 0.744197C11.9033 0.418764 12.431 0.418764 12.7564 0.744197C13.0818 1.06964 13.0818 1.59727 12.7564 1.92271L2.16715 12.5119V14.6668H4.32198L14.9112 4.07753C15.2367 3.7521 15.7643 3.7521 16.0897 4.07753Z"
        fill="#349312" fill-rule="evenodd" />
</svg>
