<svg width="16" height="16" viewBox="0 0 16 16" fill="none" xmlns="http://www.w3.org/2000/svg">
<g clip-path="url(#clip0_12721_3345)">
<path d="M8.819 0.614699C8.76235 0.568161 8.69621 0.534562 8.62522 0.516252C8.55423 0.497943 8.48009 0.495365 8.408 0.508699L0.408 2.0087C0.293301 2.02989 0.189662 2.09063 0.115116 2.18034C0.0405697 2.27005 -0.000164571 2.38306 4.99728e-07 2.4997V13.4997C4.99728e-07 13.7397 0.171 13.9467 0.408 13.9907L8.408 15.4907C8.4383 15.4967 8.46912 15.4997 8.5 15.4997C8.615 15.4997 8.729 15.4597 8.819 15.3847C8.87562 15.3378 8.92119 15.2789 8.95247 15.2124C8.98376 15.1459 8.99999 15.0732 9 14.9997V0.999699C9 0.850699 8.934 0.709699 8.819 0.614699ZM8 14.3967L1 13.0847V2.9147L8 1.6027V14.3967Z" fill="#333333"/>
<path d="M15.5 2.49969H8.5C8.224 2.49969 8 2.72369 8 2.99969C8 3.27569 8.224 3.49969 8.5 3.49969H15V12.4997H8.5C8.224 12.4997 8 12.7237 8 12.9997C8 13.2757 8.224 13.4997 8.5 13.4997H15.5C15.776 13.4997 16 13.2757 16 12.9997V2.99969C16 2.72369 15.776 2.49969 15.5 2.49969Z" fill="#333333"/>
<path d="M10.4999 4.49969H8.49986C8.22386 4.49969 7.99986 4.72369 7.99986 4.99969C7.99986 5.27569 8.22386 5.49969 8.49986 5.49969H10.4999C10.7759 5.49969 10.9999 5.27569 10.9999 4.99969C10.9999 4.72369 10.7759 4.49969 10.4999 4.49969ZM10.4999 6.49969H8.49986C8.22386 6.49969 7.99986 6.72369 7.99986 6.99969C7.99986 7.27569 8.22386 7.49969 8.49986 7.49969H10.4999C10.7759 7.49969 10.9999 7.27569 10.9999 6.99969C10.9999 6.72369 10.7759 6.49969 10.4999 6.49969ZM10.4999 8.49969H8.49986C8.22386 8.49969 7.99986 8.72369 7.99986 8.99969C7.99986 9.27569 8.22386 9.49969 8.49986 9.49969H10.4999C10.7759 9.49969 10.9999 9.27569 10.9999 8.99969C10.9999 8.72369 10.7759 8.49969 10.4999 8.49969ZM10.4999 10.4997H8.49986C8.22386 10.4997 7.99986 10.7237 7.99986 10.9997C7.99986 11.2757 8.22386 11.4997 8.49986 11.4997H10.4999C10.7759 11.4997 10.9999 11.2757 10.9999 10.9997C10.9999 10.7237 10.7759 10.4997 10.4999 10.4997ZM13.4999 4.49969H12.4999C12.2239 4.49969 11.9999 4.72369 11.9999 4.99969C11.9999 5.27569 12.2239 5.49969 12.4999 5.49969H13.4999C13.7759 5.49969 13.9999 5.27569 13.9999 4.99969C13.9999 4.72369 13.7759 4.49969 13.4999 4.49969ZM13.4999 6.49969H12.4999C12.2239 6.49969 11.9999 6.72369 11.9999 6.99969C11.9999 7.27569 12.2239 7.49969 12.4999 7.49969H13.4999C13.7759 7.49969 13.9999 7.27569 13.9999 6.99969C13.9999 6.72369 13.7759 6.49969 13.4999 6.49969ZM13.4999 8.49969H12.4999C12.2239 8.49969 11.9999 8.72369 11.9999 8.99969C11.9999 9.27569 12.2239 9.49969 12.4999 9.49969H13.4999C13.7759 9.49969 13.9999 9.27569 13.9999 8.99969C13.9999 8.72369 13.7759 8.49969 13.4999 8.49969ZM13.4999 10.4997H12.4999C12.2239 10.4997 11.9999 10.7237 11.9999 10.9997C11.9999 11.2757 12.2239 11.4997 12.4999 11.4997H13.4999C13.7759 11.4997 13.9999 11.2757 13.9999 10.9997C13.9999 10.7237 13.7759 10.4997 13.4999 10.4997ZM6.87686 9.67069L3.37686 5.67069C3.19286 5.46169 2.87786 5.44169 2.67086 5.62369C2.46286 5.80569 2.44186 6.12169 2.62386 6.32869L6.12386 10.3287C6.17067 10.3824 6.22845 10.4255 6.29331 10.455C6.35818 10.4845 6.42861 10.4997 6.49986 10.4997C6.61686 10.4997 6.73386 10.4587 6.82986 10.3757C7.03786 10.1937 7.05886 9.87869 6.87686 9.67069Z" fill="#333333"/>
<path d="M6.80702 5.10569C6.58902 4.93469 6.27502 4.97569 6.10502 5.19269L2.60502 9.69269C2.43602 9.91069 2.47502 10.2257 2.69302 10.3947C2.78085 10.4628 2.88886 10.4998 3.00002 10.4997C3.14802 10.4997 3.29602 10.4337 3.39402 10.3077L6.89402 5.80769C7.06402 5.58869 7.02502 5.27469 6.80702 5.10569Z" fill="#333333"/>
</g>
<defs>
<clipPath id="clip0_12721_3345">
<rect width="16" height="16" fill="white"/>
</clipPath>
</defs>
</svg>
