<svg fill="none" height="14" viewBox="0 0 14 14" width="14" xmlns="http://www.w3.org/2000/svg">
    <path
        d="M12.0269 0.875H2.40188C2.22776 0.880653 2.06261 0.953529 1.94106 1.07833C1.81952 1.20314 1.75105 1.37017 1.75001 1.54438V2.41938C1.74937 2.5662 1.79702 2.70917 1.88563 2.82625L5.31126 7.35875C5.55582 7.68588 5.68782 8.08343 5.68751 8.49187V10.6444C5.68775 10.8802 5.74141 11.113 5.84446 11.3251C5.94751 11.5373 6.09727 11.7234 6.28251 11.8694L7.69126 12.9631C7.80762 13.0536 7.95074 13.1028 8.09813 13.1031C8.20006 13.1038 8.30065 13.0798 8.39125 13.0331C8.50142 12.9771 8.59354 12.8912 8.657 12.7851C8.72047 12.6791 8.75271 12.5573 8.75001 12.4338V8.49625C8.74874 8.08631 8.8808 7.68708 9.12626 7.35875L12.5519 2.83062C12.6405 2.71355 12.6881 2.57058 12.6875 2.42375V1.54875C12.6887 1.46105 12.6725 1.374 12.6398 1.29259C12.6072 1.21118 12.5588 1.13703 12.4974 1.07441C12.436 1.01179 12.3628 0.961927 12.2821 0.927704C12.2013 0.893481 12.1146 0.875569 12.0269 0.875ZM11.8125 2.35812L8.43063 6.82937C8.06964 7.31175 7.87469 7.89813 7.875 8.50063V12.0006L6.80313 11.1737C6.72675 11.1085 6.66561 11.0272 6.62403 10.9358C6.58246 10.8443 6.56146 10.7448 6.56251 10.6444V8.49187C6.56251 7.89346 6.36745 7.31134 6.00688 6.83375L2.62501 2.35812V1.75H11.8125V2.35812Z"
        fill="#111111" />
</svg>
