<svg width="22" height="22" viewBox="0 0 22 22" fill="none" xmlns="http://www.w3.org/2000/svg">
<g clip-path="url(#clip0_14834_37)">
<path d="M13.0672 10.8176C13.7484 10.2334 14.182 9.36872 14.182 8.40319C14.182 6.64822 12.7545 5.2207 10.9995 5.2207C9.24447 5.2207 7.81699 6.64818 7.81699 8.40319C7.81699 9.36868 8.25059 10.2337 8.93176 10.8176C7.34025 11.3638 6.03362 12.5284 5.37278 14.0881C5.12435 14.6746 5.18704 15.3427 5.54014 15.8759C5.91415 16.4404 6.55271 16.7777 7.24833 16.7777H14.7506C15.4463 16.7777 16.0851 16.4407 16.4588 15.8759C16.8119 15.3426 16.8746 14.6746 16.6261 14.0881C15.9654 12.5283 14.6587 11.364 13.0672 10.8176ZM8.93092 8.40319C8.93092 7.26255 9.85911 6.33463 10.9995 6.33463C12.1399 6.33463 13.068 7.26282 13.068 8.40319C13.068 9.54357 12.1401 10.4718 10.9995 10.4718C9.85884 10.4718 8.93092 9.54384 8.93092 8.40319ZM15.5304 15.2608C15.3633 15.5131 15.0717 15.6637 14.7506 15.6637H7.24838C6.9273 15.6637 6.63573 15.5131 6.46864 15.2608C6.32019 15.0366 6.29459 14.7676 6.39847 14.5228C7.15424 12.7386 8.96047 11.586 10.9995 11.586C13.0386 11.586 14.8448 12.7389 15.6003 14.5228C15.7044 14.7676 15.6786 15.0369 15.5304 15.2608Z" fill="#FFB538"/>
<path d="M21.443 10.4726H20.678C20.4023 5.56181 16.4638 1.61464 11.5569 1.32417V0.556965C11.5569 0.249533 11.3074 0 11 0C10.6925 0 10.443 0.249533 10.443 0.556965V1.32054C5.52451 1.58845 1.56896 5.53062 1.27797 10.443H0.556965C0.249533 10.443 0 10.6925 0 11C0 11.3074 0.249533 11.5569 0.556965 11.5569H1.27433C1.54305 16.4911 5.50891 20.4569 10.4431 20.7257V21.443C10.4431 21.7505 10.6926 22 11 22C11.3075 22 11.557 21.7505 11.557 21.443V20.722C16.4596 20.4318 20.3952 16.4914 20.6769 11.5868H21.443C21.7505 11.5868 22 11.3372 22 11.0298C22 10.7224 21.7505 10.4726 21.443 10.4726ZM11.5569 19.605V18.8323C11.5569 18.5248 11.3074 18.2753 11 18.2753C10.6925 18.2753 10.443 18.5248 10.443 18.8323V19.6087C6.12351 19.3427 2.65724 15.8765 2.39128 11.5569H3.1677C3.47513 11.5569 3.72466 11.3074 3.72466 11C3.72466 10.6925 3.47513 10.443 3.1677 10.443H2.39495C2.68263 6.14522 6.1391 2.70265 10.4431 2.43752V3.1677C10.4431 3.47513 10.6926 3.72466 11 3.72466C11.3075 3.72466 11.557 3.47513 11.557 3.1677V2.44116C15.8492 2.72856 19.2884 6.1764 19.5614 10.4728H18.8323C18.5249 10.4728 18.2753 10.7224 18.2753 11.0298C18.2753 11.3372 18.5249 11.5868 18.8323 11.5868H19.5603C19.2812 15.8768 15.845 19.3179 11.5569 19.605Z" fill="#FFB538"/>
</g>
<defs>
<clipPath id="clip0_14834_37">
<rect width="22" height="22" fill="white"/>
</clipPath>
</defs>
</svg>
