<svg fill="none" height="9" viewBox="0 0 14 9" width="14" xmlns="http://www.w3.org/2000/svg">
    <path clip-rule="evenodd"
        d="M1 4.5C1 4.60313 1.03881 4.70203 1.1079 4.77495C1.17699 4.84787 1.2707 4.88883 1.3684 4.88883L11.7416 4.88883L9.42288 7.33538C9.3537 7.40839 9.31484 7.50742 9.31484 7.61067C9.31484 7.71393 9.3537 7.81296 9.42288 7.88597C9.49205 7.95898 9.58588 8 9.68371 8C9.78154 8 9.87536 7.95898 9.94454 7.88597L12.8918 4.7753C12.9261 4.73918 12.9533 4.69627 12.9719 4.64903C12.9904 4.60179 13 4.55115 13 4.5C13 4.44886 12.9904 4.39821 12.9719 4.35097C12.9533 4.30373 12.9261 4.26082 12.8918 4.22471L9.94454 1.11403C9.91029 1.07788 9.86962 1.0492 9.82487 1.02964C9.78011 1.01007 9.73215 1 9.68371 1C9.58588 1 9.49205 1.04102 9.42288 1.11403C9.3537 1.18704 9.31484 1.28607 9.31484 1.38933C9.31484 1.49258 9.3537 1.59161 9.42288 1.66462L11.7416 4.11117L1.3684 4.11117C1.2707 4.11117 1.17699 4.15213 1.1079 4.22505C1.03881 4.29797 1 4.39687 1 4.5Z"
        fill="white" fill-rule="evenodd" id="Vector" stroke="white" stroke-width="0.5" />
</svg>
