<svg fill="none" height="24" viewBox="0 0 24 24" width="24" xmlns="http://www.w3.org/2000/svg">
    <g id="Frame">
        <g id="Group">
            <path
                d="M16.9641 0H7.03596C5.96721 0 5.09534 0.871875 5.09534 1.94063V20.7938C5.09534 21.675 5.68596 22.4203 6.48752 22.6547V23.2219C6.48752 23.6484 6.8344 23.9953 7.26096 23.9953H9.03752C9.46409 23.9953 9.81096 23.6484 9.81096 23.2219V22.7344H14.1844V23.2219C14.1844 23.6484 14.5313 23.9953 14.9578 23.9953H16.7344C17.161 23.9953 17.5078 23.6484 17.5078 23.2219V22.6547C18.3141 22.4156 18.9 21.675 18.9 20.7938V1.94063C18.9047 0.871875 18.0328 0 16.9641 0ZM7.03596 0.75H16.9594C17.6157 0.75 18.15 1.28438 18.15 1.94063V8.65781H5.84534V1.94063C5.84534 1.28438 6.37971 0.75 7.03596 0.75ZM9.06565 23.2266C9.06565 23.2406 9.05159 23.25 9.04221 23.25H7.26565C7.25159 23.25 7.24221 23.2359 7.24221 23.2266V22.7344H9.06565V23.2266ZM16.7344 23.25H14.9578C14.9438 23.25 14.9344 23.2359 14.9344 23.2266V22.7344H16.7578V23.2219C16.7625 23.2359 16.7485 23.25 16.7344 23.25ZM16.9641 21.9844H7.03596C6.37971 21.9844 5.84534 21.45 5.84534 20.7938V9.40781H18.1547V20.7938C18.1547 21.45 17.6203 21.9844 16.9641 21.9844Z"
                fill="#186DDE" id="Vector" />
            <path
                d="M7.28904 7.24683H8.0531C8.3531 7.24683 8.60154 7.00308 8.60154 6.69839V2.70933C8.60154 2.40933 8.35779 2.16089 8.0531 2.16089H7.28904C6.98904 2.16089 6.7406 2.40464 6.7406 2.70933V6.70308C6.74529 7.00308 6.98904 7.24683 7.28904 7.24683ZM7.49529 2.91089H7.85154V6.49683H7.49529V2.91089ZM8.0531 10.8187H7.28904C6.98904 10.8187 6.7406 11.0625 6.7406 11.3671V16.4812C6.7406 16.7812 6.98435 17.0296 7.28904 17.0296H8.0531C8.3531 17.0296 8.60154 16.7859 8.60154 16.4812V11.3625C8.60154 11.0625 8.3531 10.8187 8.0531 10.8187ZM7.85154 16.275H7.49529V11.5687H7.85154V16.275Z"
                fill="#186DDE" id="Vector_2" />
        </g>
    </g>
</svg>
