<svg fill="none" height="22" viewBox="0 0 22 22" width="22" xmlns="http://www.w3.org/2000/svg">
    <g clip-path="url(#clip0_11750_9330)" id="Frame">
        <g id="Group">
            <path
                d="M6.26402e-06 21.6333C6.26402e-06 21.7305 0.0386371 21.8238 0.1074 21.8925C0.176164 21.9613 0.269427 21.9999 0.366673 21.9999H21.6333C21.7163 21.9989 21.7965 21.9698 21.8608 21.9173C21.925 21.8648 21.9696 21.7921 21.9872 21.711C22.0048 21.6299 21.9943 21.5452 21.9576 21.4708C21.9208 21.3964 21.8599 21.3367 21.7848 21.3014C21.925 21.0697 21.9994 20.8041 22 20.5333C22.0049 20.3184 21.9614 20.1051 21.8725 19.9094C21.7837 19.7137 21.6519 19.5405 21.4869 19.4027C21.3219 19.265 21.128 19.1662 20.9195 19.1137C20.7111 19.0612 20.4935 19.0564 20.2829 19.0996C20.1982 18.8759 20.0478 18.683 19.8515 18.5462C19.6552 18.4094 19.4221 18.3352 19.1829 18.3333C19.0155 18.3343 18.8503 18.3718 18.6989 18.4433V14.2999H19.8664C19.9279 14.4749 20.0329 14.6314 20.1713 14.7548C20.3098 14.8783 20.4772 14.9646 20.6581 15.0057C20.839 15.0469 21.0273 15.0415 21.2055 14.9902C21.3838 14.9388 21.5461 14.8431 21.6773 14.712C21.8085 14.5809 21.9043 14.4186 21.9558 14.2405C22.0074 14.0623 22.0129 13.8739 21.9719 13.693C21.9309 13.5121 21.8447 13.3446 21.7213 13.206C21.598 13.0675 21.4416 12.9624 21.2667 12.9007V3.96581C21.4417 3.90429 21.5984 3.79938 21.7219 3.6609C21.8454 3.52241 21.9317 3.35487 21.9729 3.17393C22.0141 2.993 22.0087 2.80458 21.9573 2.62628C21.9059 2.44799 21.8101 2.28565 21.6788 2.15444C21.5476 2.02323 21.3853 1.92743 21.207 1.876C21.0287 1.82457 20.8403 1.81919 20.6593 1.86036C20.4784 1.90153 20.3109 1.98791 20.1724 2.11142C20.0339 2.23493 19.929 2.39154 19.8675 2.56661H15.7667C15.6694 2.56661 15.5762 2.60524 15.5074 2.674C15.4386 2.74277 15.4 2.83603 15.4 2.93328C15.4 3.03052 15.4386 3.12378 15.5074 3.19255C15.5762 3.26131 15.6694 3.29994 15.7667 3.29994H19.8675C19.9223 3.4533 20.0104 3.59258 20.1256 3.70773C20.2407 3.82288 20.38 3.91103 20.5333 3.96581V12.9007C20.38 12.9555 20.2407 13.0437 20.1256 13.1588C20.0104 13.274 19.9223 13.4132 19.8675 13.5666H18.7V11.3666C18.7 11.1721 18.6227 10.9856 18.4852 10.8481C18.3477 10.7105 18.1612 10.6333 17.9667 10.6333H4.03334C3.83885 10.6333 3.65232 10.7105 3.51479 10.8481C3.37727 10.9856 3.30001 11.1721 3.30001 11.3666V13.5666H2.13254C2.07776 13.4132 1.98961 13.274 1.87446 13.1588C1.75931 13.0437 1.62003 12.9555 1.46667 12.9007V3.96581C1.62003 3.91103 1.75931 3.82288 1.87446 3.70773C1.98961 3.59258 2.07776 3.4533 2.13254 3.29994H6.60001C6.69725 3.29994 6.79052 3.26131 6.85928 3.19255C6.92804 3.12378 6.96667 3.03052 6.96667 2.93328C6.96667 2.83603 6.92804 2.74277 6.85928 2.674C6.79052 2.60524 6.69725 2.56661 6.60001 2.56661H2.13254C2.07102 2.39154 1.96611 2.23493 1.82763 2.11142C1.68914 1.98791 1.5216 1.90153 1.34066 1.86036C1.15973 1.81919 0.971306 1.82457 0.793014 1.876C0.614722 1.92743 0.452381 2.02323 0.32117 2.15444C0.189958 2.28565 0.0941593 2.44799 0.0427302 2.62628C-0.00869895 2.80458 -0.0140793 2.993 0.0270921 3.17393C0.0682634 3.35487 0.154642 3.52241 0.278153 3.6609C0.401663 3.79938 0.558273 3.90429 0.73334 3.96581V12.9007C0.558273 12.9623 0.401663 13.0672 0.278153 13.2057C0.154642 13.3441 0.0682634 13.5117 0.0270921 13.6926C-0.0140793 13.8736 -0.00869895 14.062 0.0427302 14.2403C0.0941593 14.4186 0.189958 14.5809 0.32117 14.7121C0.452381 14.8433 0.614722 14.9391 0.793014 14.9906C0.971306 15.042 1.15973 15.0474 1.34066 15.0062C1.5216 14.965 1.68914 14.8786 1.82763 14.7551C1.96611 14.6316 2.07102 14.475 2.13254 14.2999H3.30001V18.4433C3.14862 18.3718 2.98343 18.3342 2.81601 18.3333C2.57677 18.3352 2.34371 18.4094 2.14741 18.5462C1.9511 18.683 1.80072 18.8759 1.71601 19.0996C1.50552 19.0566 1.28805 19.0615 1.07974 19.1141C0.871439 19.1667 0.677655 19.2655 0.512787 19.4032C0.347919 19.541 0.216206 19.7141 0.127431 19.9097C0.0386569 20.1054 -0.00489658 20.3185 6.26402e-06 20.5333C0.000269728 20.8048 0.0746932 21.071 0.21524 21.3033C0.151678 21.3321 0.0976607 21.3785 0.0595346 21.4369C0.0214085 21.4954 0.000757015 21.5635 6.26402e-06 21.6333ZM20.9 2.56661C20.9725 2.56661 21.0434 2.58811 21.1037 2.6284C21.164 2.66869 21.211 2.72596 21.2388 2.79296C21.2665 2.85996 21.2738 2.93368 21.2596 3.00481C21.2455 3.07593 21.2106 3.14127 21.1593 3.19255C21.108 3.24383 21.0427 3.27875 20.9715 3.2929C20.9004 3.30704 20.8267 3.29978 20.7597 3.27203C20.6927 3.24428 20.6354 3.19728 20.5951 3.13698C20.5548 3.07669 20.5333 3.0058 20.5333 2.93328C20.5333 2.83603 20.572 2.74277 20.6407 2.674C20.7095 2.60524 20.8028 2.56661 20.9 2.56661ZM20.9 13.5666C20.9725 13.5666 21.0434 13.5881 21.1037 13.6284C21.164 13.6687 21.211 13.726 21.2388 13.793C21.2665 13.86 21.2738 13.9337 21.2596 14.0048C21.2455 14.0759 21.2106 14.1413 21.1593 14.1925C21.108 14.2438 21.0427 14.2787 20.9715 14.2929C20.9004 14.307 20.8267 14.2998 20.7597 14.272C20.6927 14.2443 20.6354 14.1973 20.5951 14.137C20.5548 14.0767 20.5333 14.0058 20.5333 13.9333C20.5333 13.836 20.572 13.7428 20.6407 13.674C20.7095 13.6052 20.8028 13.5666 20.9 13.5666ZM1.10001 2.56661C1.17253 2.56661 1.24342 2.58811 1.30372 2.6284C1.36401 2.66869 1.41101 2.72596 1.43876 2.79296C1.46651 2.85996 1.47378 2.93368 1.45963 3.00481C1.44548 3.07593 1.41056 3.14127 1.35928 3.19255C1.308 3.24383 1.24267 3.27875 1.17154 3.2929C1.10041 3.30704 1.02669 3.29978 0.959689 3.27203C0.892689 3.24428 0.835424 3.19728 0.795134 3.13698C0.754844 3.07669 0.73334 3.0058 0.73334 2.93328C0.73334 2.83603 0.77197 2.74277 0.840734 2.674C0.909497 2.60524 1.00276 2.56661 1.10001 2.56661ZM1.10001 14.2999C1.02749 14.2999 0.956595 14.2784 0.896297 14.2381C0.835999 14.1979 0.789003 14.1406 0.76125 14.0736C0.733498 14.0066 0.726237 13.9329 0.740385 13.8617C0.754533 13.7906 0.789455 13.7253 0.840734 13.674C0.892013 13.6227 0.957347 13.5878 1.02847 13.5737C1.0996 13.5595 1.17332 13.5668 1.24032 13.5945C1.30732 13.6223 1.36459 13.6693 1.40488 13.7296C1.44517 13.7899 1.46667 13.8608 1.46667 13.9333C1.46667 14.0305 1.42804 14.1238 1.35928 14.1925C1.29052 14.2613 1.19725 14.2999 1.10001 14.2999ZM17.9667 19.7999H17.2333V12.8333H17.9667C17.9542 18.4671 17.9667 19.199 17.9667 19.7999ZM16.5 19.7999H5.50001V12.8333H16.5V19.7999ZM4.76667 19.7999H4.03334V12.8333H4.76667V19.7999ZM4.03334 20.5333H4.76667V21.2666H4.03334V20.5333ZM5.50001 20.5333H16.5V21.2666H5.50001V20.5333ZM17.2333 21.2666V20.5362L17.9667 20.5333V21.2666H17.2333ZM19.184 19.0666C19.4165 19.0666 19.6313 19.2411 19.6313 19.6203C19.6314 19.6875 19.6499 19.7535 19.6849 19.8109C19.7199 19.8683 19.77 19.915 19.8297 19.9459C20.13 20.1006 20.2169 19.7992 20.5847 19.7992C20.7702 19.8123 20.9439 19.8953 21.0707 20.0314C21.1975 20.1675 21.268 20.3465 21.268 20.5325C21.268 20.7185 21.1975 20.8976 21.0707 21.0337C20.9439 21.1698 20.7702 21.2527 20.5847 21.2659H18.7V19.5697C18.7557 19.4699 18.7895 19.0666 19.184 19.0666ZM17.9667 12.0999H17.2333V11.3666H17.9667V12.0999ZM16.5 12.0999H5.50001V11.3666H16.5V12.0999ZM4.03334 11.3666H4.76667V12.0999H4.03334V11.3666ZM1.41534 19.7999C1.79337 19.7999 1.86047 20.1057 2.17031 19.9466C2.23005 19.9157 2.28015 19.869 2.31514 19.8116C2.35012 19.7542 2.36864 19.6883 2.36867 19.621C2.36867 19.2507 2.57547 19.0673 2.81601 19.0673C3.20504 19.0666 3.24611 19.474 3.30001 19.5656V21.2666H1.41534C1.22981 21.2535 1.05615 21.1705 0.929353 21.0344C0.80256 20.8984 0.73206 20.7193 0.73206 20.5333C0.73206 20.3473 0.80256 20.1682 0.929353 20.0321C1.05615 19.896 1.22981 19.8131 1.41534 19.7999Z"
                fill="#EF5350" id="Vector" />
            <path
                d="M7.79998 15.0333C7.89723 15.0333 7.99049 14.9947 8.05926 14.9259C8.12802 14.8572 8.16665 14.7639 8.16665 14.6667V13.9333C8.16665 13.8361 8.12802 13.7428 8.05926 13.6741C7.99049 13.6053 7.89723 13.5667 7.79998 13.5667C7.70274 13.5667 7.60948 13.6053 7.54071 13.6741C7.47195 13.7428 7.43332 13.8361 7.43332 13.9333V14.6667C7.43332 14.7639 7.47195 14.8572 7.54071 14.9259C7.60948 14.9947 7.70274 15.0333 7.79998 15.0333ZM7.79998 19.0667C7.89723 19.0667 7.99049 19.028 8.05926 18.9593C8.12802 18.8905 8.16665 18.7972 8.16665 18.7V16.1333C8.16665 16.0361 8.12802 15.9428 8.05926 15.8741C7.99049 15.8053 7.89723 15.7667 7.79998 15.7667C7.70274 15.7667 7.60948 15.8053 7.54071 15.8741C7.47195 15.9428 7.43332 16.0361 7.43332 16.1333V18.7C7.43332 18.7972 7.47195 18.8905 7.54071 18.9593C7.60948 19.028 7.70274 19.0667 7.79998 19.0667ZM11 15.0333C11.0972 15.0333 11.1905 14.9947 11.2593 14.9259C11.328 14.8572 11.3667 14.7639 11.3667 14.6667V13.9333C11.3667 13.8361 11.328 13.7428 11.2593 13.6741C11.1905 13.6053 11.0972 13.5667 11 13.5667C10.9027 13.5667 10.8095 13.6053 10.7407 13.6741C10.6719 13.7428 10.6333 13.8361 10.6333 13.9333V14.6667C10.6333 14.7639 10.6719 14.8572 10.7407 14.9259C10.8095 14.9947 10.9027 15.0333 11 15.0333ZM11 19.0667C11.0972 19.0667 11.1905 19.028 11.2593 18.9593C11.328 18.8905 11.3667 18.7972 11.3667 18.7V16.1333C11.3667 16.0361 11.328 15.9428 11.2593 15.8741C11.1905 15.8053 11.0972 15.7667 11 15.7667C10.9027 15.7667 10.8095 15.8053 10.7407 15.8741C10.6719 15.9428 10.6333 16.0361 10.6333 16.1333V18.7C10.6333 18.7972 10.6719 18.8905 10.7407 18.9593C10.8095 19.028 10.9027 19.0667 11 19.0667ZM14.4 15.0333C14.4972 15.0333 14.5905 14.9947 14.6593 14.9259C14.728 14.8572 14.7667 14.7639 14.7667 14.6667V13.9333C14.7667 13.8361 14.728 13.7428 14.6593 13.6741C14.5905 13.6053 14.4972 13.5667 14.4 13.5667C14.3027 13.5667 14.2095 13.6053 14.1407 13.6741C14.0719 13.7428 14.0333 13.8361 14.0333 13.9333V14.6667C14.0333 14.7639 14.0719 14.8572 14.1407 14.9259C14.2095 14.9947 14.3027 15.0333 14.4 15.0333ZM14.4 19.0667C14.4972 19.0667 14.5905 19.028 14.6593 18.9593C14.728 18.8905 14.7667 18.7972 14.7667 18.7V16.1333C14.7667 16.0361 14.728 15.9428 14.6593 15.8741C14.5905 15.8053 14.4972 15.7667 14.4 15.7667C14.3027 15.7667 14.2095 15.8053 14.1407 15.8741C14.0719 15.9428 14.0333 16.0361 14.0333 16.1333V18.7C14.0333 18.7972 14.0719 18.8905 14.1407 18.9593C14.2095 19.028 14.3027 19.0667 14.4 19.0667ZM8.95509 9.42003L14.5651 3.55337C14.6147 3.50145 14.648 3.4361 14.6608 3.36543C14.6736 3.29477 14.6654 3.22189 14.6372 3.15585C14.6089 3.08981 14.5619 3.03352 14.502 2.99396C14.442 2.95441 14.3718 2.93332 14.3 2.93333H12.7061L13.9627 0.5368C13.9919 0.480911 14.0063 0.418414 14.0043 0.355353C14.0024 0.292291 13.9842 0.230799 13.9515 0.176822C13.9189 0.122846 13.8728 0.0782111 13.8179 0.0472351C13.7629 0.0162591 13.7009 -1.0393e-05 13.6378 4.98097e-09H10.5527C10.4938 9.03024e-06 10.4359 0.0141727 10.3837 0.0412952C10.3315 0.0684178 10.2865 0.107703 10.2527 0.155833L7.40005 4.21337C7.36145 4.26829 7.33867 4.33275 7.33419 4.39973C7.32971 4.46671 7.3437 4.53363 7.37464 4.5932C7.40558 4.65277 7.45228 4.70271 7.50965 4.73756C7.56702 4.77242 7.63286 4.79086 7.69998 4.79087H7.70402L9.42735 4.7718L8.33432 9.07647C8.31427 9.15505 8.32083 9.23807 8.35299 9.31252C8.38515 9.38697 8.44109 9.44866 8.51205 9.48794C8.58301 9.52721 8.66498 9.54185 8.74515 9.52956C8.82531 9.51727 8.89915 9.47875 8.95509 9.42003ZM10.2557 4.4902C10.2694 4.43606 10.2706 4.3795 10.2591 4.32483C10.2477 4.27016 10.2239 4.21883 10.1896 4.17476C10.1553 4.13069 10.1113 4.09503 10.0612 4.07052C10.011 4.04601 9.95584 4.03329 9.89999 4.03333H9.89595L8.41132 4.04983L10.7433 0.733333H13.0317L11.7751 3.12987C11.7458 3.18576 11.7315 3.24825 11.7334 3.31131C11.7354 3.37438 11.7536 3.43587 11.7862 3.48984C11.8189 3.54382 11.8649 3.58846 11.9199 3.61943C11.9749 3.65041 12.0369 3.66668 12.1 3.66667H13.442L9.38665 7.90607L10.2557 4.4902Z"
                fill="#EF5350" id="Vector_2" />
        </g>
    </g>
    <defs>
        <clipPath id="clip0_11750_9330">
            <rect fill="white" height="22" width="22" />
        </clipPath>
    </defs>
</svg>
