<svg fill="none" height="19" viewBox="0 0 19 19" width="19" xmlns="http://www.w3.org/2000/svg">
    <g id="Call Forward">
        <path
            d="M15.5552 9.71795C15.0817 9.24783 14.4415 8.98401 13.7742 8.98401C13.1069 8.98401 12.4667 9.24783 11.9932 9.71795L10.7867 10.908C10.6215 11.0675 10.4008 11.1566 10.1712 11.1566C9.94153 11.1566 9.72085 11.0675 9.55562 10.908L7.15906 8.51147C5.86229 7.2147 9.06317 6.6566 9.06317 4.29287C9.06317 2.90582 8.13574 2.32309 6.52709 0.714441C6.04753 0.255906 5.40959 0 4.74608 0C4.08258 0 3.44464 0.255906 2.96508 0.714441L1.19228 2.51186C-2.68161 6.38575 3.55601 15.7176 10.2697 17.6873C12.1327 18.2372 14.1928 18.2372 15.5552 16.8666L17.3526 15.0774C17.8248 14.6049 18.09 13.9643 18.09 13.2964C18.09 12.6284 17.8248 11.9878 17.3526 11.5154L15.5552 9.71795ZM16.1954 13.9283L14.398 15.7094C13.6675 16.4398 12.3379 16.5875 10.7293 16.1197C4.68863 14.3387 -0.211182 6.23802 2.35773 3.6691C5.11542 0.911419 4.426 0.903211 7.19189 3.6691C8.48045 4.95766 5.25494 5.57322 5.25494 7.89591C5.25494 9.27475 6.07568 9.79182 8.39837 12.0735C8.87753 12.5296 9.51373 12.784 10.1753 12.784C10.8368 12.784 11.473 12.5296 11.9522 12.0735L13.1669 10.8752C13.2478 10.7931 13.3443 10.7278 13.4507 10.6833C13.557 10.6388 13.6712 10.6159 13.7865 10.6159C13.9018 10.6159 14.016 10.6388 14.1224 10.6833C14.2288 10.7278 14.3252 10.7931 14.4062 10.8752L16.2036 12.6726C16.2857 12.7555 16.3506 12.8538 16.3947 12.9618C16.4387 13.0699 16.461 13.1855 16.4602 13.3022C16.4595 13.4188 16.4357 13.5342 16.3902 13.6417C16.3448 13.7491 16.2786 13.8465 16.1954 13.9283Z"
            fill="#111111" id="Vector" />
        <path
            d="M10.7047 4.8999H15.2926L14.2257 5.95866C14.1099 6.07345 14.031 6.22012 13.9989 6.37996C13.9669 6.53979 13.9831 6.70556 14.0456 6.85612C14.1082 7.00668 14.2141 7.13521 14.3499 7.22533C14.4858 7.31545 14.6454 7.36307 14.8084 7.36212C15.2598 7.36212 15.1613 7.36212 17.8534 4.66189C17.9672 4.54647 18.0444 4.39991 18.0751 4.2407C18.1057 4.08148 18.0886 3.91675 18.0257 3.76728C17.9354 3.54568 18.0257 3.70162 15.3911 1.03422C15.3146 0.957695 15.2238 0.896992 15.1238 0.855577C15.0238 0.814163 14.9166 0.792847 14.8084 0.792847C14.5898 0.792847 14.3802 0.879671 14.2257 1.03422C14.0711 1.18877 13.9843 1.39838 13.9843 1.61694C13.9843 1.83551 14.0711 2.04512 14.2257 2.19967L15.2926 3.25842H10.7047C10.487 3.25842 10.2783 3.34489 10.1244 3.49881C9.97044 3.65273 9.88397 3.86149 9.88397 4.07916C9.88397 4.29684 9.97044 4.50559 10.1244 4.65951C10.2783 4.81343 10.487 4.8999 10.7047 4.8999Z"
            fill="#E31E24" id="Vector_2" />
    </g>
</svg>
