<svg fill="none" height="54" viewBox="0 0 187 54" width="187" xmlns="http://www.w3.org/2000/svg">
    <rect fill="#E5E5E5" height="54" width="187" />
    <g clip-path="url(#clip0_10314_1359)" id="11_Dashboard">
        <rect fill="white" height="3339" transform="translate(-17 -440)" width="375" />
        <rect fill="#14B8A6" height="191" id="Rectangle 3821" width="375" x="-17" y="-116" />
        <g id="Group 1000002981">
            <g id="Rectangle 3789">
                <path
                    d="M1 -52C1 -57.5228 5.47715 -62 11 -62H176C181.523 -62 186 -57.5228 186 -52V44C186 49.5229 181.523 54 176 54H11C5.47716 54 1 49.5229 1 44V-52Z"
                    fill="#FFE2E5" />
                <path
                    d="M1 -52C1 -57.5228 5.47715 -62 11 -62H176C181.523 -62 186 -57.5228 186 -52V44C186 49.5229 181.523 54 176 54H11C5.47716 54 1 49.5229 1 44V-52Z"
                    fill="#FFE2E5" />
            </g>
            <g id="Group 1000002977">
                <path
                    d="M11.1113 30.1111L1 39.3351V43.8555C1 49.3784 5.47716 53.8555 11 53.8555H176C181.523 53.8555 186 49.3784 186 43.8555V34.2209L158.761 10.429C155.941 7.96586 151.982 7.28441 148.5 8.66311L133.292 14.6863C129.339 16.252 124.828 15.1466 122.047 11.9306L119.595 9.09554C115.504 4.36569 108.124 4.50874 104.22 9.39357L93.5608 22.7289C89.9802 27.2086 83.3733 27.7655 79.0933 23.9482L69.779 15.6409C65.5138 11.8368 58.9336 12.3747 55.3429 16.8211L44.466 30.2902C41.6164 33.8188 36.7489 34.9878 32.6077 33.1381L21.9291 28.3683C18.2974 26.7462 14.0497 27.4305 11.1113 30.1111Z"
                    fill="url(#paint0_linear_10314_1359)" id="Vector 131" />
                <path
                    d="M1 39.3351L11.1113 30.1111C14.0497 27.4305 18.2974 26.7462 21.9291 28.3683L32.6077 33.1381C36.7489 34.9878 41.6164 33.8188 44.466 30.2902L55.3429 16.8211C58.9336 12.3748 65.5138 11.8368 69.779 15.6409L79.0933 23.9482C83.3733 27.7655 89.9801 27.2086 93.5608 22.7289L104.22 9.39357C108.124 4.50874 115.504 4.36569 119.595 9.09554L122.047 11.9306C124.828 15.1466 129.339 16.252 133.292 14.6863L148.5 8.66311C151.982 7.28441 155.941 7.96586 158.761 10.429L186 34.2209"
                    id="Vector 129" stroke="#D62B3C" stroke-width="0.7" />
            </g>
        </g>
    </g>
    <defs>
        <linearGradient gradientUnits="userSpaceOnUse" id="paint0_linear_10314_1359" x1="93.5"
            x2="93.5" y1="-1.95331" y2="53.8555">
            <stop stop-color="#D62B3C" />
            <stop offset="1" stop-color="white" stop-opacity="0" />
        </linearGradient>
        <clipPath id="clip0_10314_1359">
            <rect fill="white" height="3339" transform="translate(-17 -440)" width="375" />
        </clipPath>
    </defs>
</svg>
