<svg width="31" height="19" viewBox="0 0 31 19" fill="none" xmlns="http://www.w3.org/2000/svg">
<path d="M15.3697 8.56476C16.2167 8.56476 17.0446 8.3136 17.7489 7.84305C18.4531 7.3725 19.002 6.70368 19.3261 5.92118C19.6502 5.13867 19.735 4.27763 19.5698 3.44693C19.4046 2.61623 18.9967 1.85318 18.3978 1.25428C17.7989 0.65538 17.0358 0.247523 16.2051 0.0822867C15.3744 -0.0829499 14.5134 0.00185532 13.7309 0.325978C12.9484 0.650102 12.2796 1.19899 11.809 1.90322C11.3385 2.60745 11.0873 3.43541 11.0873 4.28238C11.0886 5.41774 11.5402 6.50624 12.343 7.30906C13.1458 8.11188 14.2343 8.56347 15.3697 8.56476ZM15.3697 1.10923C15.9973 1.10923 16.6108 1.29534 17.1326 1.64401C17.6544 1.99268 18.0611 2.48825 18.3013 3.06807C18.5415 3.64789 18.6043 4.2859 18.4819 4.90143C18.3594 5.51696 18.0572 6.08236 17.6135 6.52613C17.1697 6.96991 16.6043 7.27212 15.9887 7.39456C15.3732 7.51699 14.7352 7.45415 14.1554 7.21399C13.5756 6.97382 13.08 6.56711 12.7313 6.04529C12.3827 5.52347 12.1966 4.90997 12.1966 4.28238C12.1975 3.4411 12.5321 2.63455 13.127 2.03967C13.7219 1.4448 14.5284 1.11018 15.3697 1.10923ZM24.6465 10.881C25.3269 10.881 25.9919 10.6793 26.5576 10.3013C27.1233 9.92333 27.5642 9.3861 27.8245 8.75754C28.0849 8.12899 28.153 7.43735 28.0203 6.77009C27.8876 6.10282 27.5599 5.4899 27.0789 5.00882C26.5978 4.52775 25.9849 4.20014 25.3176 4.06741C24.6503 3.93468 23.9587 4.0028 23.3301 4.26316C22.7016 4.52351 22.1644 4.96441 21.7864 5.53009C21.4084 6.09577 21.2067 6.76083 21.2067 7.44117C21.2077 8.35317 21.5704 9.22752 22.2153 9.8724C22.8602 10.5173 23.7345 10.88 24.6465 10.881ZM24.6465 5.11061C25.1075 5.11061 25.5581 5.2473 25.9413 5.50339C26.3246 5.75949 26.6233 6.12349 26.7997 6.54936C26.9761 6.97522 27.0223 7.44384 26.9324 7.89594C26.8424 8.34803 26.6204 8.76331 26.2945 9.08925C25.9685 9.41519 25.5533 9.63716 25.1012 9.72708C24.6491 9.817 24.1805 9.77084 23.7546 9.59443C23.3287 9.41802 22.9647 9.11929 22.7086 8.73601C22.4526 8.35273 22.3159 7.90213 22.3159 7.44117C22.3167 6.82332 22.5625 6.231 22.9994 5.79415C23.4363 5.3573 24.0287 5.11159 24.6465 5.11092V5.11061ZM6.07815 10.881C6.75848 10.881 7.42355 10.6793 7.98923 10.3013C8.55491 9.92333 8.9958 9.3861 9.25616 8.75754C9.51651 8.12899 9.58463 7.43735 9.4519 6.77009C9.31918 6.10282 8.99156 5.4899 8.51049 5.00882C8.02942 4.52775 7.41649 4.20014 6.74923 4.06741C6.08196 3.93468 5.39032 4.0028 4.76177 4.26316C4.13322 4.52351 3.59599 4.96441 3.21801 5.53009C2.84004 6.09577 2.63829 6.76083 2.63829 7.44117C2.63932 8.35316 3.00206 9.2275 3.64694 9.87238C4.29181 10.5173 5.16616 10.88 6.07815 10.881ZM6.07815 5.11061C6.5391 5.11061 6.98971 5.2473 7.37298 5.50339C7.75625 5.75949 8.05497 6.12349 8.23137 6.54936C8.40776 6.97522 8.45391 7.44384 8.36398 7.89594C8.27405 8.34803 8.05207 8.76331 7.72612 9.08925C7.40017 9.41519 6.98489 9.63716 6.53279 9.72708C6.08069 9.817 5.61208 9.77084 5.18621 9.59443C4.76035 9.41802 4.39636 9.11929 4.14027 8.73601C3.88419 8.35273 3.74751 7.90213 3.74752 7.44117C3.74831 6.82332 3.99412 6.23101 4.43103 5.79417C4.86795 5.35732 5.4603 5.1116 6.07815 5.11092V5.11061ZM30.6583 14.9544C30.5449 13.9556 30.142 12.983 29.5531 12.2857C28.8524 11.4562 27.9302 11.0522 26.9553 11.1503C26.8413 11.1616 26.7337 11.2079 26.6471 11.2829C25.9603 11.8777 25.3085 12.1532 24.653 12.1277C24.6382 12.1271 24.6234 12.1271 24.6086 12.1277C23.9523 12.1538 23.3011 11.8775 22.6144 11.2829C22.5279 11.2079 22.4202 11.1616 22.3063 11.1503C22.1883 11.1385 22.0698 11.1341 21.9513 11.1371C21.8389 10.9665 21.7168 10.8026 21.5853 10.6462C20.7155 9.61644 19.5734 9.11549 18.3686 9.23578C18.2546 9.24709 18.147 9.29342 18.0604 9.3684C17.1532 10.1541 16.2487 10.534 15.3714 10.4994C15.3566 10.4988 15.3418 10.4988 15.327 10.4994C14.4504 10.5335 13.5451 10.154 12.6378 9.3684C12.5513 9.29343 12.4437 9.2471 12.3297 9.23578C11.1255 9.11543 9.98289 9.61644 9.11295 10.6462C8.98141 10.8028 8.85908 10.967 8.74659 11.1378C8.6263 11.1342 8.50592 11.1383 8.38615 11.1501C8.27221 11.1614 8.16457 11.2077 8.07803 11.2827C7.39129 11.8774 6.74005 12.1527 6.08382 12.1276C6.06903 12.1269 6.05421 12.1269 6.03938 12.1276C5.38296 12.1522 4.73197 11.8774 4.04517 11.2826C3.95863 11.2077 3.85099 11.1614 3.73705 11.1501C2.76209 11.0522 1.83989 11.456 1.13929 12.2856C0.550345 12.9828 0.147509 13.9556 0.034059 14.9543C-0.202577 17.0371 0.810522 18.5855 2.55448 18.8076C2.57772 18.8106 2.60112 18.8121 2.62455 18.8121H9.49958C9.523 18.8121 9.5464 18.8106 9.56964 18.8076C9.77752 18.7813 9.98216 18.7338 10.1804 18.6659C10.3954 18.732 10.6157 18.7795 10.8389 18.8076C10.8621 18.8106 10.8854 18.8121 10.9089 18.8121H19.7904C19.8138 18.8121 19.8372 18.8106 19.8604 18.8076C20.0822 18.7797 20.3012 18.7327 20.5149 18.6672C20.7127 18.7344 20.9167 18.7815 21.1238 18.8076C21.1471 18.8106 21.1705 18.8121 21.194 18.8121H28.068C28.0914 18.8121 28.1148 18.8106 28.1381 18.8076C29.8821 18.5856 30.895 17.0371 30.6583 14.9544ZM3.69366 17.7031V15.5902C3.69366 15.4431 3.63523 15.302 3.53122 15.198C3.42721 15.094 3.28614 15.0355 3.13905 15.0355C2.99196 15.0355 2.85089 15.094 2.74688 15.198C2.64286 15.302 2.58443 15.4431 2.58443 15.5902V17.6895C1.32816 17.4615 1.00981 16.2044 1.13762 15.0796C1.30006 13.6492 2.20304 12.2454 3.45777 12.2454H3.468C4.31225 12.9326 5.1854 13.265 6.06286 13.2368C6.71676 13.2576 7.36738 13.0784 8.00568 12.7019C7.86892 13.1271 7.77432 13.5646 7.72326 14.0083C7.59348 15.1511 7.77404 16.2378 8.23178 17.0682C8.35664 17.2955 8.50611 17.5083 8.67751 17.7029L3.69366 17.7031ZM19.754 17.7031H19.6821V14.8111C19.6821 14.664 19.6237 14.5229 19.5197 14.4189C19.4157 14.3149 19.2746 14.2565 19.1275 14.2565C18.9804 14.2565 18.8394 14.3149 18.7354 14.4189C18.6313 14.5229 18.5729 14.664 18.5729 14.8111V17.7031H12.127V14.8111C12.127 14.664 12.0686 14.5229 11.9646 14.4189C11.8606 14.3149 11.7195 14.2565 11.5724 14.2565C11.4253 14.2565 11.2843 14.3149 11.1803 14.4189C11.0762 14.5229 11.0178 14.664 11.0178 14.8111V17.7031H10.946C9.11344 17.4492 8.64805 15.6963 8.82559 14.1333C9.0438 12.2119 10.2721 10.3276 11.9841 10.3276C12.0082 10.3276 12.0324 10.328 12.0567 10.3288C13.1319 11.2166 14.2395 11.6467 15.3501 11.6086C16.4626 11.6473 17.5686 11.2165 18.6434 10.3288C20.3935 10.2727 21.6533 12.1849 21.8746 14.1333C22.0515 15.6963 21.5863 17.4492 19.7538 17.7031H19.754ZM28.1096 17.6895V15.5902C28.1096 15.4431 28.0512 15.302 27.9472 15.198C27.8432 15.094 27.7021 15.0355 27.555 15.0355C27.4079 15.0355 27.2668 15.094 27.1628 15.198C27.0588 15.302 27.0004 15.4431 27.0004 15.5902V17.7031H22.0221C22.1934 17.5084 22.3429 17.2956 22.4678 17.0683C22.9255 16.2379 23.1061 15.1513 22.9763 14.0084C22.9254 13.5663 22.8312 13.1301 22.6951 12.7063C23.3313 13.0801 23.9796 13.2584 24.6309 13.2372C25.5085 13.2654 26.3811 12.9329 27.2257 12.2458H27.236C28.4906 12.2458 29.3937 13.6497 29.5562 15.08C29.684 16.2046 29.3656 17.4615 28.1091 17.6895H28.1096Z" fill="#5BCB81"/>
</svg>
