<svg fill="none" height="17" viewBox="0 0 16 17" width="16" xmlns="http://www.w3.org/2000/svg">
    <g id="Group">
        <g id="Group_2">
            <path
                d="M8.51598 0.341678C8.28389 0.122258 7.97662 0 7.65723 0C7.33784 0 7.03056 0.122258 6.79848 0.341678L0.743477 6.06543C0.368476 6.41918 0.157227 6.91293 0.157227 7.42793V14.3904C0.157227 14.8877 0.354771 15.3646 0.706401 15.7163C1.05803 16.0679 1.53495 16.2654 2.03223 16.2654H4.53223C4.77856 16.2654 5.02248 16.2169 5.25005 16.1226C5.47761 16.0283 5.68437 15.8901 5.85849 15.7158C6.03262 15.5416 6.17071 15.3347 6.26486 15.1071C6.35901 14.8795 6.40739 14.6355 6.40723 14.3892V11.2642C6.40723 11.0984 6.47307 10.9394 6.59028 10.8222C6.70749 10.705 6.86647 10.6392 7.03223 10.6392H8.28223C8.44799 10.6392 8.60696 10.705 8.72417 10.8222C8.84138 10.9394 8.90723 11.0984 8.90723 11.2642V14.3892C8.90723 14.8865 9.10477 15.3634 9.4564 15.715C9.80803 16.0666 10.2849 16.2642 10.7822 16.2642H13.2822C13.7795 16.2642 14.2564 16.0666 14.6081 15.715C14.9597 15.3634 15.1572 14.8865 15.1572 14.3892V7.42668C15.1572 6.91168 14.9447 6.41793 14.5697 6.06418L8.51598 0.339178V0.341678ZM7.65723 1.24918L13.7122 6.97418C13.7737 7.03245 13.8227 7.10261 13.8562 7.1804C13.8897 7.25819 13.9071 7.34198 13.9072 7.42668V14.3892C13.9072 14.5549 13.8414 14.7139 13.7242 14.8311C13.607 14.9483 13.448 15.0142 13.2822 15.0142H10.7822C10.6165 15.0142 10.4575 14.9483 10.3403 14.8311C10.2231 14.7139 10.1572 14.5549 10.1572 14.3892V11.2642C10.1572 10.7669 9.95968 10.29 9.60805 9.93835C9.25642 9.58672 8.77951 9.38918 8.28223 9.38918H7.03223C6.53495 9.38918 6.05803 9.58672 5.7064 9.93835C5.35477 10.29 5.15723 10.7669 5.15723 11.2642V14.3892C5.15723 14.5549 5.09138 14.7139 4.97417 14.8311C4.85696 14.9483 4.69799 15.0142 4.53223 15.0142H2.03223C1.86647 15.0142 1.70749 14.9483 1.59028 14.8311C1.47307 14.7139 1.40723 14.5549 1.40723 14.3892V7.42668C1.4072 7.34177 1.42448 7.25774 1.45801 7.17973C1.49153 7.10171 1.5406 7.03135 1.60223 6.97293L7.65723 1.24918Z"
                fill="#E31E24" id="Vector" />
        </g>
    </g>
</svg>
