<svg width="22" height="22" viewBox="0 0 22 22" fill="none" xmlns="http://www.w3.org/2000/svg">
<g clip-path="url(#clip0_14831_121)">
<path d="M18.563 16.1562C18.563 15.9672 18.4083 15.8125 18.2192 15.8125H13.4067C13.2177 15.8125 13.063 15.9672 13.063 16.1562V20.9687H9.96922V21.6562H21.6567V20.9687H18.563V16.1562ZM17.8755 20.9687H13.7505V19.9375H17.8755V20.9687ZM17.8755 19.25H13.7505V18.2187H17.8755V19.25ZM17.8755 17.5312H13.7505V16.5H17.8755V17.5312ZM3.69922 16.555C3.79644 16.5244 3.90053 16.5233 3.99841 16.5517C4.09629 16.5801 4.18359 16.6368 4.24934 16.7147C4.31509 16.7925 4.35636 16.8881 4.36796 16.9893C4.37955 17.0906 4.36097 17.193 4.31453 17.2837L2.13859 21.4981L2.75047 21.8144L4.92641 17.6C5.22891 17.0122 4.99859 16.2834 4.41078 15.9809C4.27048 15.9078 4.11711 15.8632 3.95949 15.8496C3.80188 15.8359 3.64312 15.8536 3.49235 15.9015C3.34158 15.9494 3.20176 16.0266 3.08093 16.1288C2.9601 16.2309 2.86065 16.3559 2.78828 16.4966L1.03516 19.8962V17.1875C1.03516 15.8606 2.11453 14.7812 3.44141 14.7812H3.53422C3.91234 14.9978 4.34891 15.125 4.81641 15.125C5.28391 15.125 5.72047 14.9978 6.09859 14.7812H6.19141C7.51828 14.7812 8.59766 15.8606 8.59766 17.1875V20.625C8.59766 20.8141 8.44297 20.9687 8.25391 20.9687H6.01953C5.73422 20.9687 5.50391 20.7384 5.50391 20.4531C5.50391 20.1678 5.73422 19.9375 6.01953 19.9375H7.22266C7.41172 19.9375 7.56641 19.7828 7.56641 19.5937V16.8437H6.87891V19.25H6.01953C5.35609 19.25 4.81641 19.7897 4.81641 20.4531C4.81641 21.1166 5.35609 21.6562 6.01953 21.6562H8.25391C8.82109 21.6562 9.28516 21.1922 9.28516 20.625V17.1875C9.28516 15.6991 8.22641 14.4512 6.82391 14.1591C7.19191 13.7022 7.39319 13.1335 7.39453 12.5469C7.39453 11.1237 6.23953 9.96875 4.81641 9.96875C3.39328 9.96875 2.23828 11.1237 2.23828 12.5469C2.23828 13.1553 2.45141 13.7191 2.80891 14.1591C1.40641 14.4512 0.347656 15.6991 0.347656 17.1875V21.3125C0.347656 21.4706 0.457656 21.6081 0.608906 21.6459C0.763594 21.6837 0.921719 21.6116 0.993906 21.4706L3.39672 16.8128C3.45859 16.6891 3.56859 16.5997 3.69922 16.5584V16.555ZM4.81297 10.6562C5.85453 10.6562 6.70359 11.5053 6.70359 12.5469C6.70359 13.5884 5.85453 14.4375 4.81297 14.4375C3.77141 14.4375 2.92234 13.5884 2.92234 12.5469C2.92234 11.5053 3.77141 10.6562 4.81297 10.6562ZM4.59297 7.22219L4.00516 6.86812L3.83328 7.15344C3.66828 7.43187 3.66828 7.80312 3.83328 8.08156C3.87109 8.14344 3.87109 8.23969 3.83328 8.30156L3.66141 8.58687L4.24922 8.94094L4.42109 8.65562C4.58609 8.37719 4.58609 8.00594 4.42109 7.7275C4.4025 7.69382 4.39274 7.65597 4.39274 7.6175C4.39274 7.57903 4.4025 7.54118 4.42109 7.5075L4.59297 7.22219ZM5.96797 7.22219L5.38016 6.86812L5.20828 7.15344C5.04328 7.43187 5.04328 7.80312 5.20828 8.08156C5.24609 8.14344 5.24609 8.23969 5.20828 8.30156L5.03641 8.58687L5.62422 8.94094L5.79609 8.65562C5.96109 8.37719 5.96109 8.00594 5.79609 7.7275C5.7775 7.69382 5.76774 7.65597 5.76774 7.6175C5.76774 7.57903 5.7775 7.54118 5.79609 7.5075L5.96797 7.22219ZM9.38141 12.6191C9.43186 12.668 9.49584 12.7008 9.56508 12.713C9.63432 12.7253 9.70564 12.7165 9.76984 12.6878L12.5027 11.4125C13.3105 11.8181 14.2145 12.0312 15.1255 12.0312C18.3464 12.0312 20.9692 9.40844 20.9692 6.1875C20.9692 2.96656 18.3464 0.34375 15.1255 0.34375C11.9045 0.34375 9.28172 2.96656 9.28172 6.1875C9.28172 7.46969 9.70453 8.7175 10.478 9.73156L9.31266 12.2306C9.25078 12.3612 9.27828 12.5159 9.38141 12.6191ZM11.1895 9.83125C11.2445 9.71094 11.2273 9.57 11.1448 9.46687C10.3846 8.54314 9.96897 7.38388 9.96922 6.1875C9.96922 3.34469 12.2827 1.03125 15.1255 1.03125C17.9683 1.03125 20.2817 3.34469 20.2817 6.1875C20.2817 9.03031 17.9683 11.3437 15.1255 11.3437C14.2695 11.3437 13.4239 11.1306 12.6745 10.725C12.5783 10.6734 12.4648 10.67 12.3652 10.7147L10.3336 11.6634L11.1895 9.83125Z" fill="#FF715B"/>
<path d="M14.7812 10.3125C14.8397 10.3125 14.9016 10.2988 14.9531 10.2678C15.0597 10.2059 15.125 10.0925 15.125 9.96875V8.9375H16.5C16.6891 8.9375 16.8438 8.78281 16.8438 8.59375V7.21875H16.1562V8.25H15.125V4.8125C15.125 4.68875 15.0597 4.57531 14.9531 4.51344L13.6709 3.78125H16.1562V5.15625H16.8438V3.4375C16.8438 3.24844 16.6891 3.09375 16.5 3.09375H12.375C12.1859 3.09375 12.0312 3.24844 12.0312 3.4375V8.59375C12.0312 8.7175 12.0966 8.83094 12.2031 8.89281L14.6094 10.2678C14.6609 10.2988 14.7228 10.3125 14.7812 10.3125ZM14.4375 9.3775L12.7188 8.39437V4.02875L14.4375 5.01187V9.3775Z" fill="#FF715B"/>
<path d="M15.8125 5.84336V6.53086H17.875L17.325 6.94336L17.7375 7.49336L19.1125 6.46211C19.1984 6.3968 19.25 6.29367 19.25 6.18711C19.25 6.08055 19.1984 5.97742 19.1125 5.91211L17.7375 4.88086L17.325 5.43086L17.875 5.84336H15.8125Z" fill="#FF715B"/>
</g>
<defs>
<clipPath id="clip0_14831_121">
<rect width="22" height="22" fill="white"/>
</clipPath>
</defs>
</svg>
