<svg width="22" height="22" viewBox="0 0 22 22" fill="none" xmlns="http://www.w3.org/2000/svg">
<path d="M15.0389 5.73188C16.1551 5.73188 17.062 4.8247 17.062 3.70853C17.062 2.59236 16.1551 1.68555 15.0388 1.68555C13.9226 1.68555 13.0156 2.59236 13.0156 3.70853C13.0156 4.8247 13.9227 5.73182 15.0389 5.73182V5.73188ZM15.0389 2.60786C15.6446 2.60786 16.1396 3.10282 16.1396 3.70853C16.1396 4.31424 15.6446 4.80944 15.0389 4.80944C14.4332 4.80944 13.938 4.31424 13.938 3.70853C13.938 3.09976 14.43 2.60786 15.0389 2.60786Z" fill="#6640E6"/>
<path d="M21.1084 3.94439C20.4904 3.62748 19.7187 3.87659 19.3896 4.49472V4.49779C19.3896 4.49779 19.3896 4.50085 19.3865 4.50085L18.3442 6.53026L17.0097 6.19504C16.7885 6.13967 16.567 6.12441 16.3517 6.1488L13.7074 6.46552H13.7044C13.4461 6.49651 13.2064 6.59476 12.9971 6.75781L8.58495 10.1985H8.58194C8.31428 10.4105 8.14511 10.7118 8.10217 11.047C8.05905 11.3853 8.15142 11.7205 8.36353 11.9879C8.4847 12.143 8.63961 12.2685 8.8165 12.3548C8.9934 12.4411 9.18763 12.4859 9.38445 12.486C9.65493 12.486 9.92866 12.3998 10.156 12.2246L12.9143 10.0753L13.2647 13.1533V13.1595C13.2795 13.2809 13.3074 13.4005 13.3478 13.516L13.3569 13.5531C13.4123 13.7344 13.3846 13.8297 13.2523 14.1126L12.0041 16.5262C11.9794 16.5725 11.9332 16.6001 11.8903 16.5941L9.38751 16.3233H9.38445C8.93849 16.2774 8.51108 16.431 8.20661 16.7416C7.90844 17.0489 7.76701 17.4671 7.81926 17.8946C7.90231 18.5678 8.43415 19.1029 9.08604 19.1705H9.0891L12.1885 19.5087C12.2624 19.5182 12.333 19.5212 12.4069 19.5212C13.1817 19.5212 13.9134 19.0844 14.2732 18.3865L15.7429 15.5485L18.1842 17.1383L18.0491 20.5081V20.5266C18.0491 20.708 18.0705 20.8647 18.1136 21.0061C18.1812 21.2306 18.3135 21.4399 18.4918 21.6057C18.76 21.8577 19.114 21.9985 19.482 21.9994C19.6387 21.9994 19.7924 21.9747 19.9432 21.9194C20.4135 21.7533 20.7856 21.3352 20.8872 20.8616C20.9024 20.791 20.9085 20.7295 20.9115 20.6773L20.9148 20.6495V20.625L21.0776 16.8001C21.1084 16.0681 20.7427 15.3611 20.1215 14.955L18.249 13.7375C18.2213 13.719 18.2028 13.6852 18.1967 13.6484L17.6555 8.99326L18.2889 9.15907H18.2919C18.4425 9.19618 18.5934 9.21444 18.744 9.21444C19.4142 9.21444 20.0415 8.8424 20.3613 8.21838L21.6712 5.65695V5.65395C21.6712 5.65395 21.6712 5.65083 21.6742 5.65083C21.9818 5.02662 21.7265 4.26111 21.1084 3.94439ZM12.29 18.5986L9.19065 18.2605H9.18459C8.96617 18.2389 8.76631 18.0269 8.73556 17.7869C8.71707 17.6393 8.76631 17.4979 8.86786 17.3933C8.97536 17.2828 9.12616 17.2335 9.29203 17.2487L11.7918 17.5164C11.8288 17.5194 11.8626 17.5225 11.8995 17.5225C12.2809 17.5225 12.6435 17.3041 12.8249 16.9536L14.0764 14.5309C14.0764 14.5278 14.0764 14.5278 14.0794 14.5245C14.0794 14.5215 14.0825 14.5184 14.0825 14.5154C14.0889 14.5032 14.0949 14.4907 14.098 14.4816L14.965 15.0474L13.4553 17.9682C13.234 18.3956 12.7665 18.6478 12.29 18.5986ZM18.5195 8.26432L17.6217 8.03071C17.3881 7.97228 17.1389 8.03071 16.9576 8.18739C16.776 8.34738 16.6808 8.58405 16.7085 8.82403L17.2804 13.7621C17.3172 14.0727 17.4864 14.3462 17.7446 14.5154L19.6171 15.7331C19.9678 15.9604 20.1738 16.357 20.1583 16.7662L19.9952 20.5787L19.9922 20.5972C19.9892 20.628 19.9861 20.6587 19.983 20.6742C19.9462 20.8403 19.8078 20.9939 19.6326 21.0554C19.4696 21.1138 19.2575 21.0646 19.1252 20.9386C19.0663 20.8855 19.0228 20.8175 18.9992 20.7418C18.9837 20.6894 18.9746 20.6218 18.9746 20.5358L19.116 17.0705C19.1252 16.8122 18.9962 16.563 18.7778 16.4218L16.1518 14.7152C16.1294 14.6923 16.1047 14.6718 16.0781 14.6538C16.0443 14.6322 16.0073 14.6105 15.9705 14.5954L14.5899 13.6975C14.3654 13.5498 14.224 13.3222 14.1872 13.0426L13.7904 9.56185C13.7628 9.31293 13.5967 9.09145 13.3692 8.99626C13.1418 8.90078 12.8772 8.94089 12.6743 9.09757L9.59956 11.496C9.44282 11.6159 9.2214 11.5851 9.09847 11.4252C8.97836 11.2684 9.00605 11.0501 9.16297 10.9241L13.566 7.48644C13.6429 7.42801 13.7229 7.39426 13.8151 7.38183L16.4594 7.0651C16.564 7.05291 16.6717 7.0621 16.7822 7.08972L18.2673 7.46488C18.2734 7.46789 18.2828 7.46789 18.2889 7.47095C18.3412 7.48338 18.3935 7.4895 18.4456 7.4895C18.7102 7.4895 18.9591 7.34495 19.0884 7.09915C19.0884 7.09585 19.0914 7.09279 19.0944 7.08972L20.2015 4.93132C20.2936 4.75914 20.5182 4.68522 20.684 4.77133C20.8532 4.85745 20.924 5.07581 20.841 5.24798L19.5341 7.80311C19.3467 8.17821 18.9284 8.36894 18.5195 8.26432Z" fill="#6640E6"/>
<path d="M8.93243 15.2224C8.96311 15.1978 8.9878 15.1702 9.00911 15.1394C9.15125 14.9934 9.24011 14.8039 9.26134 14.6013C9.28596 14.3645 9.21834 14.137 9.07079 13.9493C9.06688 13.9459 9.06369 13.9418 9.06142 13.9371L6.88446 11.2805C6.56779 10.8931 5.99914 10.8347 5.61161 11.1514L3.82218 12.615C3.63451 12.7687 3.5177 12.9871 3.49308 13.2298C3.46846 13.4759 3.53926 13.7127 3.68988 13.9003L5.85441 16.5568C6.00827 16.7444 6.22645 16.8612 6.46948 16.8859C6.50323 16.8889 6.53398 16.892 6.56779 16.892C6.77702 16.892 6.97688 16.8211 7.13969 16.6891L8.93243 15.2224ZM4.36002 13.3561C4.35089 13.3436 4.35089 13.3253 4.35089 13.319C4.35089 13.3129 4.3539 13.2946 4.36939 13.2822L6.15882 11.8186C6.17738 11.8034 6.20507 11.8094 6.22026 11.8277L8.39116 14.4783C8.39116 14.4814 8.39416 14.4814 8.39416 14.4844C8.40029 14.4935 8.40641 14.503 8.40335 14.5152C8.40335 14.5276 8.39728 14.5368 8.38809 14.5459C8.36347 14.5644 8.34185 14.586 8.3236 14.6104L6.59542 16.0219C6.58317 16.031 6.56467 16.031 6.55854 16.031C6.55145 16.0307 6.54451 16.0289 6.53817 16.0257C6.53183 16.0225 6.52623 16.018 6.52173 16.0125L4.36002 13.3561Z" fill="#6640E6"/>
<path d="M6.30738 14.6298L7.41742 14.9218C7.44511 14.9279 7.46979 14.9312 7.49741 14.9312C7.63254 14.9312 7.75877 14.8387 7.79558 14.7006C7.83882 14.5376 7.74021 14.3684 7.57747 14.3253L6.4643 14.0332C6.3965 14.0149 6.3475 13.9502 6.34119 13.8765L6.25832 12.6003C6.24595 12.4312 6.1014 12.3022 5.93228 12.3144C5.76317 12.3268 5.63411 12.4713 5.64631 12.6405L5.72936 13.9164C5.75098 14.2577 5.98159 14.5437 6.30738 14.6298ZM8.58289 5.55315C8.58289 4.52916 8.21999 3.58824 7.62035 2.85023L7.8357 2.63205L8.25986 3.05646C8.34292 3.13921 8.4536 3.18239 8.56434 3.18239C8.67508 3.18239 8.78582 3.13921 8.86881 3.05646C8.90896 3.01656 8.94083 2.96912 8.96257 2.91686C8.98432 2.8646 8.99551 2.80855 8.99551 2.75195C8.99551 2.69535 8.98432 2.63931 8.96257 2.58705C8.94083 2.53479 8.90896 2.48734 8.86881 2.44745L7.40829 0.98693C7.3684 0.946787 7.32096 0.91493 7.26871 0.893191C7.21645 0.871452 7.16042 0.860261 7.10382 0.860261C7.04722 0.860261 6.99119 0.871452 6.93893 0.893191C6.88668 0.91493 6.83924 0.946787 6.79935 0.98693C6.75915 1.0268 6.72725 1.07423 6.70548 1.12648C6.68371 1.17874 6.6725 1.23479 6.6725 1.2914C6.6725 1.34802 6.68371 1.40407 6.70548 1.45632C6.72725 1.50858 6.75915 1.55601 6.79935 1.59588L7.22675 2.02328L7.01464 2.24146C6.37825 1.71881 5.59094 1.37752 4.727 1.2914V0.860936H5.51431C5.75092 0.860936 5.94471 0.667142 5.94471 0.430468C5.94471 0.193795 5.75092 0 5.51425 0H3.07593C2.83901 0 2.64552 0.193795 2.64552 0.430468C2.64552 0.667142 2.83901 0.860936 3.07593 0.860936H3.863V1.2914C1.70765 1.51282 0.0195312 3.33913 0.0195312 5.55315C0.0195312 7.91448 1.94126 9.83621 4.30259 9.83621C6.66116 9.83621 8.58289 7.91448 8.58289 5.55315ZM0.880468 5.55315C0.880468 3.70204 2.35954 2.18609 4.20128 2.13378C4.23197 2.14015 4.26272 2.14622 4.29653 2.14622C4.33034 2.14622 4.36103 2.14321 4.39177 2.13378C5.26814 2.1554 6.06458 2.51219 6.65786 3.07778C6.67641 3.1054 6.69491 3.13008 6.71953 3.15164C6.74091 3.17326 6.76247 3.19158 6.78709 3.20701C7.36512 3.81884 7.72196 4.64597 7.72196 5.55315C7.72196 7.43783 6.18751 8.97528 4.29959 8.97528C2.41491 8.97528 0.880468 7.44089 0.880468 5.55315Z" fill="#6640E6"/>
<path d="M4.67861 5.55932V3.32398C4.67861 3.11169 4.50643 2.93945 4.29438 2.93945C4.08233 2.93945 3.91016 3.11169 3.91016 3.32398V5.55932C3.91016 5.77143 4.08233 5.9436 4.29438 5.9436C4.50643 5.9436 4.67861 5.77143 4.67861 5.55932Z" fill="#6640E6"/>
</svg>
