<svg width="23" height="23" viewBox="0 0 23 23" fill="none" xmlns="http://www.w3.org/2000/svg">
<path d="M22.8025 0.197505C22.7093 0.104259 22.5907 0.0404214 22.4615 0.013903C22.3324 -0.0126153 22.1983 -0.000648606 22.0758 0.0483202L0.423467 8.70915C0.302239 8.75768 0.197721 8.84038 0.122619 8.9472C0.0475166 9.05402 0.00506517 9.18036 0.000425636 9.31086C-0.0042139 9.44135 0.0291583 9.57039 0.096485 9.68227C0.163812 9.79416 0.262193 9.88407 0.379668 9.94109L8.91786 14.082L13.0588 22.6202C13.1158 22.7377 13.2057 22.8362 13.3176 22.9035C13.4295 22.9709 13.5585 23.0043 13.689 22.9996C13.8196 22.995 13.9459 22.9525 14.0527 22.8774C14.1596 22.8023 14.2422 22.6977 14.2907 22.5765L22.9517 0.92425C23.0006 0.801809 23.0126 0.667688 22.9861 0.538506C22.9596 0.409325 22.8958 0.29076 22.8025 0.197505ZM2.34001 9.39403L19.5283 2.51879L9.28478 12.7622L2.34001 9.39403ZM13.6059 20.6599L10.2377 13.7151L20.4812 3.47168L13.6059 20.6599Z" fill="#333333"/>
</svg>
