<svg width="18" height="20" viewBox="0 0 18 20" fill="none" xmlns="http://www.w3.org/2000/svg">
<g id="check out">
<path id="Vector" d="M16.9289 0.397836L16.9242 0.388797C16.9028 0.347441 16.8744 0.310153 16.8404 0.278504H16.8131H16.7856L16.7619 0.264442C16.7129 0.235249 16.6604 0.212171 16.6057 0.195722L16.5904 0.191095L16.5772 0.181885L16.4602 0.1H16.4204H5.71011C5.54726 0.1 5.39109 0.164691 5.27594 0.279841C5.16078 0.394992 5.09609 0.551169 5.09609 0.714016V4.99811C5.09609 5.16096 5.16078 5.31714 5.27594 5.43229C5.39109 5.54744 5.54726 5.61213 5.71011 5.61213C5.87296 5.61213 6.02913 5.54744 6.14428 5.43229C6.25944 5.31714 6.32413 5.16096 6.32413 4.99811V1.42803V1.32803H6.42413H11.5579L11.5855 1.52414L9.10142 2.23797C8.97115 2.27745 8.85769 2.35911 8.77888 2.47011C8.69995 2.58129 8.66026 2.71557 8.66608 2.8518L8.66627 2.85606H8.66617V16.4224V16.5224H8.56617H6.42413H6.32413V16.4224V14.2803C6.32413 14.1175 6.25943 13.9613 6.14428 13.8461C6.02913 13.731 5.87296 13.6663 5.71011 13.6663C5.54726 13.6663 5.39109 13.731 5.27593 13.8461C5.16078 13.9613 5.09609 14.1175 5.09609 14.2803V17.1364C5.09609 17.2992 5.16078 17.4554 5.27593 17.5706C5.39109 17.6857 5.54726 17.7504 5.71011 17.7504H8.56617H8.66617V17.8504V19.2784C8.66617 19.3738 8.68837 19.4678 8.731 19.553C8.77363 19.6383 8.83552 19.7125 8.91178 19.7696C9.01806 19.8494 9.14734 19.8925 9.28019 19.8925H9.28748L9.29469 19.8935C9.35141 19.9018 9.409 19.9022 9.46579 19.8945L16.5985 17.7547L16.9289 0.397836ZM16.9289 0.397836L16.9353 0.405743M16.9289 0.397836L16.9353 0.405743M16.9353 0.405743C16.9498 0.423516 16.963 0.442229 16.9749 0.461759C17.0126 0.540895 17.0328 0.627187 17.0344 0.714838V17.1364H17.0343M16.9353 0.405743L17.0343 17.1364M17.0343 17.1364L17.0345 17.1407M17.0343 17.1364L17.0345 17.1407M17.0345 17.1407C17.0403 17.2769 17.0006 17.4112 16.9217 17.5223C16.8428 17.6335 16.7291 17.7152 16.5987 17.7546L17.0345 17.1407ZM15.7351 16.7038L15.8063 16.6824V16.608V1.6708V1.53639L15.6776 1.57502L9.96547 3.28865L9.89421 3.31003V3.38444V18.3217V18.4561L10.0229 18.4174L15.7351 16.7038Z" fill="#0EC156" stroke="#0EC156" stroke-width="0.2"/>
<path id="Vector_2" d="M5.42033 10.6103H5.66307L5.49077 10.7813L4.56254 11.7024L4.56253 11.7024C4.50498 11.7595 4.4593 11.8274 4.42812 11.9022C4.39695 11.9771 4.3809 12.0573 4.3809 12.1384C4.3809 12.2194 4.39695 12.2997 4.42812 12.3745C4.4593 12.4493 4.50498 12.5172 4.56253 12.5743L4.56311 12.5749C4.62019 12.6324 4.6881 12.6781 4.76292 12.7093C4.83775 12.7405 4.918 12.7565 4.99906 12.7565C5.08012 12.7565 5.16037 12.7405 5.23519 12.7093C5.31002 12.6781 5.37793 12.6324 5.43501 12.5749L5.4353 12.5746L7.57655 10.4334C7.6321 10.3751 7.67567 10.3065 7.70476 10.2315L7.70475 10.2315L7.7055 10.2296C7.76692 10.0802 7.76692 9.91248 7.7055 9.76299L7.70548 9.763L7.70476 9.76114C7.67567 9.6861 7.6321 9.61751 7.57655 9.55928L5.4353 7.41803C5.3196 7.30233 5.16268 7.23733 4.99906 7.23733C4.83544 7.23733 4.67852 7.30233 4.56282 7.41803C4.44712 7.53372 4.38212 7.69064 4.38212 7.85427C4.38212 8.01782 4.44707 8.17468 4.56267 8.29036C4.56272 8.29041 4.56277 8.29046 4.56282 8.29051L5.49077 9.21132L5.66307 9.3823H5.42033H0.714962C0.552114 9.3823 0.395937 9.44699 0.280787 9.56214C0.165637 9.67729 0.100945 9.83347 0.100945 9.99632C0.100945 10.1592 0.165637 10.3153 0.280787 10.4305C0.395937 10.5456 0.552114 10.6103 0.714962 10.6103H5.42033Z" fill="#0EC156" stroke="#0EC156" stroke-width="0.2"/>
<path id="Vector_3" d="M11.8591 10.4304C11.744 10.5456 11.5878 10.6103 11.425 10.6103C11.2621 10.6103 11.1059 10.5456 10.9908 10.4304C10.8756 10.3153 10.8109 10.1591 10.8109 9.99624C10.8109 9.8334 10.8756 9.67722 10.9908 9.56207C11.1059 9.44692 11.2621 9.38223 11.425 9.38223C11.5878 9.38223 11.744 9.44692 11.8591 9.56207C11.9743 9.67722 12.039 9.8334 12.039 9.99624C12.039 10.1591 11.9743 10.3153 11.8591 10.4304Z" fill="#0EC156" stroke="#0EC156" stroke-width="0.2"/>
</g>
</svg>
