<svg fill="none" height="23" viewBox="0 0 20 23" width="20" xmlns="http://www.w3.org/2000/svg">
    <g id="check out">
        <path
            d="M19.4147 0.47125C19.3977 0.442854 19.3787 0.415702 19.3578 0.39C19.3202 0.317478 19.2676 0.253781 19.2035 0.203125H19.1303C19.0665 0.165158 18.9983 0.135143 18.9272 0.11375L18.7647 0H18.6835H6.49597C6.28048 0 6.07382 0.0856024 5.92145 0.237976C5.76907 0.390349 5.68347 0.597012 5.68347 0.8125V5.6875C5.68347 5.90299 5.76907 6.10965 5.92145 6.26202C6.07382 6.4144 6.28048 6.5 6.49597 6.5C6.71146 6.5 6.91812 6.4144 7.0705 6.26202C7.22287 6.10965 7.30847 5.90299 7.30847 5.6875V1.625H13.1503L10.3228 2.4375C10.1501 2.48966 9.99968 2.59782 9.89523 2.74493C9.79078 2.89205 9.73827 3.06974 9.74597 3.25V18.6875H7.30847V16.25C7.30847 16.0345 7.22287 15.8278 7.0705 15.6755C6.91812 15.5231 6.71146 15.4375 6.49597 15.4375C6.28048 15.4375 6.07382 15.5231 5.92145 15.6755C5.76907 15.8278 5.68347 16.0345 5.68347 16.25V19.5C5.68347 19.7155 5.76907 19.9222 5.92145 20.0745C6.07382 20.2269 6.28048 20.3125 6.49597 20.3125H9.74597V21.9375C9.74597 22.0636 9.77534 22.188 9.83175 22.3009C9.88816 22.4137 9.97006 22.5118 10.071 22.5875C10.2116 22.693 10.3827 22.75 10.5585 22.75C10.6366 22.7614 10.716 22.7614 10.7941 22.75L18.9191 20.3125C19.0918 20.2603 19.2423 20.1522 19.3467 20.0051C19.4512 19.858 19.5037 19.6803 19.496 19.5V0.8125C19.4941 0.694191 19.4663 0.577727 19.4147 0.47125ZM17.871 18.8988L11.371 20.8487V3.85125L17.871 1.90125V18.8988Z"
            fill="#111111" id="Vector" />
        <path
            d="M2.76657 12.1875H8.12095C8.33644 12.1875 8.5431 12.1019 8.69547 11.9496C8.84785 11.7972 8.93345 11.5905 8.93345 11.375C8.93345 11.1595 8.84785 10.9529 8.69547 10.8005C8.5431 10.6481 8.33644 10.5625 8.12095 10.5625H2.76657L3.82282 9.5144C3.97582 9.36141 4.06177 9.1539 4.06177 8.93753C4.06177 8.72116 3.97582 8.51365 3.82282 8.36065C3.66983 8.20766 3.46232 8.1217 3.24595 8.1217C3.02958 8.1217 2.82207 8.20766 2.66907 8.36065L0.231574 10.7982C0.157603 10.8754 0.0996189 10.9665 0.0609485 11.0663C-0.0203162 11.2641 -0.0203162 11.486 0.0609485 11.6838C0.0996189 11.7835 0.157603 11.8746 0.231574 11.9519L2.66907 14.3894C2.74461 14.4656 2.83447 14.526 2.93348 14.5673C3.03249 14.6085 3.13869 14.6297 3.24595 14.6297C3.35321 14.6297 3.45941 14.6085 3.55842 14.5673C3.65743 14.526 3.74729 14.4656 3.82282 14.3894C3.89898 14.3139 3.95942 14.224 4.00067 14.125C4.04192 14.026 4.06316 13.9198 4.06316 13.8125C4.06316 13.7053 4.04192 13.5991 4.00067 13.5001C3.95942 13.401 3.89898 13.3112 3.82282 13.2357L2.76657 12.1875Z"
            fill="#E31E24" id="Vector_2" />
        <path
            d="M12.996 12.1875C13.2115 12.1875 13.4181 12.1019 13.5705 11.9495C13.7229 11.7972 13.8085 11.5905 13.8085 11.375C13.8085 11.1595 13.7229 10.9528 13.5705 10.8005C13.4181 10.6481 13.2115 10.5625 12.996 10.5625C12.7805 10.5625 12.5738 10.6481 12.4214 10.8005C12.2691 10.9528 12.1835 11.1595 12.1835 11.375C12.1835 11.5905 12.2691 11.7972 12.4214 11.9495C12.5738 12.1019 12.7805 12.1875 12.996 12.1875Z"
            fill="#E31E24" id="Vector_3" />
    </g>
</svg>
