<svg fill="none" height="56" viewBox="0 0 40 56" width="40" xmlns="http://www.w3.org/2000/svg">
    <path
        d="M20 0C9.13884 0 0.3125 8.82656 0.3125 19.6875C0.3125 23.3625 1.32991 26.9392 3.26573 30.0235L18.6654 55.2251C18.9281 55.6516 19.3219 55.9142 19.7814 55.9799C20.4046 56.0782 21.094 55.8158 21.4548 55.1924L36.8985 29.7609C38.7358 26.7423 39.6875 23.2314 39.6875 19.6875C39.6875 8.82656 30.8612 0 20 0ZM20 29.5312C14.4877 29.5312 10.1562 25.0688 10.1562 19.6875C10.1562 14.2733 14.5858 9.84375 20 9.84375C25.4142 9.84375 29.8438 14.2733 29.8438 19.6875C29.8438 25.0359 25.578 29.5312 20 29.5312Z"
        fill="#FD003A" id="Vector" />
</svg>
