<svg fill="none" height="20" viewBox="0 0 23 20" width="23" xmlns="http://www.w3.org/2000/svg">
    <g id="Group 27772">
        <path
            d="M7.56698 13.6495C7.56698 15.9343 4.28351 19 4.28351 19C4.28351 19 1 15.9343 1 13.6495C1 11.8361 2.47007 10.366 4.28351 10.366C6.09691 10.366 7.56698 11.8361 7.56698 13.6495Z"
            id="Vector" stroke="#111111" stroke-miterlimit="10" stroke-width="1.1" />
        <path
            d="M4.91372 13.6495C4.91372 13.9976 4.63152 14.2798 4.28343 14.2798C3.93533 14.2798 3.65314 13.9976 3.65314 13.6495C3.65314 13.3014 3.93533 13.0192 4.28343 13.0192C4.63152 13.0192 4.91372 13.3014 4.91372 13.6495Z"
            id="Vector_2" stroke="#111111" stroke-miterlimit="10" stroke-width="1.1" />
        <path
            d="M21.5217 4.28346C21.5217 6.56828 18.2382 9.634 18.2382 9.634C18.2382 9.634 14.9547 6.56828 14.9547 4.28346C14.9547 2.47007 16.4248 0.999998 18.2382 0.999998C20.0516 0.999998 21.5217 2.47007 21.5217 4.28346Z"
            id="Vector_3" stroke="#E31E24" stroke-miterlimit="10" stroke-width="1.1" />
        <path
            d="M18.8684 4.28347C18.8684 4.63156 18.5862 4.91376 18.2381 4.91376C17.89 4.91376 17.6078 4.63156 17.6078 4.28347C17.6078 3.93537 17.89 3.65317 18.2381 3.65317C18.5862 3.65317 18.8684 3.93537 18.8684 4.28347Z"
            id="Vector_4" stroke="#E31E24" stroke-miterlimit="10" stroke-width="1.1" />
        <path
            d="M6.83826 19H15.8969C17.19 19 18.2384 17.9517 18.2384 16.6585V16.6585C18.2384 15.3653 17.19 14.317 15.8969 14.317H12.3254C11.0323 14.317 9.98397 13.2687 9.98397 11.9755C9.98397 10.6823 11.0323 9.634 12.3254 9.634H15.684"
            id="Vector_5" stroke="#111111" stroke-miterlimit="10" stroke-width="1.1" />
    </g>
</svg>
