<svg width="161" height="51" viewBox="0 0 161 51" fill="none" xmlns="http://www.w3.org/2000/svg">
<path d="M11.0734 26.145L1 35.4815V40.2343C1 45.7571 5.47716 50.2343 11 50.2343H176C181.523 50.2343 186 45.7571 186 40.2343V0.708496L159.738 18.0735C156.366 20.3027 151.985 20.2833 148.633 18.0244L134.924 8.78431C130.367 5.71332 124.187 6.89381 121.083 11.4279L117.117 17.2221C114.1 21.6283 108.154 22.8874 103.611 20.0819L85.5876 8.95303C83.8134 7.85746 81.741 7.34397 79.6604 7.48438L58.8913 8.8861C55.648 9.10499 52.7135 10.8867 51.0231 13.6632L44.2392 24.8062C41.6097 29.1253 36.1698 30.8018 31.5651 28.7122L22.0036 24.373C18.3359 22.7085 14.0275 23.407 11.0734 26.145Z" fill="url(#paint0_linear_11750_9156)"/>
<path d="M1 35.7438L11.0734 26.4073C14.0275 23.6693 18.3359 22.9708 22.0036 24.6353L31.5651 28.9745C36.1698 31.0641 41.6097 29.3876 44.2392 25.0685L51.0231 13.9255C52.7135 11.149 55.648 9.3673 58.8913 9.1484L79.6604 7.74668C81.741 7.60626 83.8134 8.11976 85.5876 9.21533L103.611 20.3442C108.154 23.1496 114.1 21.8906 117.117 17.4844L121.083 11.6902C124.187 7.15611 130.367 5.97562 134.924 9.04661L148.633 18.2867C151.985 20.5456 156.366 20.565 159.738 18.3358L186 0.970795" stroke="#02c775"/>
<defs>
<linearGradient id="paint0_linear_11750_9156" x1="93.5" y1="-6.46769" x2="93.5" y2="50.2343" gradientUnits="userSpaceOnUse">
<stop stop-color="#02ed8b"/>
<stop offset="1" stop-color="white" stop-opacity="0"/>
</linearGradient>
</defs>
</svg>
