<svg width="146" height="146" viewBox="0 0 146 146" fill="none" xmlns="http://www.w3.org/2000/svg">
<path d="M34.9487 132.312C34.9487 133.522 35.4294 134.683 36.2851 135.539C37.1407 136.394 38.3012 136.875 39.5112 136.875H114.291C118.464 136.87 122.465 135.21 125.416 132.259C128.366 129.308 130.026 125.308 130.031 121.134V45.5337C130.031 44.3236 129.551 43.1632 128.695 42.3075C127.839 41.4519 126.679 40.9712 125.469 40.9712C124.259 40.9712 123.098 41.4519 122.243 42.3075C121.387 43.1632 120.906 44.3236 120.906 45.5337V121.134C120.906 124.784 117.941 127.75 114.291 127.75H39.5112C38.3012 127.75 37.1407 128.231 36.2851 129.086C35.4294 129.942 34.9487 131.102 34.9487 132.312ZM58.9931 68.4374H49.0925C47.8824 68.4374 46.7219 68.9181 45.8663 69.7738C45.0107 70.6294 44.53 71.7899 44.53 72.9999C44.53 74.21 45.0107 75.3705 45.8663 76.2261C46.7219 77.0818 47.8824 77.5624 49.0925 77.5624H58.9931C60.2032 77.5624 61.3636 77.0818 62.2193 76.2261C63.0749 75.3705 63.5556 74.21 63.5556 72.9999C63.5556 71.7899 63.0749 70.6294 62.2193 69.7738C61.3636 68.9181 60.2032 68.4374 58.9931 68.4374Z" fill="#DADADA"/>
<path d="M96.9075 101.47C98.1175 101.47 99.278 100.989 100.134 100.134C100.989 99.278 101.47 98.1175 101.47 96.9075C101.47 95.6974 100.989 94.5369 100.134 93.6813C99.278 92.8257 98.1175 92.345 96.9075 92.345H74.9162C73.7062 92.345 72.5457 92.8257 71.6901 93.6813C70.8344 94.5369 70.3537 95.6974 70.3537 96.9075C70.3537 98.1175 70.8344 99.278 71.6901 100.134C72.5457 100.989 73.7062 101.47 74.9162 101.47H96.9075ZM73 44.5163H49.0788C47.8687 44.5163 46.7083 44.997 45.8526 45.8526C44.997 46.7083 44.5163 47.8687 44.5163 49.0788C44.5163 50.2888 44.997 51.4493 45.8526 52.305C46.7083 53.1606 47.8687 53.6413 49.0788 53.6413H73C74.21 53.6413 75.3705 53.1606 76.2262 52.305C77.0818 51.4493 77.5625 50.2888 77.5625 49.0788C77.5625 47.8687 77.0818 46.7083 76.2262 45.8526C75.3705 44.997 74.21 44.5163 73 44.5163Z" fill="#DADADA"/>
<path d="M129.087 10.4618L112.274 27.2746L93.6864 10.3158C92.8423 9.51735 91.7154 9.25272 90.6113 9.12497H31.7094C27.5362 9.1298 23.5353 10.7897 20.5844 13.7406C17.6335 16.6915 15.9736 20.6924 15.9688 24.8656C15.9688 24.8656 16.0509 122.64 16.1604 123.388L10.4618 129.087C10.0261 129.508 9.67847 130.011 9.43935 130.568C9.20024 131.124 9.07438 131.723 9.06911 132.329C9.06385 132.935 9.17929 133.535 9.40869 134.096C9.6381 134.657 9.97688 135.166 10.4053 135.595C10.8337 136.023 11.3431 136.362 11.9038 136.591C12.4645 136.821 13.0653 136.936 13.6711 136.931C14.2769 136.926 14.8756 136.8 15.4322 136.561C15.9889 136.322 16.4923 135.974 16.9132 135.538L135.538 16.9132C135.974 16.4923 136.322 15.9888 136.561 15.4322C136.8 14.8756 136.926 14.2769 136.931 13.6711C136.936 13.0652 136.821 12.4645 136.591 11.9037C136.362 11.343 136.023 10.8336 135.595 10.4052C135.166 9.97685 134.657 9.63807 134.096 9.40866C133.536 9.17926 132.935 9.06382 132.329 9.06908C131.723 9.07435 131.124 9.20021 130.568 9.43932C130.011 9.67844 129.508 10.026 129.087 10.4618ZM99.1659 40.3827C97.9887 39.885 96.9831 39.0532 96.2736 37.9901C95.5641 36.927 95.1817 35.6793 95.1738 34.4012V24.0261L105.818 33.7305L99.1659 40.3827ZM25.0938 24.8656C25.0938 21.2156 28.0594 18.25 31.7094 18.25H86.0488V34.4012C86.0488 39.5705 88.5764 44.1741 92.4956 47.053L25.0938 114.455V24.8656Z" fill="#DADADA"/>
</svg>
