<svg fill="none" height="22" viewBox="0 0 22 22" width="22" xmlns="http://www.w3.org/2000/svg">
    <g clip-path="url(#clip0_11750_940)">
        <path
            d="M11 22C17.0651 22 22 17.0655 22 11C22 8.05933 20.8565 5.29661 18.7798 3.22019C16.703 1.1436 13.9407 0 11 0C4.93447 0 0 4.93447 0 11C0 13.9407 1.14354 16.7034 3.22019 18.7798C5.29656 20.8564 8.05933 22 11 22ZM11 20.1667C8.85786 20.1667 6.82917 19.4385 5.19653 18.0997L18.0997 5.19653C19.4384 6.82917 20.1667 8.85786 20.1667 11C20.1667 16.0544 16.0544 20.1667 11 20.1667ZM11 1.83333C13.1417 1.83333 15.1708 2.56151 16.8031 3.9003L3.90025 16.8035C2.56157 15.1708 1.83333 13.1421 1.83333 11C1.83333 5.94556 5.94556 1.83333 11 1.83333Z"
            fill="#111111" />
        <rect fill="#E31E24" height="2.25718" transform="rotate(-45 3.81812 16.8031)"
            width="18.3635" x="3.81812" y="16.8031" />
    </g>
    <defs>
        <clipPath id="clip0_11750_940">
            <rect fill="white" height="22" width="22" />
        </clipPath>
    </defs>
</svg>
