<svg fill="none" height="23" viewBox="0 0 23 23" width="23" xmlns="http://www.w3.org/2000/svg">
    <path
        d="M19.6498 22.4052C19.4614 22.4919 19.2518 22.5215 19.0468 22.4904C18.8418 22.4592 18.6504 22.3687 18.4964 22.2299L17.0016 20.9064L14.968 22.7255C14.5594 23.0915 13.9409 23.0915 13.5323 22.7255L11.5004 20.9081L9.46792 22.7255C9.05926 23.0915 8.44066 23.0915 8.03199 22.7255L5.99782 20.9064L4.50167 22.2298C4.06021 22.6222 3.3842 22.5824 2.9918 22.141C2.81611 21.9433 2.71989 21.6876 2.72171 21.4231V1.57688C2.7182 0.985367 3.19489 0.503025 3.7864 0.499525C4.05092 0.49798 4.30666 0.594358 4.50437 0.7701L5.99911 2.09363L8.03274 0.274509C8.4413 -0.0915012 9.05985 -0.0915012 9.46841 0.274509L11.5004 2.09212L13.5327 0.274725C13.9413 -0.0912323 14.5599 -0.0912323 14.9686 0.274725L17.0028 2.09379L18.4989 0.770315C18.9403 0.377808 19.6163 0.417446 20.0088 0.858856C20.1846 1.0566 20.2809 1.31249 20.279 1.57709V21.4231C20.2816 21.6304 20.2234 21.8339 20.1116 22.0084C19.9997 22.183 19.8392 22.3209 19.6498 22.4052ZM17.7142 2.90057C17.3055 3.26254 16.6905 3.26093 16.2838 2.89675L14.2502 1.07768L12.2182 2.89508C11.8096 3.26109 11.191 3.26109 10.7824 2.89508L8.75017 1.07768L6.71573 2.89675C6.31062 3.26087 5.69665 3.26254 5.28955 2.90062L3.79884 1.57747V4.44831L3.79346 21.4229L5.28658 20.0996C5.6952 19.7377 6.31024 19.7393 6.71691 20.1035L8.75049 21.9225L10.7825 20.1051C11.1911 19.7391 11.8097 19.7391 12.2183 20.1051L14.2506 21.9225L16.285 20.1035C16.6901 19.7393 17.3041 19.7377 17.7112 20.0996L19.2019 21.4231V7.78054L19.2073 1.57736L17.7142 2.90057Z"
        fill="#111111" />
    <path
        d="M16.6055 12.0387H6.39501C6.09756 12.0387 5.85645 11.7976 5.85645 11.5001C5.85645 11.2026 6.09756 10.9615 6.39501 10.9615H16.6055C16.903 10.9615 17.1441 11.2026 17.1441 11.5001C17.1441 11.7976 16.9029 12.0387 16.6055 12.0387ZM11.7584 15.2701H6.39501C6.09756 15.2701 5.85645 15.029 5.85645 14.7315C5.85645 14.4341 6.09756 14.1929 6.39501 14.1929H11.7584C12.0559 14.1929 12.297 14.4341 12.297 14.7315C12.297 15.029 12.0558 15.2701 11.7584 15.2701ZM16.6055 8.80726H6.39501C6.09756 8.80726 5.85645 8.56614 5.85645 8.26869C5.85645 7.97124 6.09756 7.73012 6.39501 7.73012H16.6055C16.903 7.73012 17.1441 7.97124 17.1441 8.26869C17.1441 8.56614 16.9029 8.80726 16.6055 8.80726Z"
        fill="#111111" />
</svg>
