<svg fill="none" height="26" viewBox="0 0 26 26" width="26" xmlns="http://www.w3.org/2000/svg">
    <g id="Group 6640">
        <circle cx="13" cy="13" fill="#C60208" id="Ellipse 133" r="13" />
        <path
            d="M7.66667 17.7368H11.6667C11.6667 18.0719 11.8071 18.3931 12.0572 18.63C12.3072 18.8669 12.6464 19 13 19C13.3536 19 13.6928 18.8669 13.9428 18.63C14.1929 18.3931 14.3333 18.0719 14.3333 17.7368H18.3333C18.5101 17.7368 18.6797 17.6703 18.8047 17.5519C18.9298 17.4334 19 17.2728 19 17.1053C19 16.9378 18.9298 16.7771 18.8047 16.6587C18.6797 16.5402 18.5101 16.4737 18.3333 16.4737V12.0526C18.3333 10.7126 17.7714 9.42743 16.7712 8.47988C15.771 7.53233 14.4145 7 13 7C11.5855 7 10.229 7.53233 9.22876 8.47988C8.22857 9.42743 7.66667 10.7126 7.66667 12.0526V16.4737C7.48986 16.4737 7.32029 16.5402 7.19526 16.6587C7.07024 16.7771 7 16.9378 7 17.1053C7 17.2728 7.07024 17.4334 7.19526 17.5519C7.32029 17.6703 7.48986 17.7368 7.66667 17.7368ZM9 12.0526C9 11.0476 9.42143 10.0837 10.1716 9.37307C10.9217 8.6624 11.9391 8.26316 13 8.26316C14.0609 8.26316 15.0783 8.6624 15.8284 9.37307C16.5786 10.0837 17 11.0476 17 12.0526V16.4737H9V12.0526Z"
            fill="white" id="Vector" />
    </g>
</svg>
