<svg fill="none" height="12" viewBox="0 0 12 12" width="12" xmlns="http://www.w3.org/2000/svg">
    <g clip-path="url(#clip0_11750_3889)">
        <path
            d="M4.5 12H1.125C0.50475 12 0 11.4952 0 10.875V7.5C0 6.87975 0.50475 6.375 1.125 6.375H4.5C5.12025 6.375 5.625 6.87975 5.625 7.5V10.875C5.625 11.4952 5.12025 12 4.5 12ZM4.875 7.5C4.875 7.29338 4.707 7.125 4.5 7.125H1.125C0.918 7.125 0.75 7.29338 0.75 7.5V10.875C0.75 11.0816 0.918 11.25 1.125 11.25H4.5C4.707 11.25 4.875 11.0816 4.875 10.875V7.5ZM10.875 12H7.5C6.87975 12 6.375 11.4952 6.375 10.875V7.5C6.375 6.87975 6.87975 6.375 7.5 6.375H10.875C11.4952 6.375 12 6.87975 12 7.5V10.875C12 11.4952 11.4952 12 10.875 12ZM11.25 7.5C11.25 7.29338 11.082 7.125 10.875 7.125H7.5C7.293 7.125 7.125 7.29338 7.125 7.5V10.875C7.125 11.0816 7.293 11.25 7.5 11.25H10.875C11.082 11.25 11.25 11.0816 11.25 10.875V7.5ZM10.875 5.625H7.5C6.87975 5.625 6.375 5.12025 6.375 4.5V1.125C6.375 0.50475 6.87975 0 7.5 0H10.875C11.4952 0 12 0.50475 12 1.125V4.5C12 5.12025 11.4952 5.625 10.875 5.625ZM11.25 1.125C11.25 0.918375 11.082 0.75 10.875 0.75H7.5C7.293 0.75 7.125 0.918375 7.125 1.125V4.5C7.125 4.70662 7.293 4.875 7.5 4.875H10.875C11.082 4.875 11.25 4.70662 11.25 4.5V1.125ZM4.5 5.625H1.125C0.50475 5.625 0 5.12025 0 4.5V1.125C0 0.50475 0.50475 0 1.125 0H4.5C5.12025 0 5.625 0.50475 5.625 1.125V4.5C5.625 5.12025 5.12025 5.625 4.5 5.625ZM4.875 1.125C4.875 0.918375 4.707 0.75 4.5 0.75H1.125C0.918 0.75 0.75 0.918375 0.75 1.125V4.5C0.75 4.70662 0.918 4.875 1.125 4.875H4.5C4.707 4.875 4.875 4.70662 4.875 4.5V1.125Z"
            fill="#E31E24" />
    </g>
    <defs>
        <clipPath id="clip0_11750_3889">
            <rect fill="white" height="12" transform="matrix(1 0 0 -1 0 12)" width="12" />
        </clipPath>
    </defs>
</svg>
