<svg width="22" height="22" viewBox="0 0 22 22" fill="none" xmlns="http://www.w3.org/2000/svg">
<path d="M2.33999 1.37695C2.09733 1.37965 1.86537 1.47725 1.69377 1.64885C1.52217 1.82045 1.42458 2.0524 1.42188 2.29506V4.13128C1.42188 4.63365 1.83936 5.04939 2.33999 5.04939V16.5292C2.33999 17.2984 3.00518 17.9029 3.77778 17.9029H9.51857C9.64032 17.9029 9.75708 17.8546 9.84317 17.7685C9.92926 17.6824 9.97762 17.5656 9.97762 17.4439C9.97762 17.3221 9.92926 17.2054 9.84317 17.1193C9.75708 17.0332 9.64032 16.9848 9.51857 16.9848H3.77778C3.46943 16.9848 3.2581 16.7752 3.2581 16.5292V5.04939H8.28518V10.099C8.28398 10.1944 8.31254 10.2878 8.36687 10.3662C8.4212 10.4446 8.49862 10.5042 8.58835 10.5366C8.67809 10.5689 8.77568 10.5726 8.86757 10.5469C8.95946 10.5213 9.04108 10.4677 9.10109 10.3935L10.6064 8.53648L12.1101 10.3935C12.3838 10.7244 12.9225 10.5321 12.9242 10.1007V5.04939H17.9479V9.81837C17.9479 9.87866 17.9597 9.93835 17.9828 9.99404C18.0059 10.0497 18.0397 10.1003 18.0823 10.143C18.1249 10.1856 18.1755 10.2194 18.2312 10.2425C18.2869 10.2656 18.3466 10.2774 18.4069 10.2774C18.4672 10.2774 18.5269 10.2656 18.5826 10.2425C18.6383 10.2194 18.6889 10.1856 18.7315 10.143C18.7741 10.1003 18.808 10.0497 18.831 9.99404C18.8541 9.93835 18.866 9.87866 18.866 9.81837V5.04939C19.3683 5.04939 19.7858 4.63365 19.7858 4.13128V2.29506C19.7831 2.0524 19.6855 1.82045 19.5139 1.64885C19.3423 1.47725 19.1104 1.37965 18.8677 1.37695H2.33999ZM2.33999 2.29506H8.28518V4.13128H2.33999V2.29506ZM9.20329 2.29506H12.0096V8.80845L10.9616 7.5179C10.9185 7.46503 10.8642 7.42241 10.8027 7.39314C10.7411 7.36387 10.6738 7.34868 10.6056 7.34868C10.5374 7.34868 10.4701 7.36387 10.4085 7.39314C10.3469 7.42241 10.2926 7.46503 10.2496 7.5179L9.20329 8.80499V4.5938V2.29506ZM12.9225 2.29506H18.866V4.13128H12.9242L12.9225 2.29506Z" fill="#FFB538"/>
<path d="M15.5878 10.5449C14.2514 10.5468 12.9703 11.0784 12.0254 12.0234C11.0804 12.9684 10.5487 14.2495 10.5469 15.5859C10.5487 16.9222 11.0804 18.2034 12.0254 19.1483C12.9703 20.0933 14.2514 20.625 15.5878 20.6268C16.9242 20.625 18.2053 20.0933 19.1503 19.1483C20.0952 18.2034 20.6269 16.9222 20.6288 15.5859C20.6269 14.2495 20.0952 12.9684 19.1503 12.0234C18.2053 11.0784 16.9242 10.5468 15.5878 10.5449ZM15.5878 11.463C16.1296 11.4621 16.6662 11.5681 17.1669 11.775C17.6676 11.9818 18.1226 12.2854 18.5057 12.6684C18.8889 13.0514 19.1927 13.5063 19.3998 14.0069C19.6068 14.5075 19.7131 15.0441 19.7124 15.5859C19.7133 16.1276 19.6073 16.6642 19.4004 17.1649C19.1936 17.6657 18.89 18.1206 18.507 18.5038C18.124 18.887 17.6691 19.1908 17.1685 19.3978C16.6679 19.6049 16.1313 19.7111 15.5896 19.7104C15.0477 19.7116 14.5109 19.6057 14.0099 19.399C13.509 19.1922 13.0538 18.8887 12.6705 18.5056C12.2872 18.1226 11.9832 17.6677 11.776 17.167C11.5689 16.6662 11.4626 16.1295 11.4633 15.5876C11.4621 15.0456 11.568 14.5086 11.7749 14.0076C11.9817 13.5066 12.2855 13.0513 12.6687 12.6679C13.0519 12.2846 13.507 11.9806 14.0079 11.7736C14.5089 11.5665 15.0458 11.4621 15.5878 11.463Z" fill="#FFB538"/>
<path d="M16.997 14.9918L16.8479 15.478H14L14.1491 14.9918H16.997ZM15.6187 18L14.0882 16.3709L14.0852 15.9615H14.8124C15.001 15.9615 15.1562 15.9313 15.2779 15.8709C15.4016 15.8086 15.4939 15.7253 15.5548 15.6209C15.6156 15.5147 15.646 15.3965 15.646 15.2665C15.646 15.1255 15.6176 15.0009 15.5609 14.8929C15.5041 14.7848 15.4138 14.7005 15.2901 14.6401C15.1663 14.5797 15.003 14.5495 14.8002 14.5495H14.003L14.1673 14H14.8002C15.1592 14 15.4574 14.0485 15.6947 14.1456C15.932 14.2427 16.1095 14.3837 16.2272 14.5687C16.3469 14.7537 16.4067 14.9771 16.4067 15.239C16.4067 15.4679 16.3631 15.6703 16.2759 15.8462C16.1886 16.0201 16.0477 16.1612 15.8529 16.2692C15.6582 16.3755 15.3996 16.4414 15.0771 16.467L16.4767 17.9643V18H15.6187ZM17 14L16.8479 14.4863H14.5203L14.6694 14H17Z" fill="#FFB538"/>
</svg>
