<svg fill="none" height="26" viewBox="0 0 26 26" width="26" xmlns="http://www.w3.org/2000/svg">
    <g id="Frame">
        <g id="Group">
            <path
                d="M20.6133 3.40648H18.2612V2.3542C18.2612 2.01374 17.8898 1.85901 17.5493 1.85901H15.7233C15.29 0.621005 14.2068 0.00200396 12.9688 0.00200396C11.7444 -0.0440257 10.6307 0.706726 10.2142 1.85901H8.41911C8.07865 1.85901 7.7382 2.01374 7.7382 2.3542V3.40648H5.38595C3.99203 3.42135 2.85165 4.52097 2.78613 5.91341V23.6477C2.78613 25.0095 4.02413 25.9999 5.38595 25.9999H20.6133C21.9752 25.9999 23.2132 25.0095 23.2132 23.6477V5.91347C23.1476 4.52097 22.0073 3.42135 20.6133 3.40648ZM8.97614 3.09701H10.6784C10.8232 3.07935 10.9584 3.01569 11.0643 2.9154C11.1701 2.81512 11.241 2.6835 11.2665 2.53991C11.4498 1.74171 12.1501 1.16874 12.9688 1.14718C13.7799 1.17176 14.4696 1.74651 14.64 2.53991C14.667 2.68818 14.7424 2.82331 14.8544 2.92412C14.9665 3.02494 15.1088 3.08574 15.259 3.09701H17.0232V5.57301H8.97614V3.09701ZM21.9752 23.6478C21.9752 24.3287 21.2943 24.762 20.6133 24.762H5.38595C4.70504 24.762 4.02413 24.3287 4.02413 23.6478V5.91347C4.08728 5.20472 4.67447 4.65751 5.38595 4.64454H7.73814V6.223C7.77084 6.56979 8.07119 6.8292 8.41905 6.81107H17.5493C17.7201 6.82042 17.8882 6.76511 18.0201 6.65613C18.152 6.54716 18.238 6.39253 18.2611 6.223V4.64448H20.6133C21.3247 4.65751 21.912 5.20466 21.9751 5.91341V23.6478H21.9752Z"
                fill="#619DFF" id="Vector" />
            <path
                d="M10.6162 13.8367C10.3841 13.5919 9.99866 13.5781 9.74962 13.8057L7.7688 15.6937L6.93316 14.827C6.701 14.5823 6.31558 14.5686 6.06653 14.7961C5.95112 14.917 5.88672 15.0777 5.88672 15.2449C5.88672 15.412 5.95112 15.5728 6.06653 15.6937L7.33546 16.9936C7.38971 17.0543 7.45662 17.1024 7.53149 17.1345C7.60635 17.1666 7.68733 17.1819 7.76874 17.1793C7.93202 17.177 8.08776 17.1102 8.20203 16.9936L10.6161 14.7033C10.8555 14.4837 10.8714 14.1117 10.6518 13.8724C10.6406 13.86 10.6287 13.848 10.6162 13.8367ZM19.4989 15.1675H12.3804C12.0385 15.1675 11.7614 15.4446 11.7614 15.7865C11.7614 16.1284 12.0385 16.4055 12.3804 16.4055H19.4989C19.8408 16.4055 20.1179 16.1284 20.1179 15.7865C20.1179 15.4446 19.8408 15.1675 19.4989 15.1675ZM10.6162 8.88466C10.3841 8.63994 9.99866 8.62614 9.74962 8.85374L7.7688 10.7417L6.93316 9.87504C6.701 9.63032 6.31558 9.61651 6.06653 9.84412C5.95112 9.96502 5.88672 10.1257 5.88672 10.2929C5.88672 10.46 5.95112 10.6208 6.06653 10.7417L7.33546 12.0416C7.38971 12.1023 7.45662 12.1504 7.53149 12.1825C7.60635 12.2146 7.68733 12.2299 7.76874 12.2273C7.93202 12.225 8.08776 12.1582 8.20203 12.0416L10.6161 9.75129C10.8555 9.53174 10.8714 9.15971 10.6518 8.92044C10.6406 8.90794 10.6287 8.896 10.6162 8.88466ZM19.4989 10.2155H12.3804C12.0385 10.2155 11.7614 10.4926 11.7614 10.8345C11.7614 11.1764 12.0385 11.4535 12.3804 11.4535H19.4989C19.8408 11.4535 20.1179 11.1764 20.1179 10.8345C20.1179 10.4926 19.8408 10.2155 19.4989 10.2155ZM10.6162 18.7886C10.3841 18.5439 9.99866 18.5302 9.74962 18.7577L7.7688 20.6456L6.93316 19.779C6.701 19.5343 6.31558 19.5205 6.06653 19.7481C5.95112 19.869 5.88672 20.0297 5.88672 20.1968C5.88672 20.364 5.95112 20.5247 6.06653 20.6456L7.33546 21.9455C7.38971 22.0063 7.45662 22.0544 7.53149 22.0865C7.60635 22.1186 7.68733 22.1339 7.76874 22.1312C7.93202 22.1289 8.08776 22.0622 8.20203 21.9455L10.6161 19.6552C10.8555 19.4357 10.8714 19.0637 10.6518 18.8244C10.6405 18.8119 10.6287 18.8 10.6162 18.7886ZM19.4989 20.1195H12.3804C12.0385 20.1195 11.7614 20.3966 11.7614 20.7385C11.7614 21.0804 12.0385 21.3575 12.3804 21.3575H19.4989C19.8408 21.3575 20.1179 21.0804 20.1179 20.7385C20.1179 20.3966 19.8408 20.1195 19.4989 20.1195Z"
                fill="#619DFF" id="Vector_2" />
        </g>
    </g>
</svg>
