<svg fill="none" height="29" viewBox="0 0 29 29" width="29" xmlns="http://www.w3.org/2000/svg">
    <path
        d="M14.5 27.1821C15.928 27.1847 17.3425 26.9052 18.6621 26.3594C19.9818 25.8137 21.1805 25.0126 22.1895 24.002C22.2761 23.9184 22.3451 23.8184 22.3926 23.7079C22.4401 23.5973 22.4651 23.4784 22.4662 23.3581C22.4672 23.2377 22.4443 23.1184 22.3987 23.007C22.3531 22.8956 22.2859 22.7945 22.2008 22.7094C22.1157 22.6243 22.0145 22.557 21.9031 22.5114C21.7917 22.4658 21.6724 22.4429 21.5521 22.444C21.4317 22.445 21.3128 22.47 21.2023 22.5175C21.0917 22.565 20.9917 22.634 20.9081 22.7206C19.6407 23.988 18.0259 24.8512 16.268 25.2009C14.51 25.5506 12.6878 25.3711 11.0319 24.6852C9.37589 23.9993 7.96051 22.8377 6.9647 21.3474C5.96889 19.8571 5.43738 18.1049 5.43738 16.3125C5.43738 14.5201 5.96889 12.768 6.9647 11.2776C7.96051 9.78731 9.37589 8.62574 11.0319 7.93983C12.6878 7.25392 14.51 7.07446 16.268 7.42415C18.0259 7.77384 19.6407 8.63698 20.9081 9.90441C20.9917 9.99097 21.0917 10.06 21.2023 10.1075C21.3128 10.155 21.4317 10.18 21.5521 10.181C21.6724 10.1821 21.7917 10.1592 21.9031 10.1136C22.0145 10.068 22.1157 10.0007 22.2008 9.91564C22.2859 9.83055 22.3531 9.72937 22.3987 9.61799C22.4443 9.50662 22.4672 9.38728 22.4662 9.26695C22.4651 9.14662 22.4401 9.0277 22.3926 8.91714C22.3451 8.80657 22.2761 8.70657 22.1895 8.62297C20.9255 7.35703 19.3686 6.42248 17.6569 5.90217C15.9453 5.38186 14.1317 5.29186 12.3769 5.64014C10.6221 5.98842 8.9804 6.76423 7.5972 7.8988C6.21399 9.03337 5.13205 10.4917 4.44727 12.1444C3.7625 13.7972 3.49603 15.5933 3.6715 17.3737C3.84696 19.1541 4.45894 20.8637 5.45319 22.3509C6.44744 23.8382 7.79324 25.0572 9.37132 25.8999C10.9494 26.7427 12.711 27.183 14.5 27.1821Z"
        fill="#333333" />
    <path
        d="M18.3384 21.75C18.0981 21.7499 17.8676 21.6544 17.6977 21.4845L13.1665 16.9532C12.9965 16.7833 12.901 16.5528 12.9009 16.3125V9.96875C12.9009 9.7284 12.9964 9.49789 13.1664 9.32793C13.3363 9.15798 13.5668 9.0625 13.8072 9.0625C14.0475 9.0625 14.278 9.15798 14.448 9.32793C14.6179 9.49789 14.7134 9.7284 14.7134 9.96875V15.9373L18.9791 20.203C19.1058 20.3298 19.1921 20.4912 19.2271 20.667C19.262 20.8428 19.2441 21.025 19.1755 21.1905C19.1069 21.3561 18.9908 21.4976 18.8418 21.5972C18.6928 21.6968 18.5176 21.75 18.3384 21.75Z"
        fill="#333333" />
    <path
        d="M26.2812 17.2188H18.125C17.8846 17.2188 17.6541 17.1233 17.4842 16.9533C17.3142 16.7834 17.2188 16.5529 17.2188 16.3125C17.2188 16.0721 17.3142 15.8416 17.4842 15.6717C17.6541 15.5017 17.8846 15.4062 18.125 15.4062H26.2812C26.5216 15.4062 26.7521 15.5017 26.9221 15.6717C27.092 15.8416 27.1875 16.0721 27.1875 16.3125C27.1875 16.5529 27.092 16.7834 26.9221 16.9533C26.7521 17.1233 26.5216 17.2188 26.2812 17.2188Z"
        fill="#E6232A" />
    <path
        d="M23.5625 19.9375C23.3833 19.9374 23.2081 19.8843 23.0591 19.7847C22.9101 19.6851 22.794 19.5436 22.7254 19.378C22.6568 19.2124 22.6389 19.0302 22.6738 18.8545C22.7088 18.6787 22.7951 18.5172 22.9218 18.3905L24.9998 16.3125L22.9218 14.2344C22.7567 14.0635 22.6653 13.8346 22.6674 13.597C22.6695 13.3594 22.7648 13.1321 22.9328 12.964C23.1008 12.796 23.3281 12.7007 23.5658 12.6986C23.8034 12.6966 24.0323 12.7879 24.2032 12.953L26.922 15.6718C27.0919 15.8417 27.1873 16.0722 27.1873 16.3125C27.1873 16.5528 27.0919 16.7832 26.922 16.9532L24.2032 19.6719C24.0333 19.8419 23.8028 19.9374 23.5625 19.9375Z"
        fill="#E6232A" />
    <path
        d="M12.6875 3.625H16.3125C16.5529 3.625 16.7834 3.52952 16.9533 3.35957C17.1233 3.18961 17.2188 2.9591 17.2188 2.71875C17.2188 2.4784 17.1233 2.24789 16.9533 2.07793C16.7834 1.90798 16.5529 1.8125 16.3125 1.8125H12.6875C12.4471 1.8125 12.2166 1.90798 12.0467 2.07793C11.8767 2.24789 11.7812 2.4784 11.7812 2.71875C11.7812 2.9591 11.8767 3.18961 12.0467 3.35957C12.2166 3.52952 12.4471 3.625 12.6875 3.625Z"
        fill="#333333" />
</svg>
