<svg fill="none" height="22" viewBox="0 0 23 22" width="23" xmlns="http://www.w3.org/2000/svg">
    <path
        d="M4.125 20.625H0.458333C0.336776 20.625 0.220197 20.5767 0.134243 20.4908C0.0482886 20.4048 0 20.2882 0 20.1667V13.75C0 13.6285 0.0482886 13.5119 0.134243 13.4259C0.220197 13.34 0.336776 13.2917 0.458333 13.2917H4.125C4.24656 13.2917 4.36314 13.34 4.44909 13.4259C4.53504 13.5119 4.58333 13.6285 4.58333 13.75V20.1667C4.58333 20.2882 4.53504 20.4048 4.44909 20.4908C4.36314 20.5767 4.24656 20.625 4.125 20.625ZM0.916667 19.7084H3.66667V14.2084H0.916667V19.7084Z"
        fill="#333333" />
    <path
        d="M12.3752 22H12.2744L4.02441 20.1667L4.22608 19.25L12.3248 21.0834L21.0836 17.1188V15.785L18.0357 16.9309L17.9486 16.9538L15.1986 17.4121L15.0519 16.4955L17.7561 16.0371L21.3815 14.6621C21.4535 14.635 21.5313 14.6264 21.6075 14.6372C21.6838 14.648 21.7561 14.6779 21.8177 14.724C21.8794 14.7701 21.9284 14.8311 21.9603 14.9012C21.9922 14.9712 22.006 15.0482 22.0002 15.125V17.4167C22.0001 17.5049 21.9744 17.5911 21.9265 17.6651C21.8785 17.7391 21.8102 17.7976 21.7298 17.8338L12.5632 21.9588C12.5041 21.9857 12.4401 21.9997 12.3752 22Z"
        fill="#333333" />
    <path
        d="M11 18.7917C10.959 18.7987 10.9172 18.7987 10.8762 18.7917L7.66792 17.875L7.91542 16.9583L11.0367 17.875L14.6667 17.4625V16.445L11.4033 16.0417C11.35 16.0383 11.2983 16.0227 11.2521 15.9958L8.59833 14.6667H4.125V13.75H8.70833C8.78008 13.7504 8.85073 13.7677 8.91458 13.8004L11.5912 15.125L15.18 15.5833C15.2918 15.5968 15.3947 15.651 15.4691 15.7356C15.5435 15.8201 15.5841 15.9291 15.5833 16.0417V17.875C15.584 17.9883 15.5427 18.0979 15.4674 18.1825C15.392 18.2671 15.288 18.3209 15.1754 18.3333L11.0504 18.7917H11Z"
        fill="#333333" />
    <path d="M2.74967 17.875H1.83301V18.7917H2.74967V17.875Z" fill="#333333" />
    <path
        d="M11.9163 4.58336C8.95551 4.58336 5.95801 3.79503 5.95801 2.2917C5.95801 0.788364 8.95551 3.05176e-05 11.9163 3.05176e-05C14.8772 3.05176e-05 17.8747 0.788364 17.8747 2.2917C17.8747 3.79503 14.8772 4.58336 11.9163 4.58336ZM11.9163 0.916697C8.65301 0.916697 6.87467 1.83336 6.87467 2.2917C6.87467 2.75003 8.65301 3.6667 11.9163 3.6667C15.1797 3.6667 16.958 2.75003 16.958 2.2917C16.958 1.83336 15.1797 0.916697 11.9163 0.916697Z"
        fill="#333333" />
    <path
        d="M11.9163 7.33337C8.95551 7.33337 5.95801 6.54504 5.95801 5.04171V2.29171C5.95801 2.17015 6.0063 2.05357 6.09225 1.96762C6.1782 1.88166 6.29478 1.83337 6.41634 1.83337C6.5379 1.83337 6.65448 1.88166 6.74043 1.96762C6.82639 2.05357 6.87467 2.17015 6.87467 2.29171C6.87467 2.75004 8.65301 3.66671 11.9163 3.66671C15.1797 3.66671 16.958 2.75004 16.958 2.29171C16.958 2.17015 17.0063 2.05357 17.0922 1.96762C17.1782 1.88166 17.2948 1.83337 17.4163 1.83337C17.5379 1.83337 17.6545 1.88166 17.7404 1.96762C17.8264 2.05357 17.8747 2.17015 17.8747 2.29171V5.04171C17.8747 6.54504 14.8772 7.33337 11.9163 7.33337ZM6.87467 3.57046V5.04171C6.87467 5.50004 8.65301 6.41671 11.9163 6.41671C15.1797 6.41671 16.958 5.50004 16.958 5.04171V3.57046C14.7305 4.90879 9.10217 4.90879 6.87467 3.57046Z"
        fill="#333333" />
    <path d="M15.5837 4.125H14.667V6.875H15.5837V4.125Z" fill="#333333" />
    <path d="M10.5417 3.66669H9.625V6.41669H10.5417V3.66669Z" fill="#333333" />
    <path
        d="M15.1253 14.2083C12.1645 14.2083 9.16699 13.42 9.16699 11.9167H10.0837C10.0837 12.375 11.862 13.2917 15.1253 13.2917C18.3887 13.2917 20.167 12.375 20.167 11.9167C20.167 11.4583 18.3887 10.5417 15.1253 10.5417V9.625C18.0862 9.625 21.0837 10.4133 21.0837 11.9167C21.0837 13.42 18.0862 14.2083 15.1253 14.2083Z"
        fill="#333333" />
    <path
        d="M21.0837 15.5833H20.167V13.1954C17.9395 14.5338 12.3112 14.5338 10.0837 13.1954V14.6667H9.16699V11.9167C9.16699 11.7951 9.21528 11.6785 9.30123 11.5926C9.38719 11.5066 9.50377 11.4583 9.62533 11.4583C9.74688 11.4583 9.86346 11.5066 9.94942 11.5926C10.0354 11.6785 10.0837 11.7951 10.0837 11.9167C10.0837 12.375 11.862 13.2917 15.1253 13.2917C18.3887 13.2917 20.167 12.375 20.167 11.9167C20.167 11.7951 20.2153 11.6785 20.3012 11.5926C20.3872 11.5066 20.5038 11.4583 20.6253 11.4583C20.7469 11.4583 20.8635 11.5066 20.9494 11.5926C21.0354 11.6785 21.0837 11.7951 21.0837 11.9167V15.5833Z"
        fill="#333333" />
    <path
        d="M9.62532 9.62494C6.66449 9.62494 3.66699 8.8366 3.66699 7.33327C3.66699 6.41661 4.76241 5.69244 6.75616 5.30286L6.93491 6.21952C5.31241 6.51744 4.58366 7.05369 4.58366 7.33327C4.58366 7.79161 6.36199 8.70827 9.62532 8.70827C12.8887 8.70827 14.667 7.79161 14.667 7.33327C14.6522 7.24399 14.6088 7.16195 14.5432 7.09952L15.2124 6.47619C15.4434 6.70242 15.5766 7.01005 15.5837 7.33327C15.5837 8.8366 12.5862 9.62494 9.62532 9.62494Z"
        fill="#333333" />
    <path
        d="M9.62532 12.375C6.66449 12.375 3.66699 11.5867 3.66699 10.0833V7.33333C3.66699 7.21178 3.71528 7.0952 3.80123 7.00924C3.88719 6.92329 4.00377 6.875 4.12533 6.875C4.24688 6.875 4.36346 6.92329 4.44942 7.00924C4.53537 7.0952 4.58366 7.21178 4.58366 7.33333C4.58366 7.79167 6.36199 8.70833 9.62532 8.70833C12.8887 8.70833 14.667 7.79167 14.667 7.33333C14.667 7.21178 14.7153 7.0952 14.8012 7.00924C14.8872 6.92329 15.0038 6.875 15.1253 6.875C15.2469 6.875 15.3635 6.92329 15.4494 7.00924C15.5354 7.0952 15.5837 7.21178 15.5837 7.33333V10.0833C15.5837 11.5867 12.5862 12.375 9.62532 12.375ZM4.58366 8.61208V10.0833C4.58366 10.5417 6.36199 11.4583 9.62532 11.4583C12.8887 11.4583 14.667 10.5417 14.667 10.0833V8.61208C12.4395 9.95042 6.81116 9.95042 4.58366 8.61208Z"
        fill="#333333" />
    <path d="M11.9167 9.16669H11V11.9167H11.9167V9.16669Z" fill="#333333" />
    <path d="M13.2917 13.2917H12.375V16.0417H13.2917V13.2917Z" fill="#333333" />
    <path d="M17.4167 13.75H16.5V16.5H17.4167V13.75Z" fill="#333333" />
    <path d="M7.79167 9.16669H6.875V11.9167H7.79167V9.16669Z" fill="#333333" />
</svg>
