<svg fill="none" height="17" viewBox="0 0 17 17" width="17" xmlns="http://www.w3.org/2000/svg">
    <path
        d="M14.6115 12.2018C15.0528 11.6882 15.2964 11.0404 15.3 10.3703C15.3 9.60109 14.9866 8.86335 14.4286 8.3194C13.8707 7.77546 13.114 7.46987 12.325 7.46987H12.087C12.788 6.65773 13.1732 5.63083 13.175 4.5694C13.177 3.80413 12.9813 3.05069 12.606 2.37857C12.2307 1.70644 11.6878 1.13727 11.0275 0.723533C10.3672 0.309799 9.6106 0.0648259 8.82759 0.0112038C8.04458 -0.0424184 7.26033 0.097037 6.54716 0.41671C5.83398 0.736382 5.21485 1.22598 4.74685 1.84035C4.27885 2.45473 3.97705 3.1741 3.86928 3.93212C3.76152 4.69015 3.85126 5.46243 4.13022 6.17774C4.40918 6.89306 4.86839 7.52837 5.4655 8.02511C3.85923 8.62362 2.47692 9.68304 1.50111 11.0635C0.52531 12.4439 0.00189949 14.0804 0 15.7569C0 15.9767 0.0895533 16.1875 0.248959 16.3429C0.408365 16.4983 0.624566 16.5856 0.85 16.5856C1.07543 16.5856 1.29163 16.4983 1.45104 16.3429C1.61045 16.1875 1.7 15.9767 1.7 15.7569C1.7 13.9986 2.41643 12.3124 3.69167 11.0691C4.96692 9.82577 6.69653 9.12729 8.5 9.12729H9.6475C9.39852 9.62121 9.30289 10.1753 9.37234 10.7214C9.4418 11.2676 9.67333 11.7821 10.0385 12.2018C9.31436 12.5967 8.71131 13.1727 8.29148 13.8704C7.87165 14.5681 7.65021 15.3624 7.65 16.1713C7.65 16.3911 7.73955 16.6019 7.89896 16.7573C8.05837 16.9127 8.27457 17 8.5 17C8.72543 17 8.94164 16.9127 9.10104 16.7573C9.26045 16.6019 9.35 16.3911 9.35 16.1713C9.35 15.402 9.66344 14.6643 10.2214 14.1203C10.7793 13.5764 11.536 13.2708 12.325 13.2708C13.114 13.2708 13.8707 13.5764 14.4286 14.1203C14.9866 14.6643 15.3 15.402 15.3 16.1713C15.3 16.3911 15.3896 16.6019 15.549 16.7573C15.7084 16.9127 15.9246 17 16.15 17C16.3754 17 16.5916 16.9127 16.751 16.7573C16.9104 16.6019 17 16.3911 17 16.1713C16.9998 15.3624 16.7784 14.5681 16.3585 13.8704C15.9387 13.1727 15.3356 12.5967 14.6115 12.2018ZM8.5 7.46987C7.9116 7.46987 7.33641 7.29977 6.84718 6.98106C6.35794 6.66235 5.97663 6.20936 5.75146 5.67936C5.52629 5.14937 5.46737 4.56618 5.58216 4.00355C5.69695 3.44091 5.9803 2.9241 6.39636 2.51846C6.81242 2.11282 7.34251 1.83658 7.91961 1.72466C8.4967 1.61275 9.09487 1.67018 9.63848 1.88971C10.1821 2.10924 10.6467 2.48101 10.9736 2.95799C11.3005 3.43497 11.475 3.99574 11.475 4.5694C11.475 5.33865 11.1616 6.0764 10.6036 6.62035C10.0457 7.16429 9.28902 7.46987 8.5 7.46987ZM12.325 11.6134C11.9868 11.6134 11.6625 11.4824 11.4234 11.2493C11.1843 11.0162 11.05 10.7 11.05 10.3703C11.0522 10.0413 11.1873 9.72642 11.4259 9.49377C11.6645 9.26112 11.9875 9.12946 12.325 9.12729C12.6632 9.12729 12.9875 9.25825 13.2266 9.49137C13.4657 9.72449 13.6 10.0407 13.6 10.3703C13.6 10.7 13.4657 11.0162 13.2266 11.2493C12.9875 11.4824 12.6632 11.6134 12.325 11.6134Z"
        fill="#333333" />
</svg>
