<svg width="21" height="24" viewBox="0 0 21 24" fill="none" xmlns="http://www.w3.org/2000/svg">
<path d="M9.86027 11.5609C11.4485 11.5609 12.8236 10.9913 13.9475 9.86735C15.0711 8.74366 15.6409 7.36872 15.6409 5.78031C15.6409 4.19237 15.0713 2.81729 13.9474 1.69318C12.8234 0.569626 11.4483 0 9.86027 0C8.27181 0 6.89683 0.569626 5.77314 1.69336C4.64945 2.8171 4.07959 4.19223 4.07959 5.78031C4.07959 7.36872 4.6494 8.74384 5.77318 9.86758C6.89725 10.9911 8.27238 11.5609 9.86022 11.5609H9.86027ZM6.76778 2.68782C7.63 1.82555 8.64152 1.40644 9.86027 1.40644C11.0788 1.40644 12.0905 1.82555 12.9529 2.68782C13.8152 3.55023 14.2345 4.56188 14.2345 5.78026C14.2345 6.99901 13.8152 8.01053 12.9529 8.87294C12.0905 9.73539 11.0788 10.1545 9.86027 10.1545C8.64185 10.1545 7.63042 9.73521 6.76778 8.87294C5.90532 8.01072 5.48603 6.99906 5.48603 5.78031C5.48603 4.56188 5.90532 3.55023 6.76778 2.68782ZM19.9748 18.4549C19.9424 17.9872 19.8769 17.4771 19.7804 16.9384C19.6829 16.3956 19.5576 15.8826 19.4074 15.4137C19.2521 14.929 19.0414 14.4504 18.7804 13.9917C18.5099 13.5156 18.1921 13.101 17.8354 12.7599C17.4624 12.4031 17.0058 12.1161 16.4777 11.9068C15.9515 11.6987 15.3682 11.5932 14.7444 11.5932C14.4994 11.5932 14.2625 11.6937 13.8049 11.9916C13.4796 12.2034 13.1534 12.4138 12.8262 12.6226C12.5118 12.8229 12.0859 13.0106 11.5598 13.1805C11.0466 13.3466 10.5255 13.4308 10.0109 13.4308C9.4968 13.4308 8.97564 13.3466 8.46203 13.1805C7.93656 13.0107 7.51047 12.8231 7.19659 12.6228C6.83237 12.39 6.50284 12.1776 6.217 11.9914C5.75978 11.6935 5.52282 11.593 5.27785 11.593C4.65381 11.593 4.07082 11.6986 3.54474 11.907C3.01702 12.1159 2.56018 12.4029 2.18682 12.7601C1.83014 13.1014 1.51228 13.5157 1.242 13.9917C0.981471 14.4503 0.770533 14.9288 0.615236 15.4138C0.465235 15.8828 0.339844 16.3956 0.242438 16.9384C0.145735 17.4763 0.0803908 17.9867 0.0479532 18.4554C0.0160782 18.9137 0 19.3907 0 19.8726C0 21.1255 0.398251 22.1397 1.1836 22.8877C1.95924 23.6258 2.98538 24 4.23357 24H15.7898C17.0376 24 18.0637 23.6258 18.8396 22.8877C19.6251 22.1402 20.0234 21.1257 20.0234 19.8725C20.0232 19.3889 20.0069 18.9119 19.9748 18.4549ZM17.8699 21.8687C17.3573 22.3565 16.6769 22.5936 15.7895 22.5936H4.23362C3.34613 22.5936 2.66569 22.3565 2.15335 21.8689C1.65075 21.3904 1.40649 20.7373 1.40649 19.8726C1.40649 19.4229 1.4213 18.9789 1.45102 18.5526C1.47989 18.1344 1.53905 17.675 1.6268 17.1868C1.71338 16.7047 1.82358 16.2523 1.95469 15.8427C2.0805 15.4499 2.25207 15.061 2.46483 14.6864C2.6679 14.3293 2.90152 14.023 3.15933 13.7762C3.40051 13.5453 3.70449 13.3563 4.06262 13.2146C4.39384 13.0834 4.76612 13.0117 5.17023 13.0009C5.21945 13.0271 5.3072 13.0771 5.44928 13.1697C5.7384 13.3581 6.07164 13.5731 6.44008 13.8084C6.85539 14.0732 7.39037 14.3123 8.02961 14.5186C8.6831 14.7299 9.34961 14.8372 10.0112 14.8372C10.6728 14.8372 11.3394 14.7299 11.9926 14.5188C12.6323 14.3121 13.1672 14.0732 13.583 13.808C13.9601 13.5671 14.284 13.3583 14.573 13.1697C14.7152 13.0772 14.8029 13.0271 14.8521 13.0009C15.2564 13.0117 15.6287 13.0834 15.9601 13.2146C16.3181 13.3563 16.6221 13.5454 16.8632 13.7761C17.121 14.0228 17.3546 14.3292 17.5577 14.6866C17.7706 15.061 17.9424 15.4501 18.068 15.8425C18.1993 16.2527 18.3097 16.7049 18.3961 17.1867C18.4836 17.6758 18.543 18.1354 18.5719 18.5528V18.5532C18.6018 18.9778 18.6168 19.4217 18.617 19.8726C18.6168 20.7375 18.3725 21.3905 17.8699 21.8687H17.8699Z" fill="white"/>
</svg>
