<svg fill="none" height="20" viewBox="0 0 14 20" width="14" xmlns="http://www.w3.org/2000/svg">
    <g id="Layer 2">
        <g id="Layer 1">
            <g id="Group 6063">
                <path
                    d="M9.25779 10.0699H4.62962C3.40215 10.0699 2.22496 10.5904 1.35701 11.5168C0.489056 12.4432 0.00144636 13.6996 0.00144636 15.0098V19.1253C-0.00500115 19.2375 0.0101539 19.3501 0.0459784 19.4559C0.0818029 19.5617 0.137539 19.6585 0.209754 19.7405C0.281969 19.8224 0.369136 19.8877 0.465886 19.9323C0.562637 19.977 0.666924 20 0.772326 20C0.877729 20 0.982016 19.977 1.07877 19.9323C1.17552 19.8877 1.26268 19.8224 1.3349 19.7405C1.40711 19.6585 1.46285 19.5617 1.49867 19.4559C1.5345 19.3501 1.54965 19.2375 1.54321 19.1253V15.0098C1.54474 14.1366 1.8704 13.2996 2.44888 12.6822C3.02737 12.0648 3.81152 11.7172 4.62962 11.7155H9.25779C10.0759 11.7172 10.86 12.0648 11.4385 12.6822C12.017 13.2996 12.3427 14.1366 12.3442 15.0098V19.1253C12.3378 19.2375 12.3529 19.3501 12.3887 19.4559C12.4246 19.5617 12.4803 19.6585 12.5525 19.7405C12.6247 19.8224 12.7119 19.8877 12.8086 19.9323C12.9054 19.977 13.0097 20 13.1151 20C13.2205 20 13.3248 19.977 13.4215 19.9323C13.5183 19.8877 13.6054 19.8224 13.6777 19.7405C13.7499 19.6585 13.8056 19.5617 13.8414 19.4559C13.8773 19.3501 13.8924 19.2375 13.886 19.1253V15.0098C13.886 13.6996 13.3984 12.4432 12.5304 11.5168C11.6625 10.5904 10.4853 10.0699 9.25779 10.0699Z"
                    fill="#E31E24" id="Vector" />
                <path
                    d="M7.37391 8.42425C8.13722 8.42486 8.88355 8.18383 9.5185 7.73165C10.1534 7.27946 10.6485 6.63644 10.941 5.88393C11.2335 5.13141 11.3103 4.30321 11.1618 3.50408C11.0132 2.70495 10.6459 1.9708 10.1064 1.3945C9.56683 0.818198 8.87927 0.425635 8.13067 0.266469C7.38207 0.107302 6.60606 0.188683 5.9008 0.500317C5.19554 0.811951 4.59271 1.33984 4.16858 2.0172C3.74445 2.69456 3.51807 3.49097 3.51807 4.30568C3.51883 5.3972 3.92522 6.44384 4.64809 7.21595C5.37095 7.98807 6.35125 8.42261 7.37391 8.42425ZM7.37391 1.83577C7.83159 1.83577 8.279 1.98063 8.65955 2.25202C9.0401 2.52342 9.3367 2.90917 9.51185 3.36048C9.687 3.8118 9.73282 4.30842 9.64353 4.78753C9.55424 5.26665 9.33385 5.70674 9.01022 6.05217C8.68659 6.39759 8.27426 6.63282 7.82537 6.72813C7.37648 6.82343 6.91119 6.77452 6.48835 6.58757C6.06551 6.40063 5.70409 6.08406 5.44982 5.67788C5.19554 5.27171 5.05983 4.79418 5.05983 4.30568C5.05983 3.65062 5.30363 3.02238 5.73761 2.55919C6.17158 2.09599 6.76018 1.83577 7.37391 1.83577Z"
                    fill="#E31E24" id="Vector_2" />
            </g>
        </g>
    </g>
</svg>
