<svg width="20" height="20" viewBox="0 0 20 20" fill="none" xmlns="http://www.w3.org/2000/svg">
<g id="Group 6558">
<path id="Vector" d="M11.1672 12.1812C10.8651 12.4834 10.5629 12.9367 10.3362 13.3144C8.97636 12.2567 7.7676 10.9724 6.70993 9.68812C7.16322 9.46148 7.54096 9.15929 7.84315 8.85709C9.3541 7.34614 8.82527 5.3819 7.31431 3.87094C5.80336 2.35999 3.91467 1.75561 2.32816 3.34211C0.741662 4.92861 0.590566 7.64833 1.79933 9.38593C3.99021 12.71 7.31431 16.0341 10.6384 18.225C12.4516 19.4338 15.1713 19.2071 16.6822 17.6962C18.1932 16.1852 17.6644 14.221 16.1534 12.71C14.6424 11.1991 12.6782 10.5947 11.1672 12.1812Z" stroke="#333333" stroke-width="1.6" stroke-miterlimit="10" stroke-linejoin="round"/>
<path id="Vector_2" d="M18.948 8.47923C18.948 4.3241 15.6239 1 11.4688 1" stroke="#E31E24" stroke-width="1.6" stroke-miterlimit="10" stroke-linecap="round" stroke-linejoin="round"/>
<path id="Vector_3" d="M15.2487 8.32803C15.2487 6.36378 13.5867 4.77728 11.5469 4.77728" stroke="#E31E24" stroke-width="1.6" stroke-miterlimit="10" stroke-linecap="round" stroke-linejoin="round"/>
</g>
</svg>
