<svg fill="none" height="22" viewBox="0 0 22 22" width="22" xmlns="http://www.w3.org/2000/svg">
    <g clip-path="url(#clip0_11750_934)">
        <path
            d="M11 4.5834C10.4931 4.5834 10.0834 4.99397 10.0834 5.50001V11C10.0834 11.5061 10.4931 11.9166 11 11.9166H16.5C17.0069 11.9166 17.4166 11.5061 17.4166 11C17.4166 10.494 17.0069 10.0834 16.5 10.0834H11.9166V5.50001C11.9166 4.99397 11.5069 4.5834 11 4.5834Z"
            fill="#E31E24" />
        <path
            d="M11 0C8.085 0 5.26165 1.1642 3.16443 3.10836L1.17343 1.11835C1.07741 1.0221 0.954972 0.95653 0.821641 0.929941C0.688311 0.903351 0.550087 0.916941 0.424488 0.968988C0.298889 1.02106 0.191536 1.10917 0.115984 1.22221C0.0404331 1.33525 7.26611e-05 1.46815 0 1.60411L0 7.5625C0 7.942 0.308 8.25 0.6875 8.25H6.64589C6.78188 8.25006 6.91483 8.20975 7.0279 8.13418C7.14096 8.05861 7.22905 7.95119 7.28101 7.82551C7.33311 7.69992 7.34672 7.56169 7.32013 7.42835C7.29354 7.295 7.22794 7.17257 7.13165 7.07657L4.46875 4.41289C6.22411 2.80509 8.5699 1.83343 11 1.83343C16.0545 1.83343 20.1666 5.94554 20.1666 11C20.1666 16.0545 16.0545 20.1666 11 20.1666C8.54876 20.1666 6.24895 19.2115 4.52461 17.479C4.16711 17.1197 3.58604 17.1187 3.22854 17.4762C2.86915 17.8337 2.8673 18.414 3.22485 18.7733C5.29659 20.8541 8.0575 22 11 22C17.0656 22 22 17.0656 22 11C22 4.93436 17.0656 0 11 0Z"
            fill="#111111" />
    </g>
    <defs>
        <clipPath id="clip0_11750_934">
            <rect fill="white" height="22" width="22" />
        </clipPath>
    </defs>
</svg>
