<svg fill="none" height="22" viewBox="0 0 22 22" width="22" xmlns="http://www.w3.org/2000/svg">
    <g clip-path="url(#clip0_11750_8488)" id="Frame">
        <g id="Group">
            <path
                d="M13.5588 7.97729H13.0647C12.9642 7.68755 12.8232 7.4135 12.6458 7.16329H13.5588C13.7412 7.16329 13.916 7.09086 14.045 6.96192C14.1739 6.83299 14.2463 6.65812 14.2463 6.47579C14.2463 6.29345 14.1739 6.11858 14.045 5.98965C13.916 5.86072 13.7412 5.78829 13.5588 5.78829H10.064C10.0388 5.78829 10.0145 5.78462 9.98886 5.78462H8.17065C7.98832 5.78462 7.81345 5.85705 7.68452 5.98599C7.55559 6.11492 7.48315 6.28979 7.48315 6.47212C7.48315 6.65446 7.55559 6.82933 7.68452 6.95826C7.81345 7.08719 7.98832 7.15962 8.17065 7.15962H9.98886C10.2943 7.15964 10.5951 7.23411 10.8653 7.37658C11.1355 7.51906 11.3669 7.72525 11.5394 7.97729H8.19907C8.01673 7.97729 7.84187 8.04972 7.71294 8.17865C7.584 8.30758 7.51157 8.48245 7.51157 8.66479C7.51157 8.84713 7.584 9.02199 7.71294 9.15092C7.84187 9.27986 8.01673 9.35229 8.19907 9.35229H11.8405C11.7676 9.79105 11.5416 10.1898 11.2026 10.4777C10.8637 10.7657 10.4336 10.9243 9.98886 10.9253H8.17065C8.03626 10.9253 7.90483 10.9648 7.79262 11.0387C7.6804 11.1127 7.59232 11.2179 7.53926 11.3414C7.4862 11.4648 7.4705 11.6012 7.49409 11.7335C7.51768 11.8658 7.57953 11.9883 7.67199 12.0858L11.3891 16.0045C11.4506 16.0725 11.525 16.1274 11.6081 16.1662C11.6911 16.205 11.781 16.2267 11.8726 16.2302C11.9642 16.2337 12.0555 16.2189 12.1413 16.1865C12.227 16.1542 12.3055 16.1051 12.3719 16.042C12.4384 15.9789 12.4916 15.9032 12.5284 15.8193C12.5652 15.7354 12.5849 15.645 12.5862 15.5533C12.5876 15.4617 12.5706 15.3707 12.5363 15.2858C12.502 15.2008 12.451 15.1235 12.3864 15.0585L9.77024 12.3003H9.98886C10.7989 12.2993 11.5796 11.9969 12.179 11.452C12.7784 10.907 13.1536 10.1586 13.2316 9.35229H13.5588C13.7412 9.35229 13.916 9.27986 14.045 9.15092C14.1739 9.02199 14.2463 8.84713 14.2463 8.66479C14.2463 8.48245 14.1739 8.30758 14.045 8.17865C13.916 8.04972 13.7412 7.97729 13.5588 7.97729Z"
                fill="#E31E24" id="Vector" />
            <path
                d="M11 22C9.2641 21.9998 7.5529 21.5888 6.0063 20.8006C4.4597 20.0124 3.1216 18.8693 2.1014 17.4649C1.0812 16.0604 0.407871 14.4345 0.136454 12.7199C-0.134962 11.0054 0.00324333 9.25098 0.539772 7.6001C1.0763 5.94922 1.99592 4.44875 3.22344 3.22137C4.45096 1.99399 5.95154 1.07455 7.60248 0.538214C9.25343 0.00187882 11.0079 -0.136121 12.7224 0.135496C14.4369 0.407114 16.0627 1.08064 17.4671 2.101C17.5401 2.15412 17.6019 2.2211 17.649 2.29811C17.6961 2.37512 17.7276 2.46066 17.7417 2.54985C17.7558 2.63903 17.7521 2.73011 17.731 2.81789C17.7099 2.90567 17.6717 2.98843 17.6185 3.06144C17.5654 3.13445 17.4984 3.19628 17.4214 3.24341C17.3444 3.29053 17.2589 3.32203 17.1697 3.33609C16.9896 3.3645 16.8055 3.32019 16.6581 3.21292C14.7454 1.825 12.3885 1.19032 10.0374 1.43012C7.68644 1.66992 5.50617 2.76739 3.91308 4.5129C2.31999 6.25841 1.42575 8.52961 1.40117 10.8927C1.37659 13.2558 2.22339 15.5451 3.77982 17.3233C5.33625 19.1016 7.49322 20.2442 9.83873 20.5329C12.1842 20.8215 14.5539 20.236 16.495 18.8882C18.4362 17.5403 19.8128 15.5247 20.3619 13.2261C20.911 10.9276 20.5941 8.50736 19.4718 6.42767C19.3916 6.26786 19.3768 6.08309 19.4306 5.91255C19.4843 5.74202 19.6024 5.59914 19.7598 5.51423C19.9171 5.42932 20.1014 5.40905 20.2734 5.45774C20.4455 5.50642 20.5918 5.62023 20.6813 5.775C21.5849 7.45092 22.0382 9.33262 21.9967 11.2362C21.9553 13.1397 21.4207 14.9999 20.4451 16.6349C19.4694 18.2699 18.0863 19.6238 16.4307 20.5642C14.7752 21.5046 12.904 21.9993 11 22Z"
                fill="#111111" id="Vector_2" />
            <path
                d="M18.8471 4.99584C18.7477 4.99597 18.6495 4.97457 18.5593 4.93311C18.469 4.89165 18.3888 4.83111 18.3241 4.75567L18.2004 4.61313C18.1391 4.54587 18.0917 4.46712 18.0611 4.38142C18.0305 4.29573 18.0172 4.20481 18.0219 4.11393C18.0267 4.02306 18.0495 3.93403 18.0889 3.85202C18.1284 3.77002 18.1837 3.69665 18.2517 3.63619C18.3197 3.57573 18.3991 3.52938 18.4852 3.49981C18.5712 3.47025 18.6623 3.45807 18.7531 3.46397C18.8439 3.46988 18.9327 3.49375 19.0142 3.53421C19.0957 3.57467 19.1683 3.63091 19.228 3.69967L19.3691 3.86147C19.4545 3.96131 19.5095 4.08354 19.5276 4.21367C19.5457 4.34381 19.5261 4.4764 19.4712 4.59576C19.4163 4.71511 19.3283 4.81623 19.2177 4.88713C19.1071 4.95804 18.9785 4.99576 18.8471 4.99584Z"
                fill="#111111" id="Vector_3" />
        </g>
    </g>
    <defs>
        <clipPath id="clip0_11750_8488">
            <rect fill="white" height="22" width="22" />
        </clipPath>
    </defs>
</svg>
