<svg fill="none" height="28" viewBox="0 0 28 28" width="28" xmlns="http://www.w3.org/2000/svg">
    <path
        d="M19.8456 21.9499H3.94576C3.42919 21.9499 3.0105 21.5312 3.0105 21.0147V1.3737C3.0105 0.857118 3.42919 0.438431 3.94576 0.438431H19.8456C20.3621 0.438431 20.7808 0.857118 20.7808 1.3737V21.0146C20.7809 21.5312 20.3621 21.9499 19.8456 21.9499Z"
        fill="#F1F4FB" />
    <path
        d="M20.7808 21.0146V16.4364C20.7716 16.439 20.7618 16.4399 20.7526 16.4426C20.3683 16.1271 19.8992 15.9325 19.4044 15.8835L19.378 15.881V11.4279C19.378 10.0098 18.2242 8.85598 16.8061 8.85593H16.806C16.7202 8.85593 16.6333 8.86019 16.5456 8.86894C15.2278 9.00085 14.2339 10.1297 14.2339 11.4947V16.6924L13.2276 17.6987C12.3049 18.6214 11.9324 19.9307 12.2313 21.2009L12.4075 21.9499H19.8455C20.362 21.9499 20.7808 21.5311 20.7808 21.0146Z"
        fill="#D5DCED" />
    <path
        d="M7.21918 7.45298C7.99398 7.45298 8.62208 6.82488 8.62208 6.05008C8.62208 5.27528 7.99398 4.64718 7.21918 4.64718C6.44438 4.64718 5.81628 5.27528 5.81628 6.05008C5.81628 6.82488 6.44438 7.45298 7.21918 7.45298Z"
        fill="#B4E66E" />
    <path
        d="M7.21918 12.597C7.99398 12.597 8.62208 11.9689 8.62208 11.1942C8.62208 10.4194 7.99398 9.79125 7.21918 9.79125C6.44438 9.79125 5.81628 10.4194 5.81628 11.1942C5.81628 11.9689 6.44438 12.597 7.21918 12.597Z"
        fill="#DAE169" />
    <path
        d="M7.21918 17.7411C7.99398 17.7411 8.62208 17.113 8.62208 16.3382C8.62208 15.5634 7.99398 14.9353 7.21918 14.9353C6.44438 14.9353 5.81628 15.5634 5.81628 16.3382C5.81628 17.113 6.44438 17.7411 7.21918 17.7411Z"
        fill="#FFDC64" />
    <path
        d="M23.9409 18.2149C23.2411 18.1448 22.6512 18.6925 22.6512 19.3779V18.9769C22.6512 18.3654 22.2112 17.8082 21.6027 17.7472C20.9028 17.6772 20.313 18.2248 20.313 18.9103V18.5093C20.313 17.8977 19.873 17.3405 19.2644 17.2796C18.5646 17.2096 17.9747 17.7572 17.9747 18.4426V11.428C17.9747 10.7425 17.3848 10.1949 16.685 10.265C16.0765 10.3259 15.6364 10.8831 15.6364 11.4947V17.2735L14.2193 18.6907C13.9376 18.9723 13.7326 19.3212 13.6237 19.7043C13.5147 20.0873 13.5054 20.4919 13.5966 20.8796L14.575 25.0379C14.9229 26.5165 16.2424 27.5616 17.7615 27.5616H21.716C23.5239 27.5616 24.9895 26.096 24.9895 24.2881V19.4446C24.9895 18.833 24.5495 18.2757 23.9409 18.2149Z"
        fill="#F0C087" />
    <path
        d="M18.4426 19.5823C18.5666 19.5823 18.6855 19.533 18.7732 19.4454C18.8609 19.3577 18.9102 19.2387 18.9102 19.1147V17.3033C18.3777 17.4125 17.975 17.8777 17.975 18.4426V19.1147C17.975 19.2387 18.0242 19.3577 18.1119 19.4454C18.1996 19.533 18.3186 19.5823 18.4426 19.5823ZM20.7808 20.05C20.9048 20.05 21.0238 20.0007 21.1115 19.913C21.1992 19.8253 21.2484 19.7064 21.2484 19.5823V17.7709C20.7159 17.8801 20.3132 18.3454 20.3132 18.9102V19.5823C20.3132 19.6437 20.3253 19.7046 20.3488 19.7613C20.3723 19.818 20.4067 19.8696 20.4501 19.913C20.4935 19.9564 20.5451 19.9909 20.6018 20.0144C20.6586 20.0379 20.7194 20.05 20.7808 20.05ZM23.119 20.5176C23.243 20.5176 23.3619 20.4683 23.4496 20.3806C23.5373 20.2929 23.5866 20.174 23.5866 20.05V18.2386C23.0541 18.3478 22.6513 18.813 22.6513 19.3779V20.05C22.6513 20.174 22.7006 20.2929 22.7883 20.3806C22.876 20.4683 22.9949 20.5176 23.119 20.5176ZM15.7421 25.0378L14.6578 20.4298C14.599 20.1797 14.605 19.9186 14.6753 19.6714C14.7456 19.4242 14.8779 19.1991 15.0597 19.0174L15.6368 18.4402V19.6117C15.6387 19.7345 15.6888 19.8516 15.7763 19.9378C15.8637 20.0239 15.9816 20.0722 16.1044 20.0722C16.2272 20.0722 16.3451 20.0239 16.4326 19.9378C16.5201 19.8516 16.5702 19.7345 16.5721 19.6117V10.2882C16.0241 10.4033 15.6368 10.9225 15.6368 11.4946V17.2735L14.2196 18.6907C13.938 18.9723 13.733 19.3212 13.624 19.7043C13.515 20.0873 13.5057 20.4919 13.5969 20.8796L14.5754 25.0378C14.9233 26.5165 16.2427 27.5616 17.7618 27.5616H18.9286C17.4094 27.5616 16.09 26.5165 15.7421 25.0378Z"
        fill="#E6AF78" />
    <path
        d="M8.62221 5.6117C8.50593 5.6117 8.39442 5.65789 8.31219 5.74011C8.22997 5.82234 8.18378 5.93385 8.18378 6.05013C8.18378 6.58197 7.75109 7.01465 7.21926 7.01465C6.68742 7.01465 6.25473 6.58197 6.25473 6.05013C6.25473 5.51829 6.68742 5.08561 7.21926 5.08561C7.33554 5.08561 7.44705 5.03942 7.52927 4.95719C7.6115 4.87497 7.65769 4.76346 7.65769 4.64718C7.65769 4.5309 7.6115 4.41938 7.52927 4.33716C7.44705 4.25494 7.33554 4.20875 7.21926 4.20875C6.20393 4.20875 5.37793 5.0348 5.37793 6.05008C5.37793 7.06535 6.20398 7.8914 7.21926 7.8914C8.23459 7.8914 9.06059 7.06535 9.06059 6.05008C9.06059 5.93381 9.0144 5.82231 8.93219 5.7401C8.84998 5.65789 8.73848 5.6117 8.62221 5.6117ZM8.62221 10.7557C8.50593 10.7557 8.39442 10.8019 8.31219 10.8841C8.22997 10.9664 8.18378 11.0779 8.18378 11.1941C8.18378 11.726 7.75109 12.1587 7.21926 12.1587C6.68742 12.1587 6.25473 11.726 6.25473 11.1941C6.25473 10.6623 6.68742 10.2296 7.21926 10.2296C7.33554 10.2296 7.44705 10.1834 7.52927 10.1012C7.6115 10.019 7.65769 9.90747 7.65769 9.79119C7.65769 9.67491 7.6115 9.5634 7.52927 9.48118C7.44705 9.39896 7.33554 9.35276 7.21926 9.35276C6.20393 9.35276 5.37793 10.1788 5.37793 11.1941C5.37793 12.2094 6.20398 13.0354 7.21926 13.0354C8.23459 13.0354 9.06059 12.2094 9.06059 11.1941C9.06057 11.0778 9.01438 10.9663 8.93217 10.8841C8.84997 10.8019 8.73847 10.7557 8.62221 10.7557ZM13.7662 11.691H10.4927C10.3765 11.691 10.2649 11.7372 10.1827 11.8194C10.1005 11.9017 10.0543 12.0132 10.0543 12.1295C10.0543 12.2457 10.1005 12.3573 10.1827 12.4395C10.2649 12.5217 10.3765 12.5679 10.4927 12.5679H13.7662C13.8825 12.5679 13.994 12.5217 14.0762 12.4395C14.1585 12.3573 14.2047 12.2457 14.2047 12.1295C14.2047 12.0132 14.1585 11.9017 14.0762 11.8194C13.994 11.7372 13.8825 11.691 13.7662 11.691ZM13.7662 9.82045H10.4927C10.3765 9.82045 10.2649 9.86664 10.1827 9.94886C10.1005 10.0311 10.0543 10.1426 10.0543 10.2589C10.0543 10.3752 10.1005 10.4867 10.1827 10.5689C10.2649 10.6511 10.3765 10.6973 10.4927 10.6973H13.7662C13.8825 10.6973 13.994 10.6511 14.0762 10.5689C14.1585 10.4867 14.2047 10.3752 14.2047 10.2589C14.2047 10.1426 14.1585 10.0311 14.0762 9.94886C13.994 9.86664 13.8825 9.82045 13.7662 9.82045ZM13.2694 17.2735C13.2694 17.1572 13.2232 17.0457 13.141 16.9635C13.0588 16.8812 12.9472 16.8351 12.831 16.8351H10.4927C10.3765 16.8351 10.2649 16.8812 10.1827 16.9635C10.1005 17.0457 10.0543 17.1572 10.0543 17.2735C10.0543 17.3898 10.1005 17.5013 10.1827 17.5835C10.2649 17.6657 10.3765 17.7119 10.4927 17.7119H12.831C12.9472 17.7119 13.0587 17.6657 13.141 17.5835C13.2232 17.5013 13.2694 17.3898 13.2694 17.2735ZM13.7662 14.9645H10.4927C10.3765 14.9645 10.2649 15.0107 10.1827 15.0929C10.1005 15.1752 10.0543 15.2867 10.0543 15.403C10.0543 15.5192 10.1005 15.6307 10.1827 15.713C10.2649 15.7952 10.3765 15.8414 10.4927 15.8414H13.7662C13.8825 15.8414 13.994 15.7952 14.0762 15.713C14.1585 15.6307 14.2047 15.5192 14.2047 15.403C14.2047 15.2867 14.1585 15.1752 14.0762 15.0929C13.994 15.0107 13.8825 14.9645 13.7662 14.9645ZM18.4134 6.9854C18.4134 6.86912 18.3672 6.7576 18.285 6.67538C18.2028 6.59316 18.0913 6.54697 17.975 6.54697H10.4927C10.3765 6.54697 10.2649 6.59316 10.1827 6.67538C10.1005 6.7576 10.0543 6.86912 10.0543 6.9854C10.0543 7.10168 10.1005 7.21319 10.1827 7.29541C10.2649 7.37763 10.3765 7.42383 10.4927 7.42383H17.975C18.0913 7.42381 18.2028 7.37762 18.285 7.2954C18.3672 7.21318 18.4134 7.10167 18.4134 6.9854ZM10.4927 5.55324H16.1044C16.2207 5.55324 16.3322 5.50705 16.4145 5.42483C16.4967 5.34261 16.5429 5.23109 16.5429 5.11481C16.5429 4.99853 16.4967 4.88702 16.4145 4.80479C16.3322 4.72257 16.2207 4.67638 16.1044 4.67638H10.4927C10.3765 4.67638 10.2649 4.72257 10.1827 4.80479C10.1005 4.88702 10.0543 4.99853 10.0543 5.11481C10.0543 5.23109 10.1005 5.34261 10.1827 5.42483C10.2649 5.50705 10.3765 5.55324 10.4927 5.55324ZM7.21926 15.3737C7.33554 15.3737 7.44705 15.3275 7.52927 15.2453C7.6115 15.1631 7.65769 15.0515 7.65769 14.9353C7.65769 14.819 7.6115 14.7075 7.52927 14.6252C7.44705 14.543 7.33554 14.4968 7.21926 14.4968C6.20393 14.4968 5.37793 15.3229 5.37793 16.3382C5.37793 17.3535 6.20398 18.1795 7.21926 18.1795C8.23459 18.1795 9.06059 17.3534 9.06059 16.3382C9.06059 16.2219 9.01439 16.1104 8.93217 16.0281C8.84995 15.9459 8.73844 15.8997 8.62216 15.8997C8.50588 15.8997 8.39436 15.9459 8.31214 16.0281C8.22992 16.1104 8.18373 16.2219 8.18373 16.3382C8.18373 16.87 7.75104 17.3027 7.2192 17.3027C6.68737 17.3027 6.25468 16.87 6.25468 16.3382C6.25479 15.8064 6.68748 15.3737 7.21926 15.3737Z"
        fill="#111111" />
    <path
        d="M11.8956 21.5115H3.94572C3.67173 21.5115 3.44883 21.2886 3.44883 21.0146V1.3737C3.44883 1.09971 3.67173 0.876805 3.94572 0.876805H19.8455C20.1195 0.876805 20.3424 1.09971 20.3424 1.3737V15.8706C20.3424 15.9869 20.3886 16.0984 20.4708 16.1807C20.553 16.2629 20.6645 16.3091 20.7808 16.3091C20.8971 16.3091 21.0086 16.2629 21.0908 16.1807C21.1731 16.0984 21.2193 15.9869 21.2193 15.8706V1.3737C21.2192 0.616219 20.603 0 19.8455 0H3.94572C3.1883 0 2.57202 0.616219 2.57202 1.3737V21.0146C2.57202 21.7721 3.18824 22.3883 3.94572 22.3883H11.8956C12.0111 22.387 12.1213 22.3403 12.2025 22.2582C12.2837 22.1761 12.3292 22.0653 12.3292 21.9499C12.3292 21.8345 12.2837 21.7237 12.2025 21.6416C12.1213 21.5595 12.0111 21.5128 11.8956 21.5115Z"
        fill="#111111" />
    <path
        d="M23.9847 17.7786C23.5772 17.7379 23.17 17.8534 22.8476 18.0982C22.5909 17.6673 22.1531 17.3617 21.6465 17.3109C21.2389 17.2704 20.8317 17.3859 20.5094 17.6305C20.2527 17.1997 19.8148 16.8941 19.3083 16.8433C19 16.8125 18.6894 16.8708 18.4133 17.0112V11.428C18.4131 11.2034 18.3659 10.9812 18.2748 10.7759C18.1836 10.5706 18.0506 10.3866 17.8841 10.2358C17.548 9.93175 17.0952 9.78332 16.6415 9.82871C15.8322 9.90971 15.1983 10.6415 15.1983 11.4947V17.0919L13.9095 18.3807C13.2247 19.0655 12.9482 20.0372 13.1701 20.98L14.1485 25.1383C14.5449 26.8232 16.0307 28 17.7617 28H21.716C23.7627 28 25.4279 26.3349 25.4279 24.2881V19.4446C25.428 18.5914 24.794 17.8596 23.9847 17.7786ZM24.5511 24.2881C24.5511 25.8513 23.2793 27.1231 21.716 27.1231H17.7618C16.4397 27.1231 15.3048 26.2244 15.002 24.9374L14.0236 20.7791C13.8718 20.1341 14.0609 19.4692 14.5295 19.0006L15.1983 18.3319V19.8455C15.1983 19.9618 15.2445 20.0733 15.3267 20.1555C15.4089 20.2377 15.5204 20.2839 15.6367 20.2839C15.753 20.2839 15.8645 20.2377 15.9467 20.1555C16.0289 20.0733 16.0751 19.9618 16.0751 19.8455V11.4947C16.0751 11.0864 16.3623 10.7378 16.729 10.7012C16.9396 10.68 17.141 10.7457 17.2959 10.886C17.3716 10.9546 17.4321 11.0382 17.4735 11.1316C17.515 11.2249 17.5364 11.3259 17.5366 11.428V19.1441C17.5366 19.2604 17.5827 19.3719 17.665 19.4541C17.7472 19.5364 17.8587 19.5826 17.975 19.5826C18.0913 19.5826 18.2028 19.5364 18.285 19.4541C18.3672 19.3719 18.4134 19.2604 18.4134 19.1441V18.4427C18.4134 18.2366 18.5011 18.039 18.6541 17.9006C18.8091 17.7604 19.0104 17.6946 19.221 17.7158C19.5876 17.7525 19.8748 18.1011 19.8748 18.5093V19.6117C19.8748 19.7279 19.921 19.8394 20.0032 19.9217C20.0855 20.0039 20.197 20.0501 20.3133 20.0501C20.4295 20.0501 20.541 20.0039 20.6233 19.9217C20.7055 19.8394 20.7517 19.7279 20.7517 19.6117V18.9102C20.7517 18.7041 20.8393 18.5065 20.9924 18.3681C21.1473 18.2279 21.3487 18.1622 21.5593 18.1833C21.9259 18.22 22.2131 18.5686 22.2131 18.9768V20.0792C22.2131 20.1955 22.2593 20.307 22.3415 20.3892C22.4237 20.4715 22.5352 20.5177 22.6515 20.5177C22.7678 20.5177 22.8793 20.4715 22.9615 20.3892C23.0438 20.307 23.09 20.1955 23.09 20.0792V19.3778C23.09 19.1717 23.1776 18.9741 23.3306 18.8357C23.4856 18.6955 23.6868 18.6297 23.8975 18.651C24.2642 18.6876 24.5514 19.0362 24.5514 19.4444V24.2881H24.5511Z"
        fill="#111111" />
</svg>
