<svg fill="none" height="22" viewBox="0 0 22 22" width="22" xmlns="http://www.w3.org/2000/svg">
    <g id="Frame">
        <g id="Group">
            <path clip-rule="evenodd"
                d="M10.5416 18.5744H2.70415C2.65552 18.5744 2.60889 18.5551 2.57451 18.5207C2.54013 18.4863 2.52081 18.4397 2.52081 18.3911V17.061C2.52081 16.3001 3.0644 15.6291 3.90223 15.059C5.39823 14.0378 7.81915 13.3943 10.5416 13.3943C10.724 13.3943 10.8989 13.3219 11.0278 13.193C11.1567 13.064 11.2291 12.8892 11.2291 12.7068C11.2291 12.5245 11.1567 12.3496 11.0278 12.2207C10.8989 12.0917 10.724 12.0193 10.5416 12.0193C7.49648 12.0193 4.80056 12.7811 3.12673 13.9223C1.84981 14.7931 1.14581 15.8996 1.14581 17.061V18.3911C1.14581 18.8044 1.30999 19.2007 1.60224 19.493C1.89448 19.7852 2.29085 19.9494 2.70415 19.9494H10.5416C10.724 19.9494 10.8989 19.877 11.0278 19.748C11.1567 19.6191 11.2291 19.4442 11.2291 19.2619C11.2291 19.0796 11.1567 18.9047 11.0278 18.7758C10.8989 18.6468 10.724 18.5744 10.5416 18.5744ZM10.5416 1.14581C7.75865 1.14581 5.49998 3.40448 5.49998 6.18748C5.49998 8.97048 7.75865 11.2291 10.5416 11.2291C13.3246 11.2291 15.5833 8.97048 15.5833 6.18748C15.5833 3.40448 13.3246 1.14581 10.5416 1.14581ZM10.5416 2.52081C12.5656 2.52081 14.2083 4.16348 14.2083 6.18748C14.2083 8.21148 12.5656 9.85415 10.5416 9.85415C8.51765 9.85415 6.87498 8.21148 6.87498 6.18748C6.87498 4.16348 8.51765 2.52081 10.5416 2.52081Z"
                fill="#111111" fill-rule="evenodd" id="Vector" />
            <path
                d="M14.2952 14.2535C14.7582 13.7768 15.3879 13.4984 16.0518 13.4765C17.463 13.482 18.6078 14.6297 18.6078 16.0417C18.6078 17.4538 17.4627 18.6022 16.0518 18.6077C15.3879 18.5858 14.7582 18.3074 14.2952 17.8307C13.8298 17.3516 13.5694 16.71 13.5694 16.0421C13.5694 15.3742 13.8298 14.7326 14.2952 14.2535Z"
                id="Vector_2" stroke="#E31E24" stroke-width="1.4" />
            <path clip-rule="evenodd"
                d="M16.7291 13.463V11.9166C16.7291 11.7343 16.6567 11.5594 16.5278 11.4305C16.3988 11.3016 16.224 11.2291 16.0416 11.2291C15.8593 11.2291 15.6844 11.3016 15.5555 11.4305C15.4266 11.5594 15.3541 11.7343 15.3541 11.9166V13.464C15.3542 13.6463 15.4268 13.8211 15.5558 13.95C15.6848 14.0788 15.8597 14.1511 16.0421 14.151C16.2244 14.1509 16.3992 14.0783 16.5281 13.9493C16.6569 13.8203 16.7292 13.6454 16.7291 13.463ZM18.3507 14.7051L19.4443 13.6106C19.5731 13.4818 19.6455 13.307 19.6455 13.1248C19.6455 12.9426 19.5731 12.7678 19.4443 12.639C19.3154 12.5101 19.1407 12.4377 18.9585 12.4377C18.7762 12.4377 18.6015 12.5101 18.4726 12.639L17.3781 13.7325C17.2495 13.8617 17.1774 14.0366 17.1774 14.2188C17.1774 14.4011 17.2495 14.5759 17.3781 14.7051C17.5073 14.8337 17.6822 14.9059 17.8644 14.9059C18.0467 14.9059 18.2215 14.8337 18.3507 14.7051ZM18.6193 16.7291H20.1666C20.349 16.7291 20.5238 16.6567 20.6528 16.5278C20.7817 16.3988 20.8541 16.224 20.8541 16.0416C20.8541 15.8593 20.7817 15.6844 20.6528 15.5555C20.5238 15.4266 20.349 15.3541 20.1666 15.3541H18.6193C18.437 15.3541 18.2621 15.4266 18.1332 15.5555C18.0042 15.6844 17.9318 15.8593 17.9318 16.0416C17.9318 16.224 18.0042 16.3988 18.1332 16.5278C18.2621 16.6567 18.437 16.7291 18.6193 16.7291ZM17.3781 18.3507L18.4726 19.4443C18.5364 19.5081 18.6122 19.5587 18.6955 19.5932C18.7789 19.6278 18.8682 19.6455 18.9585 19.6455C19.0487 19.6455 19.138 19.6278 19.2214 19.5932C19.3048 19.5587 19.3805 19.5081 19.4443 19.4443C19.5081 19.3805 19.5587 19.3048 19.5932 19.2214C19.6278 19.138 19.6455 19.0487 19.6455 18.9585C19.6455 18.8682 19.6278 18.7789 19.5932 18.6955C19.5587 18.6122 19.5081 18.5364 19.4443 18.4726L18.3507 17.3781C18.2215 17.2495 18.0467 17.1774 17.8644 17.1774C17.6822 17.1774 17.5073 17.2495 17.3781 17.3781C17.2495 17.5073 17.1774 17.6822 17.1774 17.8644C17.1774 18.0467 17.2495 18.2215 17.3781 18.3507ZM15.3541 18.6193V20.1666C15.3541 20.349 15.4266 20.5238 15.5555 20.6528C15.6844 20.7817 15.8593 20.8541 16.0416 20.8541C16.224 20.8541 16.3988 20.7817 16.5278 20.6528C16.6567 20.5238 16.7291 20.349 16.7291 20.1666V18.6193C16.7291 18.437 16.6567 18.2621 16.5278 18.1332C16.3988 18.0042 16.224 17.9318 16.0416 17.9318C15.8593 17.9318 15.6844 18.0042 15.5555 18.1332C15.4266 18.2621 15.3541 18.437 15.3541 18.6193ZM13.7325 17.3781L12.639 18.4726C12.5752 18.5364 12.5245 18.6122 12.49 18.6955C12.4555 18.7789 12.4377 18.8682 12.4377 18.9585C12.4377 19.0487 12.4555 19.138 12.49 19.2214C12.5245 19.3048 12.5752 19.3805 12.639 19.4443C12.7028 19.5081 12.7785 19.5587 12.8619 19.5932C12.9452 19.6278 13.0346 19.6455 13.1248 19.6455C13.215 19.6455 13.3044 19.6278 13.3877 19.5932C13.4711 19.5587 13.5468 19.5081 13.6106 19.4443L14.7051 18.3507C14.8337 18.2215 14.9059 18.0467 14.9059 17.8644C14.9059 17.6822 14.8337 17.5073 14.7051 17.3781C14.5759 17.2495 14.4011 17.1774 14.2188 17.1774C14.0366 17.1774 13.8617 17.2495 13.7325 17.3781ZM13.463 15.3541H11.9166C11.7343 15.3541 11.5594 15.4266 11.4305 15.5555C11.3016 15.6844 11.2291 15.8593 11.2291 16.0416C11.2291 16.224 11.3016 16.3988 11.4305 16.5278C11.5594 16.6567 11.7343 16.7291 11.9166 16.7291H13.463C13.6454 16.7291 13.8202 16.6567 13.9492 16.5278C14.0781 16.3988 14.1505 16.224 14.1505 16.0416C14.1505 15.8593 14.0781 15.6844 13.9492 15.5555C13.8202 15.4266 13.6454 15.3541 13.463 15.3541ZM14.7051 13.7325L13.6106 12.639C13.5468 12.5752 13.4711 12.5245 13.3877 12.49C13.3044 12.4555 13.215 12.4377 13.1248 12.4377C13.0346 12.4377 12.9452 12.4555 12.8619 12.49C12.7785 12.5245 12.7028 12.5752 12.639 12.639C12.5752 12.7028 12.5245 12.7785 12.49 12.8619C12.4555 12.9452 12.4377 13.0346 12.4377 13.1248C12.4377 13.215 12.4555 13.3044 12.49 13.3877C12.5245 13.4711 12.5752 13.5468 12.639 13.6106L13.7325 14.7051C13.8617 14.8337 14.0366 14.9059 14.2188 14.9059C14.4011 14.9059 14.5759 14.8337 14.7051 14.7051C14.8337 14.5759 14.9059 14.4011 14.9059 14.2188C14.9059 14.0366 14.8337 13.8617 14.7051 13.7325Z"
                fill="#E31E24" fill-rule="evenodd" id="Vector_3" />
        </g>
    </g>
</svg>
