<svg fill="none" height="22" viewBox="0 0 22 22" width="22" xmlns="http://www.w3.org/2000/svg">
    <g clip-path="url(#clip0_11750_8496)" id="Frame">
        <g id="Group">
            <path
                d="M4.12498 16.5C2.86144 16.5 1.83337 15.4719 1.83337 14.2084V13.2916C1.83337 12.0281 2.86144 11 4.12498 11C5.38852 11 6.41659 12.0281 6.41659 13.2916V14.2084C6.41659 15.4719 5.38852 16.5 4.12498 16.5ZM4.12498 11.9166C3.3668 11.9166 2.74998 12.5336 2.74998 13.2916V14.2084C2.74998 14.9664 3.3668 15.5834 4.12498 15.5834C4.88317 15.5834 5.49998 14.9664 5.49998 14.2084V13.2916C5.49998 12.5336 4.88317 11.9166 4.12498 11.9166Z"
                fill="#111111" id="Vector" />
            <path
                d="M2.75 21.0834C1.20313 21.0834 0.177418 20.0755 0.134278 20.0323C0.0916383 19.9899 0.0578222 19.9394 0.034777 19.8838C0.0117318 19.8282 -8.727e-05 19.7686 4.85111e-07 19.7084V18.1202C4.85111e-07 17.8122 0.15254 17.527 0.408891 17.357L2.95445 15.6603C3.16473 15.5201 3.44945 15.5765 3.59008 15.7873C3.73038 15.9981 3.67348 16.2823 3.4632 16.423L0.91661 18.1202V19.4989C1.1917 19.7166 1.86764 20.1666 2.75 20.1666C3.00296 20.1666 3.20839 20.3716 3.20839 20.625C3.20839 20.8784 3.00296 21.0834 2.75 21.0834ZM7.53732 18.2563L4.78732 16.423C4.72461 16.381 4.6732 16.3243 4.63763 16.2578C4.60206 16.1913 4.58343 16.117 4.58339 16.0416V15.5834H5.5V15.7964L8.04607 17.4937L7.53732 18.2563ZM11 16.5C9.73646 16.5 8.70839 15.4719 8.70839 14.2084V13.2916C8.70839 12.0281 9.73646 11 11 11C12.2635 11 13.2916 12.0281 13.2916 13.2916V14.2084C13.2916 15.4719 12.2635 16.5 11 16.5ZM11 11.9166C10.2418 11.9166 9.625 12.5336 9.625 13.2916V14.2084C9.625 14.9664 10.2418 15.5834 11 15.5834C11.7582 15.5834 12.375 14.9664 12.375 14.2084V13.2916C12.375 12.5336 11.7582 11.9166 11 11.9166Z"
                fill="#111111" id="Vector_2" />
            <path
                d="M7.33339 19.25C7.0803 19.25 6.875 19.045 6.875 18.7916V18.1202C6.875 17.8122 7.02754 17.527 7.28389 17.357L9.82945 15.6603C10.0397 15.5201 10.3244 15.5765 10.4651 15.7873C10.6054 15.9981 10.5485 16.2823 10.3382 16.423L7.79161 18.1202V18.7916C7.79161 19.045 7.58635 19.25 7.33339 19.25ZM14.6666 19.25C14.6064 19.25 14.5468 19.2382 14.4912 19.2152C14.4355 19.1922 14.385 19.1584 14.3424 19.1158C14.2999 19.0733 14.2661 19.0227 14.2431 18.9671C14.2201 18.9114 14.2083 18.8518 14.2084 18.7916V18.1202L11.6623 16.423C11.4519 16.2823 11.3951 15.9981 11.5353 15.7873C11.6756 15.5765 11.9592 15.5201 12.1711 15.6603L14.7171 17.3575C14.8427 17.4412 14.9457 17.5546 15.0168 17.6877C15.088 17.8207 15.1251 17.9693 15.125 18.1202V18.7916C15.125 18.8518 15.1132 18.9114 15.0902 18.9671C15.0672 19.0227 15.0334 19.0733 14.9908 19.1158C14.9483 19.1584 14.8977 19.1922 14.8421 19.2152C14.7864 19.2382 14.7268 19.25 14.6666 19.25ZM17.875 16.5C16.6115 16.5 15.5834 15.4719 15.5834 14.2084V13.2916C15.5834 12.0281 16.6115 11 17.875 11C19.1385 11 20.1666 12.0281 20.1666 13.2916V14.2084C20.1666 15.4719 19.1385 16.5 17.875 16.5ZM17.875 11.9166C17.1168 11.9166 16.5 12.5336 16.5 13.2916V14.2084C16.5 14.9664 17.1168 15.5834 17.875 15.5834C18.6332 15.5834 19.25 14.9664 19.25 14.2084V13.2916C19.25 12.5336 18.6332 11.9166 17.875 11.9166Z"
                fill="#111111" id="Vector_3" />
            <path
                d="M14.4627 18.2563L13.9545 17.4937L16.5 15.7964V15.5834H17.4166V16.0416C17.4166 16.1947 17.3401 16.3377 17.2127 16.423L14.4627 18.2563ZM19.25 21.0834C18.9966 21.0834 18.7916 20.8784 18.7916 20.625C18.7916 20.3716 18.9966 20.1666 19.25 20.1666C20.1409 20.1666 20.8106 19.7184 21.0834 19.5008V18.1202L18.5373 16.423C18.3265 16.2823 18.2696 15.9981 18.4103 15.7873C18.5506 15.5765 18.8343 15.5201 19.0461 15.6603L21.5922 17.3575C21.7177 17.4412 21.8207 17.5546 21.8918 17.6877C21.963 17.8207 22.0002 17.9693 22 18.1202V19.7084C22 19.8302 21.9518 19.9467 21.8657 20.0323C21.8226 20.0755 20.7969 21.0834 19.25 21.0834ZM17.4166 21.0834H2.75002C2.49706 21.0834 2.29163 20.8784 2.29163 20.625C2.29163 20.3716 2.49706 20.1666 2.75002 20.1666H17.4166C17.6701 20.1666 17.875 20.3716 17.875 20.625C17.875 20.8784 17.6701 21.0834 17.4166 21.0834ZM11 5.5C9.73648 5.5 8.70841 4.47193 8.70841 3.20839V2.29161C8.70841 1.02807 9.73648 0 11 0C12.2636 0 13.2916 1.02807 13.2916 2.29161V3.20839C13.2916 4.47193 12.2636 5.5 11 5.5ZM11 0.916609C10.2418 0.916609 9.62502 1.53364 9.62502 2.29161V3.20839C9.62502 3.96636 10.2418 4.58339 11 4.58339C11.7582 4.58339 12.375 3.96636 12.375 3.20839V2.29161C12.375 1.53364 11.7582 0.916609 11 0.916609Z"
                fill="#111111" id="Vector_4" />
            <path
                d="M12.3759 10.0834H9.62414C8.07727 10.0829 7.0519 9.07549 7.00928 9.03235C6.96668 8.98985 6.93289 8.93935 6.90984 8.88376C6.8868 8.82817 6.87496 8.76858 6.875 8.7084V7.12024C6.875 6.81275 7.02754 6.52757 7.28337 6.35754L9.625 4.7964V4.5834H10.5416V5.04162C10.5416 5.19472 10.4651 5.33768 10.3377 5.42297L7.79161 7.12024V8.49893C8.0667 8.71614 8.74229 9.16662 9.62448 9.16662H12.3759C13.2664 9.16662 13.9356 8.71846 14.2084 8.50026V7.12024L11.6623 5.42297C11.5996 5.38106 11.5482 5.32433 11.5126 5.25782C11.4771 5.19131 11.4584 5.11705 11.4584 5.04162V4.5834H12.375V4.7964L14.7166 6.35754C14.9724 6.52856 15.125 6.81357 15.125 7.12024V8.7084C15.125 8.82975 15.0768 8.94675 14.9907 9.03235C14.9476 9.07549 13.9227 10.0829 12.3759 10.0834Z"
                fill="#111111" id="Vector_5" />
            <path
                d="M3.6665 7.79163C3.6665 8.04475 3.87194 8.25002 4.12489 8.25002C4.37785 8.25002 4.58329 8.04471 4.58329 7.79163V2.75002C4.58329 2.49706 4.37785 2.29163 4.12489 2.29163C3.87194 2.29163 3.6665 2.49706 3.6665 2.75002V7.79163Z"
                fill="#E31E24" id="Vector_6" />
            <path
                d="M5.95841 4.58338C5.84111 4.58338 5.72376 4.53839 5.6343 4.4491L4.12502 2.93966L2.61574 4.4491C2.57321 4.49168 2.5227 4.52546 2.4671 4.54851C2.4115 4.57156 2.3519 4.58342 2.29172 4.58342C2.23153 4.58342 2.17193 4.57156 2.11634 4.54851C2.06074 4.52546 2.01023 4.49168 1.96769 4.4491C1.92507 4.40657 1.89126 4.35605 1.86819 4.30044C1.84513 4.24482 1.83325 4.1852 1.83325 4.12499C1.83325 4.06478 1.84513 4.00516 1.86819 3.94955C1.89126 3.89393 1.92507 3.84341 1.96769 3.80088L3.80091 1.96766C3.84344 1.92504 3.89396 1.89123 3.94958 1.86816C4.00519 1.8451 4.06481 1.83322 4.12502 1.83322C4.18523 1.83322 4.24485 1.8451 4.30047 1.86816C4.35608 1.89123 4.4066 1.92504 4.44913 1.96766L6.28235 3.80088C6.32497 3.84341 6.35878 3.89393 6.38185 3.94955C6.40492 4.00516 6.41679 4.06478 6.41679 4.12499C6.41679 4.1852 6.40492 4.24482 6.38185 4.30044C6.35878 4.35605 6.32497 4.40657 6.28235 4.4491C6.23986 4.49171 6.18936 4.5255 6.13377 4.54855C6.07818 4.57159 6.01859 4.58343 5.95841 4.58338ZM3.66663 9.1666H4.58341V10.0834H3.66663V9.1666ZM17.875 8.24999C17.6216 8.24999 17.4166 8.04473 17.4166 7.7916V2.74999C17.4166 2.49703 17.6216 2.2916 17.875 2.2916C18.1285 2.2916 18.3334 2.49703 18.3334 2.74999V7.7916C18.3334 8.04469 18.1285 8.24999 17.875 8.24999Z"
                fill="#E31E24" id="Vector_7" />
            <path
                d="M19.7084 4.58338C19.5911 4.58338 19.4738 4.53839 19.3843 4.4491L17.875 2.93966L16.3657 4.4491C16.3232 4.49168 16.2727 4.52546 16.2171 4.54851C16.1615 4.57156 16.1019 4.58342 16.0417 4.58342C15.9815 4.58342 15.9219 4.57156 15.8663 4.54851C15.8107 4.52546 15.7602 4.49168 15.7177 4.4491C15.6751 4.40657 15.6413 4.35605 15.6182 4.30044C15.5951 4.24482 15.5833 4.1852 15.5833 4.12499C15.5833 4.06478 15.5951 4.00516 15.6182 3.94955C15.6413 3.89393 15.6751 3.84341 15.7177 3.80088L17.5509 1.96766C17.5934 1.92504 17.644 1.89123 17.6996 1.86816C17.7552 1.8451 17.8148 1.83322 17.875 1.83322C17.9352 1.83322 17.9949 1.8451 18.0505 1.86816C18.1061 1.89123 18.1566 1.92504 18.1991 1.96766L20.0324 3.80088C20.075 3.84341 20.1088 3.89393 20.1318 3.94955C20.1549 4.00516 20.1668 4.06478 20.1668 4.12499C20.1668 4.1852 20.1549 4.24482 20.1318 4.30044C20.1088 4.35605 20.075 4.40657 20.0324 4.4491C19.9899 4.49171 19.9394 4.5255 19.8838 4.54855C19.8282 4.57159 19.7686 4.58343 19.7084 4.58338ZM17.4166 9.1666H18.3334V10.0834H17.4166V9.1666Z"
                fill="#E31E24" id="Vector_8" />
        </g>
    </g>
    <defs>
        <clipPath id="clip0_11750_8496">
            <rect fill="white" height="22" width="22" />
        </clipPath>
    </defs>
</svg>
