<svg fill="none" height="22" viewBox="0 0 22 22" width="22" xmlns="http://www.w3.org/2000/svg">
    <g clip-path="url(#clip0_11750_8576)" id="Frame">
        <g id="Group">
            <path
                d="M19.25 21.8281H13.75C13.6132 21.8281 13.4821 21.7738 13.3854 21.6771C13.2887 21.5804 13.2344 21.4493 13.2344 21.3125V12.375C13.2344 12.2382 13.2887 12.1071 13.3854 12.0104C13.4821 11.9137 13.6132 11.8594 13.75 11.8594H18.5625C19.2259 11.8594 19.7656 12.3991 19.7656 13.0625V21.3125C19.7656 21.4493 19.7113 21.5804 19.6146 21.6771C19.5179 21.7738 19.3868 21.8281 19.25 21.8281ZM14.2656 20.7969H18.7344V13.0625C18.7344 13.0169 18.7163 12.9732 18.684 12.941C18.6518 12.9087 18.6081 12.8906 18.5625 12.8906H14.2656V20.7969ZM8.25 21.8281H2.75C2.61325 21.8281 2.4821 21.7738 2.3854 21.6771C2.2887 21.5804 2.23438 21.4493 2.23438 21.3125V15.8125C2.23438 15.1491 2.77406 14.6094 3.4375 14.6094H8.25C8.38675 14.6094 8.5179 14.6637 8.6146 14.7604C8.7113 14.8571 8.76562 14.9882 8.76562 15.125V21.3125C8.76562 21.4493 8.7113 21.5804 8.6146 21.6771C8.5179 21.7738 8.38675 21.8281 8.25 21.8281ZM3.26562 20.7969H7.73438V15.6406H3.4375C3.39192 15.6406 3.3482 15.6587 3.31597 15.691C3.28373 15.7232 3.26562 15.7669 3.26562 15.8125V20.7969Z"
                fill="#E31E24" id="Vector" />
            <path
                d="M21.3125 21.8281H0.6875C0.550748 21.8281 0.419597 21.7738 0.322898 21.6771C0.2262 21.5804 0.171875 21.4493 0.171875 21.3125C0.171875 21.1757 0.2262 21.0446 0.322898 20.9479C0.419597 20.8512 0.550748 20.7969 0.6875 20.7969H21.3125C21.4493 20.7969 21.5804 20.8512 21.6771 20.9479C21.7738 21.0446 21.8281 21.1757 21.8281 21.3125C21.8281 21.4493 21.7738 21.5804 21.6771 21.6771C21.5804 21.7738 21.4493 21.8281 21.3125 21.8281Z"
                fill="#111111" id="Vector_2" />
            <path
                d="M12.918 7.10669C12.8432 7.10667 12.7693 7.09024 12.7015 7.05857L10.9999 6.27001L9.29834 7.05926C9.21576 7.0976 9.12451 7.11339 9.03384 7.10503C8.94318 7.09666 8.85635 7.06444 8.78218 7.01164C8.70801 6.95884 8.64914 6.88734 8.61156 6.80442C8.57398 6.72149 8.55902 6.63009 8.56822 6.53951L8.77241 4.52994L7.53422 3.31032C7.46945 3.24663 7.42266 3.16697 7.39858 3.07939C7.3745 2.9918 7.37398 2.89941 7.39707 2.81157C7.42017 2.72372 7.46606 2.64353 7.5301 2.57912C7.59415 2.51471 7.67407 2.46836 7.76178 2.44476L9.44891 1.98894L10.5792 0.38982C10.7723 0.116195 11.2275 0.116195 11.4207 0.38982L12.5509 1.98894L14.238 2.44476C14.3257 2.46836 14.4057 2.51471 14.4697 2.57912C14.5338 2.64353 14.5796 2.72372 14.6027 2.81157C14.6258 2.89941 14.6253 2.9918 14.6012 3.07939C14.5772 3.16697 14.5304 3.24663 14.4656 3.31032L13.2281 4.52994L13.4309 6.53951C13.4382 6.61125 13.4304 6.68372 13.4079 6.75225C13.3855 6.82078 13.3489 6.88384 13.3006 6.93736C13.2523 6.99087 13.1932 7.03366 13.1273 7.06294C13.0615 7.09223 12.9901 7.10737 12.918 7.10738V7.10669ZM10.9999 5.18651C11.0735 5.18651 11.1484 5.20232 11.2165 5.23463L12.3137 5.74269L12.1762 4.38832C12.1683 4.31155 12.1779 4.23399 12.204 4.16139C12.2302 4.08879 12.2724 4.02302 12.3275 3.96894L13.1023 3.20582L12.1027 2.93563C11.9867 2.90431 11.8854 2.83356 11.816 2.73557L10.9999 1.58057L10.1838 2.73557C10.1145 2.83361 10.0131 2.90436 9.89716 2.93563L8.89753 3.20651L9.67166 3.96894C9.78303 4.07894 9.83941 4.23294 9.82291 4.38832L9.68541 5.74269L10.7833 5.23394C10.8521 5.20232 10.9263 5.18651 10.9999 5.18651ZM13.7499 21.8281H8.24991C8.11315 21.8281 7.982 21.7738 7.88531 21.6771C7.78861 21.5804 7.73428 21.4493 7.73428 21.3125V10.3125C7.73428 9.64907 8.27397 9.10938 8.93741 9.10938H13.0624C13.7258 9.10938 14.2655 9.64907 14.2655 10.3125V21.3125C14.2655 21.4493 14.2112 21.5804 14.1145 21.6771C14.0178 21.7738 13.8867 21.8281 13.7499 21.8281ZM8.76553 20.7969H13.2343V10.3125C13.2343 10.2669 13.2162 10.2232 13.1839 10.191C13.1517 10.1587 13.108 10.1406 13.0624 10.1406H8.93741C8.89182 10.1406 8.84811 10.1587 8.81587 10.191C8.78364 10.2232 8.76553 10.2669 8.76553 10.3125V20.7969Z"
                fill="#111111" id="Vector_3" />
        </g>
    </g>
    <defs>
        <clipPath id="clip0_11750_8576">
            <rect fill="white" height="22" width="22" />
        </clipPath>
    </defs>
</svg>
