<svg width="24" height="22" viewBox="0 0 24 22" fill="none" xmlns="http://www.w3.org/2000/svg">
<path d="M4.70963 6.13837L6.53676 5.57403C6.68074 5.52961 6.83198 5.51423 6.98185 5.52878C7.13172 5.54333 7.27728 5.58752 7.41022 5.65882C7.54317 5.73012 7.66089 5.82715 7.75666 5.94435C7.85244 6.06155 7.9244 6.19664 7.96843 6.3419C8.01246 6.48716 8.0277 6.63974 8.01328 6.79094C7.99885 6.94214 7.95506 7.089 7.88438 7.22312C7.8137 7.35724 7.71754 7.47601 7.60137 7.57264C7.48519 7.66926 7.3513 7.74186 7.20732 7.78628L2.8229 9.1393C2.67885 9.18373 2.52753 9.19909 2.37759 9.18448C2.22765 9.16987 2.08204 9.12559 1.94907 9.05417C1.81611 8.98274 1.69841 8.88558 1.60269 8.76824C1.50697 8.65089 1.43511 8.51566 1.39123 8.37028L0.0501191 3.94693C0.00608963 3.80167 -0.0091497 3.64909 0.00527117 3.49789C0.019692 3.34669 0.0634907 3.19983 0.134166 3.06571C0.204842 2.93159 0.301011 2.81282 0.417182 2.71619C0.533352 2.61957 0.66725 2.54697 0.81123 2.50255C1.10201 2.41284 1.41621 2.44334 1.6847 2.58734C1.95319 2.73135 2.15398 2.97706 2.2429 3.27042L2.74725 4.93683C5.50742 0.647635 10.9831 -1.19687 15.8443 0.813004C17.2981 1.41419 18.6037 2.32948 19.6691 3.49449C20.7345 4.65949 21.534 6.0459 22.0112 7.55615C22.0601 7.70163 22.0798 7.85549 22.0691 8.00874C22.0584 8.16199 22.0176 8.31155 21.949 8.4487C21.8804 8.58585 21.7853 8.70783 21.6695 8.80753C21.5536 8.90722 21.4192 8.98262 21.2742 9.02933C21.1291 9.07604 20.9763 9.09312 20.8246 9.07958C20.6729 9.06603 20.5254 9.02213 20.3908 8.95044C20.2561 8.87875 20.1369 8.7807 20.0402 8.66203C19.9435 8.54336 19.8712 8.40643 19.8275 8.25926C19.3433 6.72511 18.4388 5.36042 17.2185 4.32277C15.9983 3.28512 14.512 2.61683 12.9313 2.39506C11.3506 2.17329 9.74001 2.40708 8.28542 3.06944C6.83082 3.73181 5.59044 4.79573 4.70963 6.13837ZM18.8395 15.6153L16.8049 16.1276C16.6576 16.1684 16.5036 16.179 16.3522 16.1589C16.2007 16.1388 16.0548 16.0883 15.9229 16.0105C15.7911 15.9327 15.676 15.8291 15.5844 15.7057C15.4928 15.5824 15.4266 15.4418 15.3896 15.2923C15.3526 15.1428 15.3456 14.9873 15.3691 14.835C15.3925 14.6827 15.4459 14.5366 15.526 14.4055C15.6062 14.2743 15.7115 14.1606 15.8359 14.071C15.9602 13.9815 16.1011 13.918 16.2501 13.8841L20.4259 12.8329C20.6435 12.7285 20.8882 12.6961 21.1251 12.7404C21.3534 12.7707 21.5673 12.8697 21.739 13.0244C21.9108 13.1791 22.0324 13.3823 22.088 13.6078L23.1975 18.0947C23.2633 18.3894 23.2121 18.6983 23.055 18.9555C22.8978 19.2126 22.6472 19.3975 22.3567 19.4706C22.0662 19.5437 21.7589 19.4993 21.5004 19.3467C21.242 19.1942 21.053 18.9457 20.9738 18.6544L20.5955 17.1256C19.4919 18.7279 17.9803 20.0003 16.2201 20.8086C14.4598 21.617 12.5161 21.9314 10.5935 21.7188C8.67102 21.5062 6.84094 20.7744 5.29606 19.6005C3.75119 18.4266 2.54873 16.8541 1.81535 15.0487L1.51732 14.3155C1.46027 14.1749 1.43122 14.0244 1.43183 13.8725C1.43243 13.7207 1.46268 13.5704 1.52085 13.4303C1.57902 13.2902 1.66397 13.1631 1.77084 13.0561C1.87772 12.9492 2.00443 12.8645 2.14375 12.8069C2.4251 12.6907 2.74071 12.692 3.02113 12.8105C3.15998 12.8692 3.28601 12.9549 3.39203 13.0627C3.49805 13.1705 3.58198 13.2984 3.63903 13.4389L3.93706 14.1709C4.52136 15.6093 5.48392 16.8594 6.72086 17.7863C7.9578 18.7132 9.42216 19.2818 10.9559 19.4305C12.4897 19.5793 14.0346 19.3027 15.4239 18.6305C16.8132 17.9584 17.9942 16.915 18.8395 15.6153Z" fill="#333333"/>
</svg>
