<svg fill="none" height="19" viewBox="0 0 14 19" width="14" xmlns="http://www.w3.org/2000/svg">
    <g id="Group">
        <path
            d="M13.4347 1.62272C13.0696 1.25681 12.584 1.05529 12.0673 1.05529H11.1947V0.879407C11.1947 0.394502 10.8002 0 10.3153 0H3.98356C3.49865 0 3.10415 0.394502 3.10415 0.879407V1.05529H2.22836C1.16389 1.05529 0.296905 1.92224 0.295709 2.98784L0.281251 16.0734C0.280688 16.5906 0.481439 17.0769 0.846534 17.4428C1.21166 17.8087 1.69727 18.0103 2.21391 18.0103H12.0529C13.1174 18.0103 13.9843 17.1433 13.9855 16.0777L14 2.99213C14.0006 2.47493 13.7998 1.98859 13.4347 1.62272ZM4.15944 1.05529H10.1394V2.11058H4.15944V1.05529ZM12.9313 16.0765C12.9308 16.5609 12.5367 16.955 12.0529 16.955H2.21391C1.97907 16.955 1.75834 16.8634 1.59238 16.6971C1.42642 16.5307 1.33517 16.3097 1.33541 16.0746L1.34987 2.98903C1.3504 2.50462 1.74448 2.11058 2.22836 2.11058H3.10415V2.28646C3.10415 2.77136 3.49865 3.16587 3.98356 3.16587H10.3153C10.8002 3.16587 11.1947 2.77136 11.1947 2.28646V2.11058H12.0673C12.3022 2.11058 12.5229 2.20218 12.6889 2.36849C12.8548 2.5348 12.9461 2.75589 12.9458 2.99093L12.9313 16.0765Z"
            fill="#111111" id="Vector" />
        <path
            d="M7.31995 7.03526H11.0687C11.3601 7.03526 11.5964 6.79901 11.5964 6.50761C11.5964 6.21621 11.3601 5.97997 11.0687 5.97997H7.31995C7.02855 5.97997 6.79231 6.21621 6.79231 6.50761C6.79231 6.79901 7.02855 7.03526 7.31995 7.03526ZM7.31995 10.5529H11.0687C11.3601 10.5529 11.5964 10.3166 11.5964 10.0252C11.5964 9.73384 11.3601 9.4976 11.0687 9.4976H7.31995C7.02855 9.4976 6.79231 9.73384 6.79231 10.0252C6.79231 10.3166 7.02855 10.5529 7.31995 10.5529ZM11.0838 13.0152H7.31995C7.02855 13.0152 6.79231 13.2515 6.79231 13.5429C6.79231 13.8343 7.02855 14.0705 7.31995 14.0705H11.0838C11.3752 14.0705 11.6115 13.8343 11.6115 13.5429C11.6115 13.2515 11.3753 13.0152 11.0838 13.0152ZM5.0742 5.07091L3.85738 6.28773L3.57048 6.00079C3.36442 5.79473 3.03035 5.79473 2.82429 6.00079C2.61822 6.20682 2.61822 6.54093 2.82429 6.74699L3.4843 7.40704C3.58325 7.50599 3.71746 7.56158 3.8574 7.56158C3.99733 7.56158 4.13154 7.50599 4.23049 7.40704L5.82043 5.81714C6.02649 5.61111 6.02649 5.27701 5.82043 5.07094C5.61436 4.86485 5.28029 4.86485 5.0742 5.07091ZM5.0742 8.85718L3.85738 10.074L3.57048 9.7871C3.36442 9.58104 3.03035 9.58104 2.82429 9.7871C2.61822 9.99313 2.61822 10.3272 2.82429 10.5333L3.4843 11.1933C3.58325 11.2923 3.71746 11.3479 3.8574 11.3479C3.99733 11.3479 4.13154 11.2923 4.23049 11.1933L5.82043 9.60341C6.02649 9.39738 6.02649 9.06328 5.82043 8.85721C5.61436 8.65115 5.28026 8.65115 5.0742 8.85718ZM5.0742 12.3748L3.85738 13.5916L3.57048 13.3047C3.36442 13.0987 3.03035 13.0987 2.82429 13.3047C2.61822 13.5108 2.61822 13.8448 2.82429 14.0509L3.4843 14.711C3.58325 14.8099 3.71746 14.8655 3.8574 14.8655C3.99733 14.8655 4.13154 14.8099 4.23049 14.711L5.82043 13.121C6.02649 12.915 6.02649 12.5809 5.82043 12.3748C5.61436 12.1688 5.28026 12.1688 5.0742 12.3748Z"
            fill="#111111" id="Vector_2" />
    </g>
</svg>
