<svg fill="none" height="30" viewBox="0 0 30 30" width="30" xmlns="http://www.w3.org/2000/svg">
    <g id="Frame">
        <g id="Group">
            <path
                d="M22.128 11.544V18.465C22.1303 18.5806 22.0941 18.6938 22.0252 18.7866C21.9562 18.8795 21.8584 18.9468 21.747 18.978L15.207 21.273C15.1424 21.3041 15.0717 21.3202 15 21.3202C14.9283 21.3202 14.8576 21.3041 14.793 21.273L8.22301 18.978C8.11697 18.9418 8.02549 18.8723 7.96222 18.7799C7.89895 18.6874 7.86731 18.5769 7.87201 18.465L7.83901 11.544C7.84381 11.4257 7.88671 11.3122 7.96132 11.2202C8.03593 11.1283 8.13824 11.063 8.25301 11.034L14.826 8.73899C14.8787 8.70785 14.9388 8.69142 15 8.69142C15.0612 8.69142 15.1213 8.70785 15.174 8.73899L21.774 11.034C21.8795 11.07 21.9707 11.1391 22.0339 11.2309C22.0971 11.3228 22.1291 11.4326 22.125 11.544H22.128ZM8.76301 26.982C8.63879 26.9125 8.54682 26.797 8.50689 26.6604C8.46696 26.5238 8.48226 26.377 8.5495 26.2515C8.61675 26.1261 8.73055 26.0321 8.86643 25.9897C9.00231 25.9473 9.14939 25.96 9.27601 26.025C11.8078 27.3451 14.717 27.7527 17.5141 27.1794C20.3113 26.606 22.8255 25.0867 24.6338 22.877C26.442 20.6673 27.4339 17.9021 27.4425 15.0469C27.4511 12.1916 26.4759 9.42056 24.681 7.19999C24.6662 7.17347 24.6421 7.15337 24.6134 7.14355C24.5846 7.13373 24.5533 7.13489 24.5253 7.14681C24.4974 7.15873 24.4749 7.18056 24.4621 7.20811C24.4493 7.23565 24.4471 7.26695 24.456 7.29599L24.552 7.67999C24.744 8.38199 23.691 8.63699 23.499 7.97999L22.734 5.04299C22.7072 4.95153 22.706 4.85447 22.7304 4.76234C22.7548 4.67021 22.804 4.58654 22.8727 4.52039C22.9413 4.45424 23.0267 4.40814 23.1197 4.3871C23.2126 4.36605 23.3096 4.37085 23.4 4.40099L26.304 5.16599C26.4436 5.20578 26.5618 5.2994 26.6324 5.42627C26.703 5.55314 26.7203 5.70286 26.6805 5.84249C26.6407 5.98213 26.5471 6.10024 26.4202 6.17085C26.2934 6.24146 26.1436 6.25878 26.004 6.21899L25.431 6.05999C25.302 6.02699 25.206 6.15599 25.302 6.24899C27.3232 8.63855 28.4526 11.6554 28.4975 14.7848C28.5425 17.9142 27.5002 20.9622 25.5485 23.4088C23.5968 25.8554 20.8566 27.549 17.7955 28.2007C14.7344 28.8523 11.542 28.4216 8.76301 26.982ZM21.555 3.18899C22.191 3.53999 21.651 4.49699 21.045 4.14599C18.5254 2.7438 15.5967 2.26129 12.7604 2.78111C9.92414 3.30093 7.35686 4.79073 5.49829 6.99534C3.63973 9.19995 2.60552 11.9822 2.57281 14.8655C2.54011 17.7488 3.51093 20.5538 5.31901 22.8C5.339 22.8225 5.36608 22.8375 5.39576 22.8425C5.42544 22.8475 5.45594 22.8422 5.4822 22.8275C5.50846 22.8128 5.52891 22.7896 5.54015 22.7616C5.55139 22.7337 5.55275 22.7028 5.54401 22.674L5.44801 22.323C5.25601 21.621 6.30901 21.366 6.50101 22.023L7.26601 24.957C7.29456 25.0491 7.2972 25.1473 7.27363 25.2408C7.25006 25.3343 7.20119 25.4195 7.13239 25.487C7.0636 25.5546 6.97752 25.6019 6.88361 25.6238C6.7897 25.6456 6.69158 25.6412 6.60001 25.611L3.69601 24.846C2.99401 24.654 3.28201 23.601 3.95101 23.793L4.55101 23.952C4.68001 23.985 4.77601 23.856 4.68001 23.73C0.153012 18.435 0.504012 10.398 5.44801 5.45399C7.52346 3.37991 10.2173 2.03724 13.1228 1.62866C16.0284 1.22007 18.988 1.76774 21.555 3.18899ZM15.525 14.319V19.839C15.5259 19.8614 15.5321 19.8834 15.5431 19.9029C15.5542 19.9225 15.5698 19.9391 15.5885 19.9515C15.6073 19.9638 15.6288 19.9715 15.6511 19.9738C15.6735 19.9762 15.6961 19.9731 15.717 19.965L20.979 18.114C21.012 18.084 21.075 18.051 21.075 17.988V12.471C21.075 12.405 20.979 12.342 20.886 12.375L15.621 14.193C15.558 14.223 15.525 14.256 15.525 14.319ZM14.442 19.839V14.319C14.4415 14.2946 14.4355 14.2707 14.4246 14.2489C14.4137 14.2271 14.3982 14.208 14.379 14.193L12.24 13.458C12.219 13.4504 12.1965 13.4479 12.1743 13.4507C12.1521 13.4535 12.1309 13.4615 12.1125 13.4741C12.094 13.4867 12.0788 13.5035 12.0681 13.5231C12.0574 13.5428 12.0516 13.5647 12.051 13.587V15.627C12.0514 15.6984 12.0376 15.7692 12.0105 15.8353C11.9833 15.9013 11.9434 15.9613 11.8929 16.0118C11.8424 16.0623 11.7823 16.1023 11.7163 16.1295C11.6502 16.1566 11.5794 16.1704 11.508 16.17C11.3652 16.1662 11.2293 16.1078 11.1283 16.0068C11.0272 15.9057 10.9688 15.7698 10.965 15.627V13.107C10.9645 13.0826 10.9585 13.0587 10.9476 13.0369C10.9367 13.0151 10.9212 12.996 10.902 12.981L9.10201 12.381C9.00901 12.348 8.91301 12.411 8.91301 12.477V18C8.91301 18.063 8.94301 18.096 9.00901 18.126L14.271 19.977C14.367 20.01 14.43 19.944 14.43 19.851L14.442 19.839ZM10.392 11.673L11.796 12.15C11.8013 12.1574 11.8082 12.1635 11.8163 12.1677C11.8244 12.1718 11.8334 12.174 11.8425 12.174C11.8516 12.174 11.8606 12.1718 11.8687 12.1677C11.8768 12.1635 11.8837 12.1574 11.889 12.15L16.452 10.557C16.515 10.557 16.548 10.494 16.548 10.428C16.546 10.4032 16.5352 10.38 16.5176 10.3624C16.5 10.3448 16.4768 10.334 16.452 10.332L15.048 9.82199H14.952L10.392 11.418C10.3639 11.4255 10.3391 11.4421 10.3215 11.4651C10.3038 11.4882 10.2942 11.5164 10.2942 11.5455C10.2942 11.5746 10.3038 11.6028 10.3215 11.6258C10.3391 11.6489 10.3639 11.6655 10.392 11.673ZM13.836 12.873L14.952 13.254H15.048L19.608 11.661C19.6361 11.6535 19.6609 11.6369 19.6786 11.6138C19.6963 11.5908 19.7058 11.5626 19.7058 11.5335C19.7058 11.5044 19.6963 11.4762 19.6786 11.4531C19.6609 11.4301 19.6361 11.4135 19.608 11.406L18.462 10.992H18.366L13.836 12.63C13.707 12.66 13.707 12.822 13.836 12.885V12.873ZM19.704 16.554C19.8372 16.5154 19.9801 16.5294 20.1031 16.5932C20.2262 16.6571 20.32 16.7658 20.3651 16.8969C20.4102 17.028 20.4032 17.1714 20.3455 17.2975C20.2877 17.4235 20.1837 17.5225 20.055 17.574L18.27 18.21C18.1369 18.2486 17.994 18.2346 17.8709 18.1707C17.7478 18.1069 17.654 17.9982 17.6089 17.8671C17.5638 17.736 17.5708 17.5926 17.6286 17.4665C17.6863 17.3405 17.7903 17.2415 17.919 17.19L19.704 16.554Z"
                fill="#FFB538" id="Vector" />
        </g>
    </g>
</svg>
