<svg fill="none" height="22" viewBox="0 0 22 22" width="22" xmlns="http://www.w3.org/2000/svg">
    <g clip-path="url(#clip0_11750_927)">
        <path
            d="M21.5599 11C21.5599 16.8227 16.8227 21.56 10.9999 21.56C5.1772 21.56 0.439941 16.8227 0.439941 11C0.439941 10.6352 0.735181 10.34 1.09994 10.34C1.4647 10.34 1.75994 10.6352 1.75994 11C1.75994 16.095 5.90496 20.24 10.9999 20.24C16.0949 20.24 20.2399 16.095 20.2399 11C20.2399 5.90502 16.0949 1.76 10.9999 1.76C8.54408 1.76 6.26422 2.71458 4.5491 4.4H7.03994C7.4047 4.4 7.69994 4.69524 7.69994 5.06C7.69994 5.42476 7.4047 5.72 7.03994 5.72H3.07994C2.71518 5.72 2.41994 5.42476 2.41994 5.06V1.1C2.41994 0.735242 2.71518 0.440002 3.07994 0.440002C3.4447 0.440002 3.73994 0.735242 3.73994 1.1V3.35148C5.68716 1.49292 8.24576 0.440002 10.9999 0.440002C16.8227 0.440002 21.5599 5.17726 21.5599 11Z"
            fill="#111111" />
        <path d="M11 9.6349L7.59946 8.36L11 7.0851L14.4005 8.36L11 9.6349Z" fill="#E31E24" />
        <path d="M10.34 15.3274L6.38 13.8424V9.3126L10.34 10.7976V15.3274Z" fill="#E31E24" />
        <path d="M15.62 9.3126V13.8424L11.66 15.3274V10.7976L15.62 9.3126Z" fill="#E31E24" />
    </g>
    <defs>
        <clipPath id="clip0_11750_927">
            <rect fill="white" height="22" width="22" />
        </clipPath>
    </defs>
</svg>
