<svg fill="none" height="16" viewBox="0 0 16 16" width="16" xmlns="http://www.w3.org/2000/svg">
    <path
        d="M10.7632 7.88356L6.37034 4.70499C6.34899 4.68949 6.32377 4.6802 6.29747 4.67816C6.27116 4.67612 6.24481 4.6814 6.22133 4.69342C6.19784 4.70544 6.17814 4.72373 6.16442 4.74626C6.15069 4.76879 6.14347 4.79468 6.14356 4.82106V5.65856C6.14356 5.8407 6.23106 6.01392 6.37927 6.12106L8.9757 7.99963L6.37927 9.8782C6.23106 9.98535 6.14356 10.1568 6.14356 10.3407V11.1782C6.14356 11.2943 6.2757 11.3621 6.37034 11.2943L10.7632 8.1157C10.8418 8.05856 10.8418 7.9407 10.7632 7.88356Z"
        fill="#111111" />
    <path
        d="M8 0C3.58214 0 0 3.58214 0 8C0 12.4179 3.58214 16 8 16C12.4179 16 16 12.4179 16 8C16 3.58214 12.4179 0 8 0ZM8 14.6429C4.33214 14.6429 1.35714 11.6679 1.35714 8C1.35714 4.33214 4.33214 1.35714 8 1.35714C11.6679 1.35714 14.6429 4.33214 14.6429 8C14.6429 11.6679 11.6679 14.6429 8 14.6429Z"
        fill="#111111" />
</svg>
