<svg width="14" height="21" viewBox="0 0 14 21" fill="none" xmlns="http://www.w3.org/2000/svg">
<path d="M12.8337 4.66652H11.5481C11.3731 3.79854 10.9857 3.01455 10.4701 2.33323H12.8337C13.4777 2.33323 14.0004 1.81057 14.0004 1.16658C14.0004 0.522596 13.4777 -6.10352e-05 12.8337 -6.10352e-05H1.16726C0.523271 -6.10352e-05 0.00061352 0.522596 0.00061352 1.16658C0.00061352 1.81057 0.523271 2.33323 1.16726 2.33323H5.83384C7.35281 2.33323 8.63612 3.31088 9.11911 4.66652H1.16726C0.523271 4.66652 0.00061352 5.18918 0.00061352 5.83317C0.00061352 6.47715 0.523271 6.99981 1.16726 6.99981H9.11911C8.63612 8.35545 7.35281 9.3331 5.83384 9.3331H1.16726C1.01559 9.3331 0.863931 9.36344 0.7216 9.42177C0.435664 9.54087 0.208384 9.76815 0.0892788 10.0541C0.0303647 10.1953 3.05176e-05 10.3468 3.05176e-05 10.4997C3.05176e-05 10.6527 0.0303647 10.8042 0.0892788 10.9454C0.146777 11.0884 0.233385 11.218 0.343607 11.3257L9.67444 20.6566C9.9031 20.8852 10.2018 20.9996 10.5004 20.9996C10.7991 20.9996 11.0977 20.8852 11.3264 20.6589C11.7814 20.2039 11.7814 19.4643 11.3264 19.0093L3.98354 11.6664H5.83384C8.65245 11.6664 11.0067 9.65976 11.5481 6.99981H12.8337C13.4777 6.99981 14.0004 6.47715 14.0004 5.83317C14.0004 5.18918 13.4777 4.66652 12.8337 4.66652Z" fill="white"/>
</svg>
