<svg fill="none" height="26" viewBox="0 0 26 26" width="26" xmlns="http://www.w3.org/2000/svg">
    <g clip-path="url(#clip0_11750_9214)">
        <path clip-rule="evenodd"
            d="M5.0419 6.07242H20.8566C21.3092 6.07242 21.6795 5.71635 21.6795 5.2811V1.62668C21.6795 1.19148 21.3092 0.835403 20.8566 0.835403H5.0419C4.58934 0.835403 4.21899 1.19148 4.21899 1.62668V5.2811C4.21894 5.7163 4.58929 6.07242 5.0419 6.07242Z"
            fill="#8AC9FE" fill-rule="evenodd" />
        <path clip-rule="evenodd"
            d="M2.62598 9.35542H22.7421V24.7583C22.7421 24.8703 22.702 24.9667 22.6228 25.0458C22.5435 25.1249 22.447 25.1647 22.335 25.1645H3.03299C2.92096 25.1647 2.82453 25.1249 2.74521 25.0458C2.66594 24.9667 2.62598 24.8703 2.62598 24.7583V9.35542Z"
            fill="#ECEFF1" fill-rule="evenodd" />
        <path clip-rule="evenodd"
            d="M0.879639 10.3165L4.21901 4.55121C4.30686 4.39953 4.46977 4.31061 4.65979 4.31061H21.3402C21.5302 4.31061 21.6931 4.39953 21.7809 4.55121L25.1204 10.3165C25.1204 11.8229 23.7638 13.0441 22.0903 13.0441C20.4167 13.0441 19.0601 11.8229 19.0601 10.3165C19.0601 11.8229 17.7036 13.0441 16.03 13.0441C14.3565 13.0441 12.9999 11.8229 12.9999 10.3165C12.9999 11.8229 11.6433 13.0441 9.96979 13.0441C8.29629 13.0441 6.93967 11.8229 6.93967 10.3165C6.93967 11.8229 5.5831 13.0441 3.90955 13.0441C2.23621 13.0441 0.879639 11.8229 0.879639 10.3165Z"
            fill="#FFE177" fill-rule="evenodd" />
        <path clip-rule="evenodd"
            d="M3.90965 13.0427C5.58315 13.0427 6.93972 11.8222 6.93972 10.3165H0.879639C0.879639 11.5177 1.74307 12.5375 2.94202 12.9008C3.24584 12.9928 3.57125 13.0427 3.90965 13.0427Z"
            fill="#FFD064" fill-rule="evenodd" />
        <path clip-rule="evenodd"
            d="M25.1204 10.3165L21.7809 4.55121C21.6931 4.39953 21.5302 4.31061 21.3402 4.31061H17.3019L19.0601 10.3165C19.0601 11.8229 20.4167 13.0441 22.0903 13.0441C22.4287 13.0441 22.7541 12.9942 23.0579 12.9021C24.2569 12.5386 25.1204 11.5183 25.1204 10.3165ZM9.96989 13.0441C11.6434 13.0441 13 11.8229 13 10.3165V4.31061H8.69807L6.93982 10.3165C6.93982 11.8229 8.29639 13.0441 9.96989 13.0441Z"
            fill="#FE646F" fill-rule="evenodd" />
        <path clip-rule="evenodd"
            d="M19.0602 10.3165C19.0602 11.8229 20.4168 13.0441 22.0903 13.0441C22.4287 13.0441 22.7541 12.9942 23.058 12.9021C24.2569 12.5386 25.1204 11.5184 25.1204 10.3165H19.0602ZM9.96989 13.0441C11.6434 13.0441 13 11.8229 13 10.3165H6.93982C6.93982 11.8229 8.29639 13.0441 9.96989 13.0441Z"
            fill="#FD4755" fill-rule="evenodd" />
        <path clip-rule="evenodd" d="M4.76746 16.33H11.4651V25.1645H4.76746V16.33Z" fill="#8AC9FE"
            fill-rule="evenodd" />
        <path clip-rule="evenodd"
            d="M14.3051 15.2077H20.4061C20.6299 15.2077 20.8124 15.3902 20.8124 15.6139V22.9808H13.8988V15.6139C13.8988 15.3902 14.0813 15.2077 14.3051 15.2077Z"
            fill="#D8ECFE" fill-rule="evenodd" />
        <path clip-rule="evenodd"
            d="M16.03 13.0427C17.7035 13.0427 19.0601 11.8222 19.0601 10.3165H13C13 11.5177 13.8634 12.5375 15.0623 12.9008C15.3662 12.9928 15.6916 13.0427 16.03 13.0427Z"
            fill="#FFD064" fill-rule="evenodd" />
        <path clip-rule="evenodd"
            d="M13.8998 22.5736L13.9037 20.9048L20.8124 20.9038V22.5745C20.8124 22.7982 20.6299 22.9807 20.4061 22.9807H14.306C14.194 22.9807 14.0976 22.9407 14.0185 22.8614C13.9393 22.7821 13.8995 22.6857 13.8998 22.5736Z"
            fill="#ECBA78" fill-rule="evenodd" />
        <path clip-rule="evenodd"
            d="M20.3046 20.904L20.8124 20.9039V22.5746C20.8124 22.7983 20.6299 22.9808 20.4061 22.9808H19.8983C20.1221 22.9808 20.3046 22.7983 20.3046 22.5746V20.904Z"
            fill="#E3A76F" fill-rule="evenodd" />
        <path clip-rule="evenodd"
            d="M4.7749 16.33H11.4825V15.3145C11.4825 15.1747 11.3685 15.0606 11.2286 15.0606H5.02881C4.96151 15.0608 4.89701 15.0876 4.84942 15.1352C4.80183 15.1827 4.77504 15.2472 4.7749 15.3145V16.33Z"
            fill="#60B7FF" fill-rule="evenodd" />
        <path clip-rule="evenodd"
            d="M4.7749 16.33H11.4825V15.3145C11.4825 15.1747 11.3685 15.0606 11.2286 15.0606H10.9747V15.8221H4.7749V16.33Z"
            fill="#41A8FC" fill-rule="evenodd" />
        <path clip-rule="evenodd"
            d="M14.3198 22.5514V21.286H20.4208V22.5514H14.3198ZM15.2234 15.5909V17.6562H14.3199V15.5909H15.2234ZM19.4712 18.4687H20.4208V20.4736H19.4712V18.4687ZM17.7878 18.4687H18.6588V20.4736H17.7878V18.4687ZM17.7878 15.5909H18.6588V17.6562H17.7878V15.5909ZM16.9754 17.6562H16.0358V15.5909H16.9754V17.6562ZM16.0358 18.4687H16.9754V20.4736H16.0358V18.4687ZM14.3198 20.4736V18.4687H15.2233V20.4736H14.3198ZM20.4208 17.6562H19.4712V15.5909H20.4208V17.6562ZM20.827 14.7785H13.9138C13.8604 14.7784 13.8076 14.789 13.7582 14.8094C13.7089 14.8298 13.6641 14.8597 13.6264 14.8975C13.5887 14.9352 13.5587 14.98 13.5383 15.0293C13.5179 15.0786 13.5074 15.1314 13.5074 15.1848V22.9578C13.5074 23.0112 13.5179 23.064 13.5383 23.1133C13.5587 23.1626 13.5887 23.2074 13.6264 23.2451C13.6641 23.2829 13.7089 23.3128 13.7582 23.3332C13.8076 23.3536 13.8604 23.3641 13.9138 23.3641H20.827C20.8803 23.3641 20.9332 23.3536 20.9825 23.3332C21.0318 23.3128 21.0766 23.2829 21.1143 23.2451C21.152 23.2074 21.182 23.1626 21.2024 23.1133C21.2228 23.064 21.2333 23.0112 21.2333 22.9578V15.1848C21.2333 15.077 21.1905 14.9736 21.1143 14.8975C21.0381 14.8213 20.9347 14.7785 20.827 14.7785ZM7.29138 19.8956V21.5659C7.29138 21.7899 7.10948 21.9723 6.88502 21.9723C6.66108 21.9723 6.47867 21.7899 6.47867 21.5659V19.8956C6.47867 19.7879 6.52148 19.6845 6.59769 19.6083C6.6739 19.5321 6.77725 19.4893 6.88502 19.4893C6.9928 19.4893 7.09615 19.5321 7.17236 19.6083C7.24857 19.6845 7.29138 19.7879 7.29138 19.8956ZM8.90358 21.5659V19.8956C8.90355 19.8423 8.91405 19.7894 8.93446 19.7401C8.95487 19.6908 8.9848 19.646 9.02254 19.6082C9.06028 19.5705 9.10508 19.5406 9.1544 19.5202C9.20371 19.4997 9.25656 19.4893 9.30993 19.4893C9.36328 19.4893 9.41611 19.4998 9.4654 19.5202C9.51468 19.5406 9.55946 19.5706 9.59718 19.6083C9.63489 19.646 9.6648 19.6908 9.68519 19.7401C9.70558 19.7894 9.71606 19.8423 9.71603 19.8956V21.5659C9.71603 21.7899 9.53438 21.9723 9.30993 21.9723C9.08528 21.9723 8.90358 21.7899 8.90358 21.5659ZM22.1048 12.6148C20.815 12.6148 19.7399 11.7866 19.5221 10.6998H24.6884C24.4684 11.7866 23.3952 12.6148 22.1048 12.6148ZM22.3505 24.7812V13.4186C22.2692 13.4237 22.1874 13.4275 22.1047 13.4275C20.7555 13.4275 19.5859 12.7142 19.0242 11.6797C18.4422 12.5911 17.3064 13.2116 16.0027 13.2116C14.7321 13.2116 13.6211 12.6215 13.0274 11.7471C12.4516 12.745 11.3041 13.4274 9.98471 13.4274C8.63855 13.4274 7.47165 12.7178 6.90849 11.6876C6.32506 12.5947 5.19208 13.2116 3.89208 13.2116C3.60044 13.2116 3.31724 13.1803 3.04713 13.1217V24.7812H4.37537V16.3526H4.38303V15.0837C4.38303 15.0303 4.39353 14.9774 4.41395 14.9281C4.43437 14.8788 4.4643 14.834 4.50204 14.7963C4.53977 14.7586 4.58457 14.7286 4.63387 14.7082C4.68318 14.6878 4.73602 14.6773 4.78938 14.6773H11.497C11.5504 14.6773 11.6032 14.6878 11.6525 14.7082C11.7018 14.7286 11.7466 14.7586 11.7844 14.7963C11.8221 14.834 11.852 14.8788 11.8725 14.9281C11.8929 14.9774 11.9034 15.0303 11.9034 15.0837V16.3526C11.9034 16.3938 11.8972 16.433 11.8862 16.4705V24.7812H22.3505ZM11.0906 15.9463H5.19569V15.49H11.0907L11.0906 15.9463ZM11.0735 16.759H8.54725V24.7812H11.0735V16.759ZM5.18802 16.759V24.7812H7.73454V16.759H5.18802ZM1.32042 10.6998H6.46415C6.22797 11.6668 5.16461 12.3989 3.89203 12.3989C2.61996 12.399 1.55655 11.6668 1.32042 10.6998ZM5.05654 1.21874H20.8711C21.1013 1.21874 21.2882 1.39155 21.2882 1.60382V3.88146H4.67462C4.66289 3.88146 4.65167 3.88217 4.63994 3.88242V1.60387C4.63994 1.3916 4.82686 1.21874 5.05654 1.21874ZM18.5749 10.6998C18.3387 11.6668 17.2753 12.3989 16.0027 12.3989C14.7302 12.3989 13.6673 11.6668 13.4309 10.6998H18.5749ZM12.5673 10.6998C12.3496 11.7866 11.2745 12.6148 9.98471 12.6148C8.69446 12.6148 7.61983 11.7866 7.40208 10.6998H12.5673ZM12.6087 9.88736H7.49648L9.01692 4.69391H12.6087V9.88736ZM17.0124 4.69391L18.5328 9.88736H13.4211V4.69391H17.0124ZM4.67462 4.69391C4.64928 4.69391 4.60459 4.69894 4.58524 4.73189L1.59936 9.88736H6.64986L8.17025 4.69391H4.67462ZM24.4302 9.88736L21.4441 4.73189C21.4248 4.69894 21.3801 4.69391 21.3547 4.69391H17.8588L19.3792 9.88736H24.4302ZM25.5416 10.2935C25.5416 10.2194 25.5201 10.15 25.4867 10.09V10.0898L22.1473 4.32458C22.1326 4.30027 22.1171 4.27652 22.1007 4.25338V1.60382C22.1007 0.943409 21.549 0.406296 20.8711 0.406296H5.05654C4.37892 0.406296 3.82749 0.943358 3.82749 1.60382V4.41903L0.542397 10.0898L0.542904 10.0901C0.507145 10.1519 0.488266 10.2221 0.488162 10.2935H0.458252C0.458252 11.3921 1.17625 12.3503 2.23443 12.8479V25.1876C2.23443 25.241 2.24494 25.2938 2.26536 25.3431C2.28579 25.3924 2.31572 25.4372 2.35346 25.4749C2.3912 25.5126 2.43599 25.5425 2.48529 25.5629C2.53459 25.5833 2.58743 25.5938 2.64078 25.5937H22.7571C22.8104 25.5938 22.8633 25.5833 22.9126 25.5629C22.9619 25.5426 23.0067 25.5127 23.0444 25.4749C23.0822 25.4372 23.1121 25.3924 23.1325 25.3431C23.1529 25.2938 23.1634 25.241 23.1634 25.1876V13.2748C24.5425 12.8667 25.5416 11.685 25.5416 10.2935Z"
            fill="#111111" fill-rule="evenodd" />
    </g>
    <defs>
        <clipPath id="clip0_11750_9214">
            <rect fill="white" height="26" width="26" />
        </clipPath>
    </defs>
</svg>
