<svg fill="none" height="22" viewBox="0 0 22 22" width="22" xmlns="http://www.w3.org/2000/svg">
    <g clip-path="url(#clip0_11750_8508)" id="Frame">
        <g id="Group">
            <path
                d="M3.03357 13.053C3.0407 13.0578 3.04818 13.0618 3.0554 13.0663C3.07246 13.0769 3.08947 13.0875 3.1073 13.097C3.11628 13.1017 3.12557 13.1057 3.13467 13.1102C3.1513 13.1183 3.16785 13.1265 3.18503 13.1335C3.19479 13.1375 3.20476 13.1407 3.21464 13.1444C3.23157 13.1506 3.24841 13.157 3.26586 13.1623C3.27664 13.1655 3.2876 13.1678 3.29842 13.1707C3.31514 13.175 3.33173 13.1796 3.34883 13.183C3.3627 13.1857 3.37671 13.1873 3.39068 13.1893C3.40494 13.1914 3.41904 13.1941 3.43356 13.1955C3.46239 13.1984 3.49131 13.1999 3.52023 13.1999C3.54914 13.1999 3.57806 13.1984 3.60689 13.1955C3.62137 13.1941 3.63547 13.1914 3.64977 13.1893C3.66374 13.1873 3.67775 13.1857 3.69162 13.183C3.70868 13.1796 3.72531 13.175 3.74198 13.1707C3.75285 13.1678 3.76381 13.1655 3.7746 13.1623C3.792 13.157 3.80884 13.1506 3.82577 13.1444C3.83565 13.1407 3.84562 13.1375 3.85542 13.1335C3.87256 13.1264 3.88911 13.1183 3.90573 13.1102C3.91484 13.1057 3.92417 13.1017 3.93315 13.097C3.95089 13.0875 3.96791 13.0769 3.98492 13.0663C3.99218 13.0618 3.9997 13.0578 4.00684 13.053C4.02862 13.0385 4.04955 13.0229 4.06991 13.0066C4.07193 13.0051 4.07404 13.0037 4.07606 13.002C4.10037 12.9822 4.12362 12.9611 4.14571 12.9388L6.78235 10.3021C7.12644 9.95803 7.12644 9.40189 6.78235 9.05781C6.43826 8.71372 5.88213 8.71372 5.53804 9.05781L4.45628 10.1396C4.87909 6.90511 7.65206 4.40004 11.0001 4.40004C13.1367 4.40004 15.1439 5.4384 16.3698 7.17813C16.6514 7.57498 17.2005 7.67003 17.5965 7.39022C17.9933 7.10951 18.0884 6.56038 17.8086 6.16353C16.2527 3.95743 13.7078 2.64008 11.0001 2.64008C6.64992 2.64008 3.06537 5.98087 2.67599 10.2313L1.5025 9.05781C1.15841 8.71372 0.602274 8.71372 0.258187 9.05781C-0.0858997 9.40189 -0.0858997 9.95803 0.258187 10.3021L2.89483 12.9388C2.91687 12.9611 2.94012 12.9822 2.96444 13.002C2.96645 13.0037 2.96865 13.0051 2.97071 13.0067C2.9909 13.0231 3.01183 13.0386 3.03357 13.053Z"
                fill="#111111" id="Vector" />
            <path
                d="M19.102 9.05789L21.742 11.6978C22.086 12.0419 22.086 12.5981 21.7419 12.9421C21.6603 13.024 21.5633 13.0889 21.4565 13.1331C21.3498 13.1774 21.2353 13.2001 21.1198 13.2C21.0042 13.2001 20.8897 13.1774 20.783 13.1331C20.6762 13.0889 20.5792 13.024 20.4976 12.9421L19.3241 11.7687C18.9348 16.0191 15.3502 19.3599 11 19.3599C8.29229 19.3599 5.74649 18.0425 4.19156 15.8364C3.91176 15.4396 4.00676 14.8904 4.40365 14.6097C4.80141 14.3308 5.34963 14.425 5.63034 14.8218C6.85617 16.5616 8.86342 17.5999 11 17.5999C14.3481 17.5999 17.121 15.0948 17.5438 11.8604L16.4621 12.9421C16.118 13.2862 15.5619 13.2862 15.2178 12.9421C14.8737 12.5981 14.8737 12.0419 15.2178 11.6978L17.8577 9.05789C18.2018 8.71381 18.7579 8.71381 19.102 9.05789Z"
                fill="#E31E24" id="Vector_2" />
        </g>
    </g>
    <defs>
        <clipPath id="clip0_11750_8508">
            <rect fill="white" height="22" width="22" />
        </clipPath>
    </defs>
</svg>
