<svg fill="none" height="22" viewBox="0 0 22 22" width="22" xmlns="http://www.w3.org/2000/svg">
    <g id="Frame">
        <g id="Group">
            <path
                d="M18.6884 1.98219C18.2423 1.53523 17.6492 1.28906 17.0181 1.28906H15.9521V1.07422C15.9521 0.481895 15.4703 0 14.8779 0H7.14356C6.55123 0 6.06934 0.481895 6.06934 1.07422V1.28906H4.99954C3.69927 1.28906 2.64022 2.34807 2.63876 3.64972L2.6211 19.6341C2.62041 20.2658 2.86563 20.8599 3.3116 21.3069C3.75762 21.7538 4.3508 22 4.98188 22H17.0004C18.3007 22 19.3598 20.941 19.3612 19.6393L19.3789 3.65496C19.3796 3.0232 19.1344 2.42911 18.6884 1.98219ZM7.3584 1.28906H14.6631V2.57812H7.3584V1.28906ZM18.0735 19.6379C18.0728 20.2296 17.5915 20.7109 17.0004 20.7109H4.98188C4.69502 20.7109 4.4254 20.599 4.22267 20.3959C4.01994 20.1927 3.90848 19.9227 3.90878 19.6356L3.92644 3.65118C3.92709 3.05946 4.40847 2.57812 4.99954 2.57812H6.06934V2.79297C6.06934 3.38529 6.55123 3.86719 7.14356 3.86719H14.8779C15.4703 3.86719 15.9521 3.38529 15.9521 2.79297V2.57812H17.0181C17.305 2.57812 17.5746 2.69002 17.7773 2.89317C17.9801 3.09633 18.0916 3.36639 18.0912 3.6535L18.0735 19.6379Z"
                fill="#111111" id="Vector" />
            <path
                d="M11.2191 8.59374H15.7983C16.1543 8.59374 16.4429 8.30517 16.4429 7.94921C16.4429 7.59326 16.1543 7.30468 15.7983 7.30468H11.2191C10.8632 7.30468 10.5746 7.59326 10.5746 7.94921C10.5746 8.30517 10.8632 8.59374 11.2191 8.59374ZM11.2191 12.8906H15.7983C16.1543 12.8906 16.4429 12.602 16.4429 12.2461C16.4429 11.8901 16.1543 11.6016 15.7983 11.6016H11.2191C10.8632 11.6016 10.5746 11.8901 10.5746 12.2461C10.5746 12.602 10.8632 12.8906 11.2191 12.8906ZM15.8168 15.8984H11.2191C10.8632 15.8984 10.5746 16.187 10.5746 16.543C10.5746 16.8989 10.8632 17.1875 11.2191 17.1875H15.8168C16.1727 17.1875 16.4613 16.8989 16.4613 16.543C16.4613 16.187 16.1728 15.8984 15.8168 15.8984ZM8.47586 6.19424L6.98949 7.68062L6.63904 7.33012C6.38733 7.07841 5.97925 7.07841 5.72754 7.33012C5.47583 7.58179 5.47583 7.9899 5.72754 8.24162L6.53376 9.04788C6.65464 9.16875 6.81857 9.23666 6.98951 9.23666C7.16045 9.23666 7.32439 9.16875 7.44526 9.04788L9.3874 7.10578C9.63911 6.85411 9.63911 6.44599 9.3874 6.19428C9.13569 5.94253 8.72762 5.94253 8.47586 6.19424ZM8.47586 10.8193L6.98949 12.3056L6.63904 11.9552C6.38733 11.7035 5.97925 11.7035 5.72754 11.9552C5.47583 12.2069 5.47583 12.6149 5.72754 12.8667L6.53376 13.673C6.65464 13.7938 6.81857 13.8617 6.98951 13.8617C7.16045 13.8617 7.32439 13.7938 7.44526 13.673L9.3874 11.7308C9.63911 11.4791 9.63911 11.071 9.3874 10.8193C9.13569 10.5676 8.72758 10.5676 8.47586 10.8193ZM8.47586 15.1161L6.98949 16.6025L6.63904 16.2521C6.38733 16.0004 5.97925 16.0004 5.72754 16.2521C5.47583 16.5037 5.47583 16.9118 5.72754 17.1636L6.53376 17.9698C6.65464 18.0907 6.81857 18.1586 6.98951 18.1586C7.16045 18.1586 7.32439 18.0907 7.44526 17.9698L9.3874 16.0277C9.63911 15.776 9.63911 15.3679 9.3874 15.1162C9.13569 14.8645 8.72758 14.8645 8.47586 15.1161Z"
                fill="#E31E24" id="Vector_2" />
        </g>
    </g>
</svg>
