<svg fill="none" height="98" viewBox="0 0 98 98" width="98" xmlns="http://www.w3.org/2000/svg">
    <path
        d="M49.0023 0C22.0817 0 0.194336 21.7348 0.194336 48.5792C0.194336 75.4236 22.0817 97.1584 49.0023 97.1584C75.923 97.1584 97.8103 75.4236 97.8103 48.5792C97.8103 21.7348 75.923 0 49.0023 0ZM49.0023 92.2776C24.7508 92.2776 5.07513 72.7544 5.07513 48.5792C5.07513 24.404 24.7508 4.8808 49.0023 4.8808C73.2538 4.8808 92.9295 24.4802 92.9295 48.5792C92.9295 72.7544 73.2538 92.2776 49.0023 92.2776ZM66.6952 33.708C66.0088 33.0216 64.9412 33.0216 64.2548 33.708L42.2912 55.5953L31.767 45.1474C31.0806 44.461 30.013 44.461 29.3266 45.1474L25.666 48.808C24.9796 49.4943 24.9796 50.562 25.666 51.2484L37.3342 62.9165L39.8508 65.4332L40.4609 66.0433L40.9948 66.5771C41.6811 67.2635 42.7488 67.2635 43.4352 66.5771L70.3558 39.809C71.0422 39.1226 71.0422 38.055 70.3558 37.3686L66.6952 33.708Z"
        fill="#0BCA35" />
</svg>
