<svg fill="none" height="27" viewBox="0 0 27 27" width="27" xmlns="http://www.w3.org/2000/svg">
    <path
        d="M22.2097 17.4194C19.7152 17.4194 17.6624 19.3364 17.4416 21.7742H10.2269C10.098 21.3304 9.91292 20.9032 9.67645 20.5008L10.6545 19.2784C11.0861 18.7374 11.3216 18.0661 11.3226 17.3741V13.9355H13.0867C13.3075 16.3733 15.3604 18.2903 17.8548 18.2903C20.496 18.2903 22.6452 16.1412 22.6452 13.5C22.6452 10.8588 20.496 8.70968 17.8548 8.70968C15.3604 8.70968 13.3075 10.6267 13.0867 13.0645H11.3226V12.8738C11.3229 12.5824 11.2256 12.2993 11.0463 12.0696C10.8669 11.84 10.6159 11.6769 10.3332 11.6065L9.58065 11.4184L7.83871 10.9825L6.96774 10.7647L6.09677 10.547V7.83871H10.8871C11.6074 7.83871 12.1935 7.25255 12.1935 6.53226V5.22581H17.4416C17.6624 7.66365 19.7152 9.58065 22.2097 9.58065C24.8509 9.58065 27 7.43153 27 4.79032C27 2.14911 24.8509 0 22.2097 0C19.7152 0 17.6624 1.917 17.4416 4.35484H12.1935V3.04839C12.1935 2.3281 11.6074 1.74194 10.8871 1.74194H1.30645C0.586161 1.74194 0 2.3281 0 3.04839V6.53226C0 7.25255 0.586161 7.83871 1.30645 7.83871H3.48387V12.2937C3.08018 11.964 2.57197 11.7581 2.01106 11.7581C1.81684 11.7584 1.6259 11.8083 1.45634 11.903C1.28677 11.9977 1.14418 12.1341 1.04206 12.2993C0.939938 12.4646 0.881668 12.6531 0.872761 12.8471C0.863854 13.0411 0.904607 13.2342 0.991161 13.4081L1.512 14.4498C1.66224 14.7503 1.74194 15.0873 1.74194 15.4231V17.3736C1.74194 18.0634 1.97927 18.7397 2.40997 19.278L3.38806 20.5004C2.88051 21.3621 2.61287 22.344 2.6129 23.3441V27H10.4516V23.3441C10.4516 23.109 10.4338 22.876 10.405 22.6452H17.4416C17.6624 25.083 19.7152 27 22.2097 27C24.8509 27 27 24.8509 27 22.2097C27 19.5685 24.8509 17.4194 22.2097 17.4194ZM15.4022 16.5523C15.7667 15.5154 16.737 14.8065 17.8548 14.8065C18.9727 14.8065 19.943 15.5154 20.3075 16.5523C19.6351 17.0936 18.7829 17.4194 17.8548 17.4194C16.9268 17.4194 16.0746 17.0936 15.4022 16.5523ZM16.5484 12.629C16.5484 11.9087 17.1345 11.3226 17.8548 11.3226C18.5751 11.3226 19.1613 11.9087 19.1613 12.629C19.1613 13.3493 18.5751 13.9355 17.8548 13.9355C17.1345 13.9355 16.5484 13.3493 16.5484 12.629ZM17.8548 9.58065C20.0157 9.58065 21.7742 11.3387 21.7742 13.5C21.7738 14.3566 21.4911 15.1893 20.9699 15.869C20.6158 15.152 20.0249 14.5792 19.2972 14.2477C19.7444 13.8488 20.0323 13.2744 20.0323 12.629C20.0323 11.4284 19.0555 10.4516 17.8548 10.4516C16.6542 10.4516 15.6774 11.4284 15.6774 12.629C15.6774 13.2744 15.9653 13.8488 16.4125 14.2477C15.6847 14.5792 15.0938 15.152 14.7398 15.869C14.2185 15.1893 13.9358 14.3566 13.9355 13.5C13.9355 11.3387 15.694 9.58065 17.8548 9.58065ZM19.757 7.84263C20.1215 6.80574 21.0918 6.09677 22.2097 6.09677C23.3276 6.09677 24.2978 6.80574 24.6623 7.84263C23.9899 8.38394 23.1377 8.70968 22.2097 8.70968C21.2817 8.70968 20.4294 8.38394 19.757 7.84263ZM20.9032 3.91935C20.9032 3.19906 21.4894 2.6129 22.2097 2.6129C22.93 2.6129 23.5161 3.19906 23.5161 3.91935C23.5161 4.63965 22.93 5.22581 22.2097 5.22581C21.4894 5.22581 20.9032 4.63965 20.9032 3.91935ZM22.2097 0.870968C24.3705 0.870968 26.129 2.62902 26.129 4.79032C26.1287 5.64695 25.846 6.47958 25.3247 7.15936C24.9707 6.44228 24.3798 5.86953 23.652 5.53805C24.0992 5.13915 24.3871 4.56474 24.3871 3.91935C24.3871 2.71873 23.4103 1.74194 22.2097 1.74194C21.009 1.74194 20.0323 2.71873 20.0323 3.91935C20.0323 4.56474 20.3201 5.13915 20.7674 5.53805C20.0396 5.86953 19.4487 6.44228 19.0947 7.15936C18.5734 6.47958 18.2907 5.64695 18.2903 4.79032C18.2903 2.62902 20.0488 0.870968 22.2097 0.870968ZM1.30645 6.96774C1.0665 6.96774 0.870968 6.77264 0.870968 6.53226V3.04839C0.870968 2.808 1.0665 2.6129 1.30645 2.6129H10.8871C11.127 2.6129 11.3226 2.808 11.3226 3.04839V6.53226C11.3226 6.77264 11.127 6.96774 10.8871 6.96774H6.09677V6.53226C6.09677 5.81197 5.51061 5.22581 4.79032 5.22581C4.07003 5.22581 3.48387 5.81197 3.48387 6.53226V6.96774H1.30645ZM2.6129 17.3741V15.4235C2.61244 14.9504 2.50228 14.4838 2.29108 14.0605L1.77024 13.0188C1.74966 12.9777 1.73992 12.9321 1.74196 12.8862C1.74399 12.8404 1.75773 12.7958 1.78187 12.7567C1.80601 12.7176 1.83974 12.6854 1.87986 12.663C1.91998 12.6407 1.96514 12.629 2.01106 12.629C2.40154 12.6295 2.77588 12.7848 3.05199 13.0609C3.32809 13.337 3.48341 13.7114 3.48387 14.1018V16.1129H4.35484V6.53226C4.35985 6.42013 4.40793 6.31426 4.48905 6.23668C4.57017 6.15911 4.67808 6.11582 4.79032 6.11582C4.90256 6.11582 5.01048 6.15911 5.0916 6.23668C5.17272 6.31426 5.22079 6.42013 5.22581 6.53226V16.1129H6.09677V11.445L6.96774 11.6627V16.1129H7.83871V11.8804L8.70968 12.0982V16.1129H9.58065V12.3155L10.1215 12.4509C10.2158 12.4744 10.2996 12.5289 10.3594 12.6055C10.4192 12.6821 10.4517 12.7766 10.4516 12.8738V17.3741C10.4516 17.8666 10.2822 18.3495 9.97432 18.7341L8.93569 20.0323H4.12882L3.09019 18.7341C2.78181 18.3478 2.61355 17.8683 2.6129 17.3741ZM9.58065 26.129H3.48387V23.3441C3.48387 22.4801 3.71642 21.6405 4.15887 20.9032H8.90565C9.34825 21.6404 9.58161 22.4843 9.58065 23.3441V26.129ZM19.757 25.262C20.1215 24.2251 21.0918 23.5161 22.2097 23.5161C23.3276 23.5161 24.2978 24.2251 24.6623 25.262C23.9899 25.8033 23.1377 26.129 22.2097 26.129C21.2817 26.129 20.4294 25.8033 19.757 25.262ZM20.9032 21.3387C20.9032 20.6184 21.4894 20.0323 22.2097 20.0323C22.93 20.0323 23.5161 20.6184 23.5161 21.3387C23.5161 22.059 22.93 22.6452 22.2097 22.6452C21.4894 22.6452 20.9032 22.059 20.9032 21.3387ZM25.3247 24.5787C24.9707 23.8616 24.3798 23.2889 23.652 22.9574C24.0992 22.5585 24.3871 21.9841 24.3871 21.3387C24.3871 20.1381 23.4103 19.1613 22.2097 19.1613C21.009 19.1613 20.0323 20.1381 20.0323 21.3387C20.0323 21.9841 20.3201 22.5585 20.7674 22.9574C20.0396 23.2889 19.4487 23.8616 19.0947 24.5787C18.5734 23.8989 18.2907 23.0663 18.2903 22.2097C18.2903 20.0484 20.0488 18.2903 22.2097 18.2903C24.3705 18.2903 26.129 20.0484 26.129 22.2097C26.1287 23.0663 25.846 23.8989 25.3247 24.5787Z"
        fill="#FA5A7D" id="Vector" />
</svg>
