<svg fill="none" height="30" viewBox="0 0 30 30" width="30" xmlns="http://www.w3.org/2000/svg">
    <path
        d="M14.9999 21.4716C18.5741 21.4716 21.4716 18.5742 21.4716 15C21.4716 11.4258 18.5741 8.52835 14.9999 8.52835C11.4258 8.52835 8.52832 11.4258 8.52832 15C8.52832 18.5742 11.4258 21.4716 14.9999 21.4716Z"
        stroke="#0980E0" stroke-linecap="round" stroke-linejoin="round" stroke-miterlimit="10" />
    <path
        d="M16.4707 13.5293H16.1466C16.1024 13.3105 16.0048 13.1128 15.8748 12.9411H16.4707C16.633 12.9411 16.7648 12.8093 16.7648 12.647C16.7648 12.4846 16.633 12.3528 16.4707 12.3528H13.5296C13.3673 12.3528 13.2355 12.4846 13.2355 12.647C13.2355 12.8093 13.3673 12.9411 13.5296 12.9411H14.706C15.089 12.9411 15.4125 13.1876 15.5342 13.5293H13.5296C13.3673 13.5293 13.2355 13.6611 13.2355 13.8234C13.2355 13.9858 13.3673 14.1176 13.5296 14.1176H15.5342C15.4125 14.4593 15.089 14.7058 14.706 14.7058H13.5296C13.4914 14.7058 13.4531 14.7134 13.4173 14.7281C13.3452 14.7582 13.2879 14.8155 13.2579 14.8876C13.243 14.9231 13.2354 14.9613 13.2354 14.9999C13.2354 15.0385 13.243 15.0767 13.2579 15.1123C13.2723 15.1483 13.2942 15.181 13.322 15.2081L15.6742 17.5605C15.7319 17.6181 15.8072 17.647 15.8824 17.647C15.9577 17.647 16.033 17.6181 16.0907 17.5611C16.2054 17.4464 16.2054 17.2599 16.0907 17.1452L14.2396 15.294H14.706C15.4166 15.294 16.0101 14.7881 16.1466 14.1176H16.4707C16.633 14.1176 16.7648 13.9858 16.7648 13.8234C16.7648 13.6611 16.633 13.5293 16.4707 13.5293Z"
        fill="#0980E0" />
    <path
        d="M20.2214 11.1759H24.1191V13.5292L29.4141 8.82251L24.1191 4.11591V6.46921H17.0592V8.86311M9.77859 18.8241H5.88088V16.4708L0.585938 21.1775L5.88088 25.8841V23.5308H12.9408V21.1369"
        stroke="#0980E0" stroke-linecap="round" stroke-linejoin="round" stroke-miterlimit="10" />
</svg>
