<svg fill="none" height="22" viewBox="0 0 22 22" width="22" xmlns="http://www.w3.org/2000/svg">
    <g clip-path="url(#clip0_11750_9354)" id="Frame">
        <g id="Group">
            <g id="Clip path group">
                <g id="Group_2">
                    <path
                        d="M3.56693 21.3076H1.97632C1.91934 21.3076 1.86469 21.285 1.8244 21.2447C1.78411 21.2044 1.76147 21.1498 1.76147 21.0928V19.8618H3.78177V21.0928C3.78177 21.1498 3.75914 21.2044 3.71885 21.2447C3.67856 21.285 3.62391 21.3076 3.56693 21.3076Z"
                        id="Vector" stroke="#FFB22B" stroke-linecap="round" stroke-linejoin="round"
                        stroke-miterlimit="10" />
                    <path
                        d="M20.0236 21.3076H18.433C18.376 21.3076 18.3214 21.285 18.2811 21.2447C18.2408 21.2044 18.2181 21.1498 18.2181 21.0928V19.8618H20.2384V21.0928C20.2384 21.1498 20.2158 21.2044 20.1755 21.2447C20.1352 21.285 20.0806 21.3076 20.0236 21.3076Z"
                        id="Vector_2" stroke="#FFB22B" stroke-linecap="round"
                        stroke-linejoin="round" stroke-miterlimit="10" />
                    <path d="M11 12.5126V19.8618" id="Vector_3" stroke="#FFB22B"
                        stroke-linecap="round" stroke-linejoin="round" stroke-miterlimit="10" />
                    <path
                        d="M13.4764 16.5094C13.391 16.5094 13.309 16.4754 13.2486 16.415C13.1881 16.3546 13.1542 16.2726 13.1542 16.1871C13.1542 16.1017 13.1881 16.0197 13.2486 15.9593C13.309 15.8988 13.391 15.8649 13.4764 15.8649C13.5619 15.8649 13.6439 15.8988 13.7043 15.9593C13.7648 16.0197 13.7987 16.1017 13.7987 16.1871C13.7987 16.2726 13.7648 16.3546 13.7043 16.415C13.6439 16.4754 13.5619 16.5094 13.4764 16.5094Z"
                        fill="#FFB22B" id="Vector_4" stroke="#FFB22B" />
                    <path
                        d="M8.52356 16.5094C8.43809 16.5094 8.35612 16.4754 8.29568 16.415C8.23525 16.3546 8.20129 16.2726 8.20129 16.1871C8.20129 16.1017 8.23525 16.0197 8.29568 15.9593C8.35612 15.8988 8.43809 15.8649 8.52356 15.8649C8.60903 15.8649 8.691 15.8988 8.75143 15.9593C8.81187 16.0197 8.84582 16.1017 8.84582 16.1871C8.84582 16.2726 8.81187 16.3546 8.75143 16.415C8.691 16.4754 8.60903 16.5094 8.52356 16.5094Z"
                        fill="#FFB22B" id="Vector_5" stroke="#FFB22B" />
                    <path
                        d="M21.6777 15.4353V19.4321C21.6777 19.6694 21.4853 19.8618 21.248 19.8618H7.02832"
                        id="Vector_6" stroke="#FFB22B" stroke-linecap="round"
                        stroke-linejoin="round" stroke-miterlimit="10" />
                    <path
                        d="M5.62382 19.8618H0.751952C0.514679 19.8618 0.322266 19.6694 0.322266 19.4321V12.9423C0.322266 12.705 0.514679 12.5126 0.751952 12.5126H21.248C21.4853 12.5126 21.6777 12.705 21.6777 12.9423V14.0308"
                        id="Vector_7" stroke="#FFB22B" stroke-linecap="round"
                        stroke-linejoin="round" stroke-miterlimit="10" />
                    <path d="M14.2991 10.7938L15.1584 12.5126" id="Vector_8" stroke="#FFB22B"
                        stroke-linecap="round" stroke-linejoin="round" stroke-miterlimit="10" />
                    <path d="M6.84143 12.5126L7.7008 10.7938" id="Vector_9" stroke="#FFB22B"
                        stroke-linecap="round" stroke-linejoin="round" stroke-miterlimit="10" />
                    <path
                        d="M2.8468 4.69421V1.12215C2.8468 0.884831 3.03922 0.69246 3.27649 0.69246H18.7234C18.9607 0.69246 19.153 0.884831 19.153 1.12215V10.3641C19.153 10.6015 18.9607 10.7938 18.7234 10.7938H3.27649C3.03922 10.7938 2.8468 10.6015 2.8468 10.3641V6.09869"
                        id="Vector_10" stroke="#FFB22B" stroke-linecap="round"
                        stroke-linejoin="round" stroke-miterlimit="10" />
                </g>
            </g>
        </g>
    </g>
    <defs>
        <clipPath id="clip0_11750_9354">
            <rect fill="white" height="22" width="22" />
        </clipPath>
    </defs>
</svg>
