<svg fill="none" height="20" viewBox="0 0 20 20" width="20" xmlns="http://www.w3.org/2000/svg">
    <path
        d="M15.4283 0.88125H16.6462L13.026 4.50147L11.6404 3.11593L11.6404 3.11592C11.5484 3.02393 11.4236 2.97225 11.2935 2.97225C11.1634 2.97225 11.0386 3.02393 10.9466 3.11592L10.9466 3.11593L3.92437 10.1382C3.73277 10.3298 3.73278 10.6404 3.92436 10.8321L3.9244 10.8321C4.02019 10.9278 4.1459 10.9757 4.27129 10.9757C4.39667 10.9757 4.52245 10.9278 4.61823 10.832L11.2935 4.15666L12.6791 5.5422C12.8706 5.73379 13.1813 5.73378 13.3729 5.5422L13.3729 5.5422L17.34 1.57513V2.65441C17.34 2.92538 17.5597 3.14504 17.8307 3.14504C18.1016 3.14504 18.3213 2.92538 18.3213 2.65441V0.429688C18.3213 0.423227 18.321 0.417517 18.3207 0.413854L18.3205 0.410223C18.3233 0.343595 18.3125 0.277071 18.2886 0.214747C18.264 0.150558 18.2262 0.092263 18.1776 0.0436633L18.1776 0.0436615C18.129 -0.00493791 18.0707 -0.0427533 18.0065 -0.0673196C17.9442 -0.0911691 17.8777 -0.102011 17.8111 -0.0992046L17.8075 -0.0994311C17.8038 -0.0996659 17.7981 -0.1 17.7916 -0.1H15.4283C15.1573 -0.1 14.9377 0.119654 14.9377 0.390625C14.9377 0.661596 15.1573 0.88125 15.4283 0.88125ZM19.078 19.1187H18.3213V6.77875C18.3213 6.1445 17.8054 5.62867 17.1712 5.62867H15.2562C14.622 5.62867 14.1061 6.14454 14.1061 6.77875V19.1187H12.1307V12.415C12.1307 11.7808 11.6148 11.265 10.9806 11.265H9.06559C8.43133 11.265 7.91551 11.7808 7.91551 12.415V19.1187H5.94004V15.6952C5.94004 15.0609 5.42417 14.5451 4.78996 14.5451H2.87492C2.24067 14.5451 1.72484 15.0609 1.72484 15.6952V19.1187H0.921875C0.650904 19.1187 0.43125 19.3384 0.43125 19.6094C0.43125 19.8803 0.650904 20.1 0.921875 20.1H19.078C19.349 20.1 19.5687 19.8803 19.5687 19.6094C19.5687 19.3384 19.349 19.1187 19.078 19.1187ZM4.95871 19.1187H2.70605V15.6953C2.70611 15.6505 2.72392 15.6075 2.75559 15.5759C2.78727 15.5442 2.83021 15.5264 2.875 15.5263H4.78977C4.83456 15.5264 4.8775 15.5442 4.90917 15.5759C4.94084 15.6075 4.95866 15.6505 4.95871 15.6953V19.1187ZM11.1494 19.1187H8.89672V12.4152C8.89677 12.3704 8.91459 12.3274 8.94626 12.2958C8.97793 12.2641 9.02087 12.2463 9.06566 12.2462H10.9804C11.0252 12.2463 11.0682 12.2641 11.0998 12.2958C11.1315 12.3274 11.1493 12.3704 11.1494 12.4152V19.1187ZM17.34 19.1187H15.0874V6.77887C15.0874 6.73407 15.1052 6.69113 15.1369 6.65946C15.1686 6.62779 15.2115 6.60997 15.2563 6.60992H17.1711C17.2159 6.60997 17.2588 6.62779 17.2905 6.65946C17.3222 6.69113 17.34 6.73408 17.34 6.77886V19.1187Z"
        fill="#333333" stroke="#333333" stroke-width="0.2" />
</svg>
