<svg fill="none" height="19" viewBox="0 0 21 19" width="21" xmlns="http://www.w3.org/2000/svg">
<g id="Group">
    <path
        d="M18.8999 3.5872H14.3093V2.47C14.3093 2.08013 14.1544 1.70623 13.8787 1.43055C13.6031 1.15487 13.2292 1 12.8393 1H8.16048C7.77061 1 7.39671 1.15487 7.12104 1.43055C6.84536 1.70623 6.69048 2.08013 6.69048 2.47V3.5872H2.09988C1.71001 3.5872 1.33611 3.74207 1.06044 4.01775C0.784757 4.29343 0.629883 4.66733 0.629883 5.0572V16.3804C0.629883 16.7703 0.784757 17.1442 1.06044 17.4198C1.33611 17.6955 1.71001 17.8504 2.09988 17.8504H18.8999C19.2898 17.8504 19.6637 17.6955 19.9393 17.4198C20.215 17.1442 20.3699 16.7703 20.3699 16.3804V5.0572C20.3699 4.66733 20.215 4.29343 19.9393 4.01775C19.6637 3.74207 19.2898 3.5872 18.8999 3.5872ZM7.53048 2.47C7.53048 2.30291 7.59686 2.14267 7.715 2.02452C7.83315 1.90637 7.9934 1.84 8.16048 1.84H12.8393C13.0064 1.84 13.1666 1.90637 13.2848 2.02452C13.4029 2.14267 13.4693 2.30291 13.4693 2.47V3.5872H7.53048V2.47ZM1.46988 5.0572C1.46988 4.89011 1.53626 4.72987 1.65441 4.61172C1.77255 4.49357 1.9328 4.4272 2.09988 4.4272H18.8999C19.067 4.4272 19.2272 4.49357 19.3454 4.61172C19.4635 4.72987 19.5299 4.89011 19.5299 5.0572V7.7326C19.5288 8.46298 19.2381 9.16313 18.7217 9.67959C18.2052 10.1961 17.5051 10.4867 16.7747 10.4878H12.224V9.19C12.224 9.07861 12.1797 8.97178 12.101 8.89301C12.0222 8.81425 11.9154 8.77 11.804 8.77H9.19578C9.08439 8.77 8.97756 8.81425 8.8988 8.89301C8.82003 8.97178 8.77578 9.07861 8.77578 9.19V10.4878H4.22508C3.4947 10.4867 2.79455 10.1961 2.27809 9.67959C1.76163 9.16313 1.47099 8.46298 1.46988 7.7326V5.0572ZM11.384 9.61V12.2056H9.61578V9.61H11.384ZM19.5299 16.3804C19.5299 16.5475 19.4635 16.7077 19.3454 16.8259C19.2272 16.944 19.067 17.0104 18.8999 17.0104H2.09988C1.9328 17.0104 1.77255 16.944 1.65441 16.8259C1.53626 16.7077 1.46988 16.5475 1.46988 16.3804V10.0384C1.80668 10.442 2.22802 10.7666 2.70411 10.9895C3.18021 11.2123 3.69943 11.3278 4.22508 11.3278H8.77578V12.6256C8.77578 12.737 8.82003 12.8438 8.8988 12.9226C8.97756 13.0013 9.08439 13.0456 9.19578 13.0456H11.804C11.9154 13.0456 12.0222 13.0013 12.101 12.9226C12.1797 12.8438 12.224 12.737 12.224 12.6256V11.3278H16.7747C17.3003 11.3278 17.8196 11.2123 18.2957 10.9895C18.7717 10.7666 19.1931 10.442 19.5299 10.0384V16.3804Z"
        fill="#111111" id="Vector" stroke="#111111" stroke-width="0.5" />
</g>
</svg>
